EncodeSansSemiExpanded-ExtraLight.ufo
<glyph name="exclam" format="2">
  <advance width="482.8787878787879"/>
  <unicode hex="0021"/>
  <outline>
    <contour>
      <point x="210.95454545454544" y="329.09090909090907" type="line"/>
      <point x="272.25757575757575" y="329.09090909090907" type="line"/>
      <point x="289.5" y="896.4242424242424" type="line"/>
      <point x="289.5" y="1480.0" type="line"/>
      <point x="193.37878787878788" y="1480.0" type="line"/>
      <point x="193.37878787878788" y="896.4242424242424" type="line"/>
    </contour>
    <contour>
      <point x="241.43939393939394" y="-10.606060606060606" type="curve" smooth="yes"/>
      <point x="285.71212121212125" y="-10.606060606060606"/>
      <point x="316.5909090909091" y="17.666666666666668"/>
      <point x="316.5909090909091" y="61.93939393939394" type="curve" smooth="yes"/>
      <point x="316.5909090909091" y="106.21212121212122"/>
      <point x="285.95454545454544" y="136.36363636363637"/>
      <point x="241.43939393939394" y="136.36363636363637" type="curve" smooth="yes"/>
      <point x="196.92424242424244" y="136.36363636363637"/>
      <point x="166.28787878787878" y="106.45454545454545"/>
      <point x="166.28787878787878" y="61.93939393939394" type="curve" smooth="yes"/>
      <point x="166.28787878787878" y="17.424242424242426"/>
      <point x="197.16666666666666" y="-10.606060606060606"/>
    </contour>
  </outline>
</glyph>
<glyph name="quotedbl" format="2">
  <advance width="724.4242424242425"/>
  <unicode hex="0022"/>
  <outline>
    <contour>
      <point x="180.77272727272728" y="946.0" type="line"/>
      <point x="234.71212121212122" y="946.0" type="line"/>
      <point x="258.25757575757575" y="1616.0" type="line"/>
      <point x="157.22727272727272" y="1616.0" type="line"/>
    </contour>
    <contour>
      <point x="489.71212121212125" y="946.0" type="line"/>
      <point x="543.6515151515151" y="946.0" type="line"/>
      <point x="567.1969696969697" y="1616.0" type="line"/>
      <point x="466.1666666666667" y="1616.0" type="line"/>
    </contour>
  </outline>
</glyph>
<glyph name="numbersign" format="2">
  <advance width="1163.939393939394"/>
  <unicode hex="0023"/>
  <outline>
    <contour>
      <point x="646.3181818181818" y="0.0" type="line"/>
      <point x="728.7727272727273" y="0.0" type="line"/>
      <point x="897.7727272727273" y="1480.0" type="line"/>
      <point x="815.3181818181818" y="1480.0" type="line"/>
    </contour>
    <contour>
      <point x="105.0" y="484.3636363636364" type="line"/>
      <point x="1058.939393939394" y="484.3636363636364" type="line"/>
      <point x="1058.939393939394" y="566.4242424242424" type="line"/>
      <point x="105.0" y="566.4242424242424" type="line"/>
    </contour>
    <contour>
      <point x="266.1666666666667" y="0.0" type="line"/>
      <point x="348.6212121212121" y="0.0" type="line"/>
      <point x="517.6212121212121" y="1480.0" type="line"/>
      <point x="435.1666666666667" y="1480.0" type="line"/>
    </contour>
    <contour>
      <point x="105.0" y="913.5757575757576" type="line"/>
      <point x="1058.939393939394" y="913.5757575757576" type="line"/>
      <point x="1058.939393939394" y="995.6363636363636" type="line"/>
      <point x="105.0" y="995.6363636363636" type="line"/>
    </contour>
  </outline>
</glyph>
<glyph name="dollar" format="2">
  <advance width="1094.969696969697"/>
  <unicode hex="0024"/>
  <outline>
    <contour>
      <point x="480.27272727272725" y="-18.12121212121212" type="curve" smooth="yes"/>
      <point x="815.2727272727273" y="-18.12121212121212"/>
      <point x="1003.9242424242425" y="126.07575757575758"/>
      <point x="1003.9242424242425" y="386.93939393939394" type="curve" smooth="yes"/>
      <point x="1003.9242424242425" y="595.9848484848485"/>
      <point x="879.2878787878788" y="716.060606060606"/>
      <point x="584.6818181818182" y="781.4848484848485" type="curve" smooth="yes"/>
      <point x="513.3787878787879" y="797.4545454545455" type="line" smooth="yes"/>
      <point x="273.7121212121212" y="852.1060606060606"/>
      <point x="185.83333333333334" y="935.2575757575758"/>
      <point x="185.83333333333334" y="1107.6666666666667" type="curve" smooth="yes"/>
      <point x="185.83333333333334" y="1304.2878787878788"/>
      <point x="322.1818181818182" y="1414.6969696969697"/>
      <point x="601.530303030303" y="1414.6969696969697" type="curve" smooth="yes"/>
      <point x="715.5909090909091" y="1414.6969696969697"/>
      <point x="829.0909090909091" y="1398.5757575757575"/>
      <point x="942.4090909090909" y="1363.6515151515152" type="curve"/>
      <point x="942.4090909090909" y="1449.1969696969697" type="line"/>
      <point x="840.030303030303" y="1481.590909090909"/>
      <point x="719.560606060606" y="1498.121212121212"/>
      <point x="603.6212121212121" y="1498.121212121212" type="curve" smooth="yes"/>
      <point x="263.04545454545456" y="1498.121212121212"/>
      <point x="91.04545454545455" y="1345.6969696969697"/>
      <point x="91.04545454545455" y="1102.7272727272727" type="curve" smooth="yes"/>
      <point x="91.04545454545455" y="892.969696969697"/>
      <point x="216.6818181818182" y="769.7575757575758"/>
      <point x="486.3939393939394" y="709.4242424242424" type="curve" smooth="yes"/>
      <point x="557.6969696969697" y="693.4545454545455" type="line" smooth="yes"/>
      <point x="807.3636363636364" y="636.6515151515151"/>
      <point x="909.1363636363636" y="558.9848484848485"/>
      <point x="909.1363636363636" y="382.95454545454544" type="curve" smooth="yes"/>
      <point x="909.1363636363636" y="174.9090909090909"/>
      <point x="768.7878787878788" y="65.30303030303031"/>
      <point x="482.72727272727275" y="65.30303030303031" type="curve" smooth="yes"/>
      <point x="372.3787878787879" y="65.30303030303031"/>
      <point x="243.53030303030303" y="83.28787878787878"/>
      <point x="109.62121212121212" y="128.04545454545456" type="curve"/>
      <point x="109.62121212121212" y="42.5" type="line"/>
      <point x="229.96969696969697" y="1.212121212121212"/>
      <point x="364.28787878787875" y="-18.12121212121212"/>
    </contour>
    <contour>
      <point x="505.6060606060606" y="-240.0" type="line"/>
      <point x="591.1818181818182" y="-240.0" type="line"/>
      <point x="591.1818181818182" y="8.939393939393938" type="line"/>
      <point x="505.6060606060606" y="4.242424242424242" type="line"/>
    </contour>
    <contour>
      <point x="505.6060606060606" y="1476.3636363636363" type="line"/>
      <point x="591.1818181818182" y="1476.3636363636363" type="line"/>
      <point x="591.1818181818182" y="1720.0" type="line"/>
      <point x="505.6060606060606" y="1720.0" type="line"/>
    </contour>
  </outline>
</glyph>
<glyph name="percent" format="2">
  <advance width="1814.621212121212"/>
  <unicode hex="0025"/>
  <note>
450
</note>
  <outline>
    <contour>
      <point x="511.5" y="0.0" type="line"/>
      <point x="601.3939393939394" y="0.0" type="line"/>
      <point x="1303.121212121212" y="1480.0" type="line"/>
      <point x="1213.2272727272727" y="1480.0" type="line"/>
    </contour>
    <contour>
      <point x="449.530303030303" y="577.2727272727273" type="curve" smooth="yes"/>
      <point x="639.0151515151515" y="577.2727272727273"/>
      <point x="775.8484848484849" y="704.8787878787879"/>
      <point x="775.8484848484849" y="1037.6666666666667" type="curve" smooth="yes"/>
      <point x="775.8484848484849" y="1370.4545454545455"/>
      <point x="642.3030303030303" y="1498.121212121212"/>
      <point x="449.530303030303" y="1498.121212121212" type="curve" smooth="yes"/>
      <point x="256.75757575757575" y="1498.121212121212"/>
      <point x="123.21212121212122" y="1370.4545454545455"/>
      <point x="123.21212121212122" y="1037.6666666666667" type="curve" smooth="yes"/>
      <point x="123.21212121212122" y="704.8787878787879"/>
      <point x="260.04545454545456" y="577.2727272727273"/>
    </contour>
    <contour>
      <point x="449.530303030303" y="652.9848484848485" type="curve" smooth="yes"/>
      <point x="305.2878787878788" y="652.9848484848485"/>
      <point x="207.1969696969697" y="753.9242424242424"/>
      <point x="207.1969696969697" y="1039.5454545454545" type="curve" smooth="yes"/>
      <point x="207.1969696969697" y="1324.2272727272727"/>
      <point x="305.2878787878788" y="1422.409090909091"/>
      <point x="449.530303030303" y="1422.409090909091" type="curve" smooth="yes"/>
      <point x="592.3636363636364" y="1422.409090909091"/>
      <point x="691.8636363636364" y="1324.2272727272727"/>
      <point x="691.8636363636364" y="1035.7878787878788" type="curve" smooth="yes"/>
      <point x="691.8636363636364" y="748.2878787878788"/>
      <point x="592.3636363636364" y="652.9848484848485"/>
    </contour>
    <contour>
      <point x="1365.090909090909" y="-18.0" type="curve" smooth="yes"/>
      <point x="1555.0454545454545" y="-18.0"/>
      <point x="1691.409090909091" y="109.60606060606061"/>
      <point x="1691.409090909091" y="442.3939393939394" type="curve" smooth="yes"/>
      <point x="1691.409090909091" y="775.1818181818181"/>
      <point x="1557.3939393939395" y="902.8484848484849"/>
      <point x="1365.090909090909" y="902.8484848484849" type="curve" smooth="yes"/>
      <point x="1172.7878787878788" y="902.8484848484849"/>
      <point x="1038.7727272727273" y="775.1818181818181"/>
      <point x="1038.7727272727273" y="442.3939393939394" type="curve" smooth="yes"/>
      <point x="1038.7727272727273" y="109.60606060606061"/>
      <point x="1175.1363636363637" y="-18.0"/>
    </contour>
    <contour>
      <point x="1365.090909090909" y="57.71212121212121" type="curve" smooth="yes"/>
      <point x="1222.2575757575758" y="57.71212121212121"/>
      <point x="1122.7575757575758" y="158.65151515151516"/>
      <point x="1122.7575757575758" y="444.27272727272725" type="curve" smooth="yes"/>
      <point x="1122.7575757575758" y="728.9545454545455"/>
      <point x="1222.2575757575758" y="827.1363636363636"/>
      <point x="1365.090909090909" y="827.1363636363636" type="curve" smooth="yes"/>
      <point x="1507.9242424242425" y="827.1363636363636"/>
      <point x="1607.4242424242425" y="728.9545454545455"/>
      <point x="1607.4242424242425" y="440.5151515151515" type="curve" smooth="yes"/>
      <point x="1607.4242424242425" y="153.0151515151515"/>
      <point x="1507.9242424242425" y="57.71212121212121"/>
    </contour>
  </outline>
</glyph>
<glyph name="ampersand" format="2">
  <advance width="1541.121212121212"/>
  <unicode hex="0026"/>
  <outline>
    <contour>
      <point x="1493.651515151515" y="-20.0" type="line"/>
      <point x="1541.121212121212" y="49.333333333333336" type="line"/>
      <point x="729.0" y="657.0757575757576" type="line" smooth="yes"/>
      <point x="484.45454545454544" y="842.2272727272727"/>
      <point x="429.3181818181818" y="938.1212121212121"/>
      <point x="429.3181818181818" y="1087.378787878788" type="curve" smooth="yes"/>
      <point x="429.3181818181818" y="1296.1363636363637"/>
      <point x="551.7878787878788" y="1414.6969696969697"/>
      <point x="843.0151515151515" y="1414.6969696969697" type="curve" smooth="yes"/>
      <point x="940.2575757575758" y="1414.6969696969697"/>
      <point x="1025.1666666666667" y="1403.1969696969697"/>
      <point x="1103.2121212121212" y="1380.7727272727273" type="curve"/>
      <point x="1103.2121212121212" y="1466.3181818181818" type="line"/>
      <point x="1032.2424242424242" y="1485.8636363636363"/>
      <point x="944.469696969697" y="1498.121212121212"/>
      <point x="843.3333333333334" y="1498.121212121212" type="curve" smooth="yes"/>
      <point x="499.6818181818182" y="1498.121212121212"/>
      <point x="334.530303030303" y="1347.121212121212"/>
      <point x="334.530303030303" y="1087.878787878788" type="curve" smooth="yes"/>
      <point x="334.530303030303" y="909.7878787878788"/>
      <point x="416.0909090909091" y="785.530303030303"/>
      <point x="681.530303030303" y="587.7424242424242" type="curve" smooth="yes"/>
    </contour>
    <contour>
      <point x="715.6212121212121" y="-18.0" type="curve" smooth="yes"/>
      <point x="1086.2878787878788" y="-18.0"/>
      <point x="1293.6969696969697" y="161.74242424242425"/>
      <point x="1293.6969696969697" y="489.8636363636364" type="curve" smooth="yes"/>
      <point x="1293.6969696969697" y="583.0"/>
      <point x="1279.378787878788" y="679.4545454545455"/>
      <point x="1248.6060606060605" y="768.8484848484849" type="curve"/>
      <point x="1161.8181818181818" y="768.8484848484849" type="line"/>
      <point x="1193.060606060606" y="679.4545454545455"/>
      <point x="1210.7575757575758" y="580.060606060606"/>
      <point x="1210.7575757575758" y="490.56060606060606" type="curve" smooth="yes"/>
      <point x="1210.7575757575758" y="201.56060606060606"/>
      <point x="1034.439393939394" y="62.36363636363636"/>
      <point x="720.7424242424242" y="62.36363636363636" type="curve" smooth="yes"/>
      <point x="388.2121212121212" y="62.36363636363636"/>
      <point x="255.92424242424244" y="207.37878787878788"/>
      <point x="255.92424242424244" y="409.8484848484849" type="curve" smooth="yes"/>
      <point x="255.92424242424244" y="567.2272727272727"/>
      <point x="333.78787878787875" y="683.2272727272727"/>
      <point x="502.24242424242425" y="755.530303030303" type="curve"/>
      <point x="450.6363636363636" y="818.8787878787879" type="line"/>
      <point x="263.1212121212121" y="736.7121212121212"/>
      <point x="161.1969696969697" y="591.6666666666666"/>
      <point x="161.1969696969697" y="401.3030303030303" type="curve" smooth="yes"/>
      <point x="161.1969696969697" y="156.45454545454547"/>
      <point x="337.04545454545456" y="-18.0"/>
    </contour>
  </outline>
</glyph>
<glyph name="quotesingle" format="2">
  <advance width="415.4848484848485"/>
  <unicode hex="0027"/>
  <outline>
    <contour>
      <point x="180.77272727272728" y="946.0" type="line"/>
      <point x="234.71212121212122" y="946.0" type="line"/>
      <point x="258.25757575757575" y="1616.0" type="line"/>
      <point x="157.22727272727272" y="1616.0" type="line"/>
    </contour>
  </outline>
</glyph>
<glyph name="parenleft" format="2">
  <advance width="673.7575757575758"/>
  <unicode hex="0028"/>
  <outline>
    <contour>
      <point x="507.530303030303" y="-440.0" type="curve"/>
      <point x="614.4242424242424" y="-440.0" type="line"/>
      <point x="346.1818181818182" y="-127.45454545454545"/>
      <point x="239.87878787878788" y="215.6060606060606"/>
      <point x="239.87878787878788" y="588.0" type="curve" smooth="yes"/>
      <point x="239.87878787878788" y="960.3939393939394"/>
      <point x="346.1818181818182" y="1303.4545454545455"/>
      <point x="614.4242424242424" y="1616.0" type="curve"/>
      <point x="507.530303030303" y="1616.0" type="line"/>
      <point x="254.63636363636363" y="1318.4545454545455"/>
      <point x="144.87878787878788" y="966.0909090909091"/>
      <point x="144.87878787878788" y="588.0" type="curve" smooth="yes"/>
      <point x="144.87878787878788" y="209.9090909090909"/>
      <point x="254.63636363636363" y="-142.45454545454547"/>
    </contour>
  </outline>
</glyph>
<glyph name="parenright" format="2">
  <advance width="673.7575757575758"/>
  <unicode hex="0029"/>
  <outline>
    <contour>
      <point x="59.33333333333333" y="-440.0" type="curve"/>
      <point x="166.22727272727272" y="-440.0" type="line"/>
      <point x="419.1212121212121" y="-142.45454545454547"/>
      <point x="528.8787878787879" y="209.9090909090909"/>
      <point x="528.8787878787879" y="588.0" type="curve" smooth="yes"/>
      <point x="528.8787878787879" y="966.0909090909091"/>
      <point x="419.1212121212121" y="1318.4545454545455"/>
      <point x="166.22727272727272" y="1616.0" type="curve"/>
      <point x="59.33333333333333" y="1616.0" type="line"/>
      <point x="327.57575757575756" y="1303.4545454545455"/>
      <point x="433.8787878787879" y="960.3939393939394"/>
      <point x="433.8787878787879" y="588.0" type="curve" smooth="yes"/>
      <point x="433.8787878787879" y="215.6060606060606"/>
      <point x="327.57575757575756" y="-127.45454545454545"/>
    </contour>
  </outline>
</glyph>
<glyph name="asterisk" format="2">
  <advance width="900.2424242424242"/>
  <unicode hex="002A"/>
  <outline>
    <contour>
      <point x="484.6666666666667" y="1199.090909090909" type="line"/>
      <point x="681.2424242424242" y="1245.090909090909" type="line"/>
      <point x="870.2424242424242" y="1305.7878787878788" type="line"/>
      <point x="846.2121212121212" y="1378.2424242424242" type="line"/>
      <point x="659.0909090909091" y="1317.5151515151515" type="line"/>
      <point x="471.0" y="1238.3030303030303" type="line"/>
      <point x="488.6363636363636" y="1441.0" type="line"/>
      <point x="488.6363636363636" y="1616.0" type="line"/>
      <point x="411.6060606060606" y="1616.0" type="line"/>
      <point x="411.6060606060606" y="1441.0" type="line"/>
      <point x="429.24242424242425" y="1238.3030303030303" type="line"/>
      <point x="241.15151515151516" y="1317.5151515151515" type="line"/>
      <point x="54.03030303030303" y="1378.2424242424242" type="line"/>
      <point x="30.0" y="1305.7878787878788" type="line"/>
      <point x="219.0" y="1245.090909090909" type="line"/>
      <point x="415.57575757575756" y="1199.090909090909" type="line"/>
      <point x="283.27272727272725" y="1045.3939393939395" type="line"/>
      <point x="174.1969696969697" y="897.560606060606" type="line"/>
      <point x="236.74242424242425" y="851.9545454545455" type="line"/>
      <point x="345.8181818181818" y="999.6969696969697" type="line"/>
      <point x="450.1212121212121" y="1174.5454545454545" type="line"/>
      <point x="554.4242424242424" y="999.6969696969697" type="line"/>
      <point x="663.5" y="851.9545454545455" type="line"/>
      <point x="726.0454545454545" y="897.560606060606" type="line"/>
      <point x="616.969696969697" y="1045.3939393939395" type="line"/>
    </contour>
  </outline>
</glyph>
<glyph name="plus" format="2">
  <advance width="1089.3030303030303"/>
  <unicode hex="002B"/>
  <outline>
    <contour>
      <point x="502.25757575757575" y="372.1818181818182" type="line"/>
      <point x="587.0454545454545" y="372.1818181818182" type="line"/>
      <point x="587.0454545454545" y="719.939393939394" type="line"/>
      <point x="915.2575757575758" y="719.939393939394" type="line"/>
      <point x="915.2575757575758" y="800.060606060606" type="line"/>
      <point x="587.0454545454545" y="800.060606060606" type="line"/>
      <point x="587.0454545454545" y="1147.8181818181818" type="line"/>
      <point x="502.25757575757575" y="1147.8181818181818" type="line"/>
      <point x="502.25757575757575" y="800.060606060606" type="line"/>
      <point x="174.04545454545456" y="800.060606060606" type="line"/>
      <point x="174.04545454545456" y="719.939393939394" type="line"/>
      <point x="502.25757575757575" y="719.939393939394" type="line"/>
    </contour>
  </outline>
</glyph>
<glyph name="hyphen" format="2">
  <advance width="870.7575757575758"/>
  <unicode hex="002D"/>
  <outline>
    <contour>
      <point x="174.04545454545456" y="519.7272727272727" type="line"/>
      <point x="696.7121212121212" y="519.7272727272727" type="line"/>
      <point x="696.7121212121212" y="601.4848484848485" type="line"/>
      <point x="174.04545454545456" y="601.4848484848485" type="line"/>
    </contour>
  </outline>
</glyph>
<glyph name="period" format="2">
  <advance width="442.8787878787879"/>
  <unicode hex="002E"/>
  <outline>
    <contour>
      <point x="221.43939393939394" y="-10.606060606060606" type="curve" smooth="yes"/>
      <point x="265.71212121212125" y="-10.606060606060606"/>
      <point x="296.5909090909091" y="18.03030303030303"/>
      <point x="296.5909090909091" y="62.93939393939394" type="curve" smooth="yes"/>
      <point x="296.5909090909091" y="107.84848484848484"/>
      <point x="265.95454545454544" y="138.36363636363637"/>
      <point x="221.43939393939394" y="138.36363636363637" type="curve" smooth="yes"/>
      <point x="176.92424242424244" y="138.36363636363637"/>
      <point x="146.28787878787878" y="108.0909090909091"/>
      <point x="146.28787878787878" y="62.93939393939394" type="curve" smooth="yes"/>
      <point x="146.28787878787878" y="17.78787878787879"/>
      <point x="177.16666666666666" y="-10.606060606060606"/>
    </contour>
  </outline>
</glyph>
<glyph name="slash" format="2">
  <advance width="591.5909090909091"/>
  <unicode hex="002F"/>
  <outline>
    <contour>
      <point x="0.0" y="-240.0" type="line"/>
      <point x="91.13636363636364" y="-240.0" type="line"/>
      <point x="591.5909090909091" y="1616.0" type="line"/>
      <point x="500.45454545454544" y="1616.0" type="line"/>
    </contour>
  </outline>
</glyph>
<glyph name="zero" format="2">
  <advance width="1291.5151515151515"/>
  <unicode hex="0030"/>
  <note>
600
</note>
  <outline>
    <contour>
      <point x="645.7121212121212" y="-18.12121212121212" type="curve" smooth="yes"/>
      <point x="954.4242424242424" y="-18.12121212121212"/>
      <point x="1156.6363636363635" y="183.0909090909091"/>
      <point x="1156.6363636363635" y="740.0" type="curve" smooth="yes"/>
      <point x="1156.6363636363635" y="1296.909090909091"/>
      <point x="959.1212121212121" y="1498.121212121212"/>
      <point x="645.7121212121212" y="1498.121212121212" type="curve" smooth="yes"/>
      <point x="332.3030303030303" y="1498.121212121212"/>
      <point x="134.87878787878788" y="1296.909090909091"/>
      <point x="134.87878787878788" y="740.0" type="curve" smooth="yes"/>
      <point x="134.87878787878788" y="183.0909090909091"/>
      <point x="337.0" y="-18.12121212121212"/>
    </contour>
    <contour>
      <point x="645.8030303030303" y="65.96969696969697" type="curve" smooth="yes"/>
      <point x="395.0151515151515" y="65.96969696969697"/>
      <point x="229.36363636363637" y="220.12121212121212"/>
      <point x="229.36363636363637" y="743.7575757575758" type="curve" smooth="yes"/>
      <point x="229.36363636363637" y="1259.878787878788"/>
      <point x="395.1969696969697" y="1414.030303030303"/>
      <point x="645.8030303030303" y="1414.030303030303" type="curve" smooth="yes"/>
      <point x="896.3181818181818" y="1414.030303030303"/>
      <point x="1062.1515151515152" y="1259.878787878788"/>
      <point x="1062.1515151515152" y="736.2424242424242" type="curve" smooth="yes"/>
      <point x="1062.1515151515152" y="220.12121212121212"/>
      <point x="896.3181818181818" y="65.96969696969697"/>
    </contour>
  </outline>
</glyph>
<glyph name="one" format="2">
  <advance width="748.7424242424242"/>
  <unicode hex="0031"/>
  <outline>
    <contour>
      <point x="449.3484848484849" y="0.0" type="line"/>
      <point x="540.8030303030303" y="0.0" type="line"/>
      <point x="540.8030303030303" y="1484.121212121212" type="line"/>
      <point x="481.28787878787875" y="1484.121212121212" type="line"/>
      <point x="25.40909090909091" y="1154.590909090909" type="line"/>
      <point x="25.40909090909091" y="1055.4545454545455" type="line"/>
      <point x="481.28787878787875" y="1382.1666666666667" type="line"/>
      <point x="449.3484848484849" y="1396.1818181818182" type="line"/>
    </contour>
  </outline>
</glyph>
<glyph name="two" format="2">
  <advance width="1014.4242424242424"/>
  <unicode hex="0032"/>
  <outline>
    <contour>
      <point x="72.65151515151516" y="0.0" type="line"/>
      <point x="940.939393939394" y="0.0" type="line"/>
      <point x="940.939393939394" y="82.03030303030303" type="line"/>
      <point x="165.3030303030303" y="82.03030303030303" type="line"/>
      <point x="179.48484848484847" y="52.60606060606061" type="line"/>
      <point x="597.1666666666666" y="575.469696969697" type="line" smooth="yes"/>
      <point x="784.939393939394" y="808.4090909090909"/>
      <point x="847.5454545454545" y="943.2424242424242"/>
      <point x="848.0151515151515" y="1111.5" type="curve" smooth="yes"/>
      <point x="848.9545454545455" y="1377.6666666666667"/>
      <point x="687.4848484848485" y="1498.121212121212"/>
      <point x="402.9090909090909" y="1498.121212121212" type="curve" smooth="yes"/>
      <point x="270.3484848484849" y="1498.121212121212"/>
      <point x="147.33333333333334" y="1476.2575757575758"/>
      <point x="55.09090909090909" y="1439.6818181818182" type="curve"/>
      <point x="55.09090909090909" y="1354.1363636363637" type="line"/>
      <point x="161.1818181818182" y="1394.6818181818182"/>
      <point x="274.030303030303" y="1414.6969696969697"/>
      <point x="400.3333333333333" y="1414.6969696969697" type="curve" smooth="yes"/>
      <point x="634.9545454545455" y="1414.6969696969697"/>
      <point x="755.1969696969697" y="1322.4242424242425"/>
      <point x="755.1969696969697" y="1105.7121212121212" type="curve" smooth="yes"/>
      <point x="755.1969696969697" y="966.0151515151515"/>
      <point x="695.9090909090909" y="835.5"/>
      <point x="528.530303030303" y="626.5" type="curve" smooth="yes"/>
      <point x="72.65151515151516" y="51.90909090909091" type="line"/>
    </contour>
  </outline>
</glyph>
<glyph name="three" format="2">
  <advance width="1035.9545454545455"/>
  <unicode hex="0033"/>
  <outline>
    <contour>
      <point x="425.8484848484849" y="-18.12121212121212" type="curve" smooth="yes"/>
      <point x="784.1363636363636" y="-18.12121212121212"/>
      <point x="958.0151515151515" y="138.3181818181818"/>
      <point x="958.0151515151515" y="399.8939393939394" type="curve" smooth="yes"/>
      <point x="958.0151515151515" y="617.4242424242424"/>
      <point x="817.7575757575758" y="753.3484848484849"/>
      <point x="558.439393939394" y="782.0909090909091" type="curve"/>
      <point x="557.969696969697" y="755.060606060606" type="line"/>
      <point x="771.1969696969697" y="797.2575757575758"/>
      <point x="907.4848484848485" y="930.6212121212121"/>
      <point x="907.4848484848485" y="1130.409090909091" type="curve" smooth="yes"/>
      <point x="907.4848484848485" y="1361.590909090909"/>
      <point x="743.6818181818181" y="1498.121212121212"/>
      <point x="452.8484848484849" y="1498.121212121212" type="curve" smooth="yes"/>
      <point x="330.3181818181818" y="1498.121212121212"/>
      <point x="209.07575757575756" y="1479.2575757575758"/>
      <point x="105.13636363636364" y="1443.909090909091" type="curve"/>
      <point x="105.13636363636364" y="1360.4242424242425" type="line"/>
      <point x="220.53030303030303" y="1399.7121212121212"/>
      <point x="334.78787878787875" y="1416.5757575757575"/>
      <point x="449.06060606060606" y="1416.5757575757575" type="curve" smooth="yes"/>
      <point x="686.1969696969697" y="1416.5757575757575"/>
      <point x="815.5151515151515" y="1312.1818181818182"/>
      <point x="815.5151515151515" y="1127.1363636363637" type="curve" smooth="yes"/>
      <point x="815.5151515151515" y="911.1363636363636"/>
      <point x="652.5757575757576" y="801.5151515151515"/>
      <point x="352.8787878787879" y="801.5151515151515" type="curve" smooth="yes"/>
      <point x="276.9848484848485" y="801.5151515151515" type="line"/>
      <point x="276.9848484848485" y="719.7575757575758" type="line"/>
      <point x="461.6515151515151" y="719.7575757575758" type="line" smooth="yes"/>
      <point x="736.5757575757575" y="719.7575757575758"/>
      <point x="866.6818181818181" y="603.1212121212121"/>
      <point x="866.6818181818181" y="402.530303030303" type="curve" smooth="yes"/>
      <point x="866.6818181818181" y="184.06060606060606"/>
      <point x="724.6969696969697" y="63.42424242424242"/>
      <point x="426.77272727272725" y="63.42424242424242" type="curve" smooth="yes"/>
      <point x="311.1969696969697" y="63.42424242424242"/>
      <point x="182.84848484848484" y="84.54545454545455"/>
      <point x="59.59090909090909" y="126.22727272727272" type="curve"/>
      <point x="59.59090909090909" y="42.74242424242424" type="line"/>
      <point x="172.12121212121212" y="2.818181818181818"/>
      <point x="303.2121212121212" y="-18.12121212121212"/>
    </contour>
  </outline>
</glyph>
<glyph name="four" format="2">
  <advance width="1208.2121212121212"/>
  <unicode hex="0034"/>
  <outline>
    <contour>
      <point x="54.54545454545455" y="376.6969696969697" type="line"/>
      <point x="1161.3333333333333" y="376.6969696969697" type="line"/>
      <point x="1161.3333333333333" y="457.72727272727275" type="line"/>
      <point x="133.24242424242425" y="457.72727272727275" type="line"/>
      <point x="151.63636363636363" y="427.09090909090907" type="line"/>
      <point x="794.0" y="1480.0" type="line"/>
      <point x="695.4242424242424" y="1480.0" type="line"/>
      <point x="54.54545454545455" y="428.969696969697" type="line"/>
    </contour>
    <contour>
      <point x="845.3636363636364" y="0.0" type="line"/>
      <point x="933.8484848484849" y="0.0" type="line"/>
      <point x="933.8484848484849" y="980.0" type="line"/>
      <point x="860.939393939394" y="980.0" type="line"/>
      <point x="845.3636363636364" y="457.72727272727275" type="line"/>
    </contour>
  </outline>
</glyph>
<glyph name="five" format="2">
  <advance width="1049.4242424242425"/>
  <unicode hex="0035"/>
  <outline>
    <contour>
      <point x="453.22727272727275" y="-18.12121212121212" type="curve" smooth="yes"/>
      <point x="802.2424242424242" y="-18.12121212121212"/>
      <point x="984.8333333333334" y="132.21212121212122"/>
      <point x="984.9242424242425" y="411.469696969697" type="curve" smooth="yes"/>
      <point x="985.0151515151515" y="674.1969696969697"/>
      <point x="812.4848484848485" y="808.7424242424242"/>
      <point x="371.92424242424244" y="834.6818181818181" type="curve" smooth="yes"/>
      <point x="175.60606060606062" y="846.1515151515151" type="line"/>
      <point x="241.6969696969697" y="794.939393939394" type="line"/>
      <point x="286.74242424242425" y="1432.060606060606" type="line"/>
      <point x="240.8181818181818" y="1399.7272727272727" type="line"/>
      <point x="922.8939393939394" y="1399.7272727272727" type="line"/>
      <point x="922.8939393939394" y="1480.0" type="line"/>
      <point x="200.96969696969697" y="1480.0" type="line"/>
      <point x="150.1969696969697" y="764.8787878787879" type="line"/>
      <point x="346.5151515151515" y="753.4090909090909" type="line" smooth="yes"/>
      <point x="752.7575757575758" y="729.7121212121212"/>
      <point x="893.5" y="626.6969696969697"/>
      <point x="893.5" y="410.57575757575756" type="curve" smooth="yes"/>
      <point x="893.5" y="179.25757575757575"/>
      <point x="747.2878787878788" y="63.78787878787879"/>
      <point x="454.6212121212121" y="63.78787878787879" type="curve" smooth="yes"/>
      <point x="334.8181818181818" y="63.78787878787879"/>
      <point x="206.46969696969697" y="85.4090909090909"/>
      <point x="86.5" y="126.65151515151516" type="curve"/>
      <point x="86.5" y="43.166666666666664" type="line"/>
      <point x="196.6818181818182" y="4.4393939393939394"/>
      <point x="328.71212121212125" y="-18.12121212121212"/>
    </contour>
  </outline>
</glyph>
<glyph name="six" format="2">
  <advance width="1177.5"/>
  <unicode hex="0036"/>
  <outline>
    <contour>
      <point x="662.6969696969697" y="-18.12121212121212" type="curve" smooth="yes"/>
      <point x="920.8030303030303" y="-18.12121212121212"/>
      <point x="1107.439393939394" y="123.68181818181819"/>
      <point x="1107.439393939394" y="406.8939393939394" type="curve" smooth="yes"/>
      <point x="1107.439393939394" y="692.2272727272727"/>
      <point x="922.5" y="833.4545454545455"/>
      <point x="628.969696969697" y="833.4545454545455" type="curve" smooth="yes"/>
      <point x="474.5" y="833.4545454545455"/>
      <point x="311.6515151515151" y="781.1515151515151"/>
      <point x="213.9848484848485" y="695.3030303030303" type="curve"/>
      <point x="213.9848484848485" y="603.9545454545455" type="line"/>
      <point x="315.8787878787879" y="709.0757575757576"/>
      <point x="487.78787878787875" y="752.6666666666666"/>
      <point x="619.5454545454545" y="752.6666666666666" type="curve" smooth="yes"/>
      <point x="868.7727272727273" y="752.6666666666666"/>
      <point x="1017.0454545454545" y="643.0757575757576"/>
      <point x="1017.0454545454545" y="403.8787878787879" type="curve" smooth="yes"/>
      <point x="1017.0454545454545" y="166.95454545454547"/>
      <point x="868.6666666666667" y="62.72727272727273"/>
      <point x="663.2272727272727" y="62.72727272727273" type="curve" smooth="yes"/>
      <point x="399.03030303030306" y="62.72727272727273"/>
      <point x="235.74242424242425" y="222.06060606060606"/>
      <point x="235.74242424242425" y="687.5757575757576" type="curve" smooth="yes"/>
      <point x="235.74242424242425" y="710.7272727272727" type="line" smooth="yes"/>
      <point x="235.74242424242425" y="1200.1060606060605"/>
      <point x="416.3939393939394" y="1416.090909090909"/>
      <point x="766.1363636363636" y="1416.090909090909" type="curve" smooth="yes"/>
      <point x="851.7424242424242" y="1416.090909090909"/>
      <point x="957.7575757575758" y="1403.2878787878788"/>
      <point x="1040.3181818181818" y="1369.2575757575758" type="curve"/>
      <point x="1040.3181818181818" y="1453.2272727272727" type="line"/>
      <point x="958.8333333333334" y="1486.060606060606"/>
      <point x="858.0151515151515" y="1498.121212121212"/>
      <point x="763.939393939394" y="1498.121212121212" type="curve" smooth="yes"/>
      <point x="361.2121212121212" y="1498.121212121212"/>
      <point x="143.43939393939394" y="1244.060606060606"/>
      <point x="143.43939393939394" y="692.6363636363636" type="curve" smooth="yes"/>
      <point x="143.43939393939394" y="177.0"/>
      <point x="345.93939393939394" y="-18.12121212121212"/>
    </contour>
  </outline>
</glyph>
<glyph name="seven" format="2">
  <advance width="958.4242424242425"/>
  <unicode hex="0037"/>
  <outline>
    <contour>
      <point x="189.87878787878788" y="0.0" type="line"/>
      <point x="287.92424242424244" y="0.0" type="line"/>
      <point x="898.1060606060606" y="1428.090909090909" type="line"/>
      <point x="898.1060606060606" y="1480.0" type="line"/>
      <point x="13.848484848484848" y="1480.0" type="line"/>
      <point x="13.848484848484848" y="1397.969696969697" type="line"/>
      <point x="826.7121212121212" y="1397.969696969697" type="line"/>
      <point x="804.030303030303" y="1429.969696969697" type="line"/>
    </contour>
  </outline>
</glyph>
<glyph name="eight" format="2">
  <advance width="1291.5151515151515"/>
  <unicode hex="0038"/>
  <outline>
    <contour>
      <point x="655.6969696969697" y="-18.12121212121212" type="curve" smooth="yes"/>
      <point x="988.969696969697" y="-18.12121212121212"/>
      <point x="1173.939393939394" y="135.0909090909091"/>
      <point x="1173.939393939394" y="374.8636363636364" type="curve" smooth="yes"/>
      <point x="1173.939393939394" y="584.7272727272727"/>
      <point x="1038.6515151515152" y="708.5909090909091"/>
      <point x="687.8030303030303" y="779.2424242424242" type="curve" smooth="yes"/>
      <point x="369.22727272727275" y="842.469696969697"/>
      <point x="264.1969696969697" y="940.8030303030303"/>
      <point x="264.1969696969697" y="1124.0454545454545" type="curve" smooth="yes"/>
      <point x="264.1969696969697" y="1306.2272727272727"/>
      <point x="392.24242424242425" y="1418.090909090909"/>
      <point x="640.6212121212121" y="1418.090909090909" type="curve" smooth="yes"/>
      <point x="886.6969696969697" y="1418.090909090909"/>
      <point x="1031.5454545454545" y="1315.1666666666667"/>
      <point x="1031.5454545454545" y="1120.621212121212" type="curve" smooth="yes"/>
      <point x="1031.5454545454545" y="948.2424242424242"/>
      <point x="941.7424242424242" y="843.1363636363636"/>
      <point x="730.9242424242425" y="762.6666666666666" type="curve"/>
      <point x="809.439393939394" y="726.0151515151515" type="line"/>
      <point x="1009.8030303030303" y="799.8787878787879"/>
      <point x="1119.0" y="934.5"/>
      <point x="1119.0" y="1125.121212121212" type="curve" smooth="yes"/>
      <point x="1119.0" y="1357.1818181818182"/>
      <point x="941.3484848484849" y="1498.121212121212"/>
      <point x="642.6060606060606" y="1498.121212121212" type="curve" smooth="yes"/>
      <point x="346.3636363636364" y="1498.121212121212"/>
      <point x="170.86363636363637" y="1354.6060606060605"/>
      <point x="170.86363636363637" y="1121.0757575757575" type="curve" smooth="yes"/>
      <point x="170.86363636363637" y="902.030303030303"/>
      <point x="306.2878787878788" y="770.4848484848485"/>
      <point x="663.1212121212121" y="698.6515151515151" type="curve" smooth="yes"/>
      <point x="969.3030303030303" y="636.1515151515151"/>
      <point x="1080.969696969697" y="548.8181818181819"/>
      <point x="1080.969696969697" y="369.0" type="curve" smooth="yes"/>
      <point x="1080.969696969697" y="171.4090909090909"/>
      <point x="930.9242424242424" y="61.90909090909091"/>
      <point x="657.1969696969697" y="61.90909090909091" type="curve" smooth="yes"/>
      <point x="364.24242424242425" y="61.90909090909091"/>
      <point x="209.0151515151515" y="172.77272727272728"/>
      <point x="209.0151515151515" y="380.6969696969697" type="curve" smooth="yes"/>
      <point x="209.0151515151515" y="553.8030303030303"/>
      <point x="321.6060606060606" y="690.939393939394"/>
      <point x="534.6060606060606" y="747.8939393939394" type="curve"/>
      <point x="448.25757575757575" y="785.2121212121212" type="line"/>
      <point x="241.84848484848484" y="718.5454545454545"/>
      <point x="117.27272727272728" y="576.1515151515151"/>
      <point x="117.27272727272728" y="374.27272727272725" type="curve" smooth="yes"/>
      <point x="117.27272727272728" y="121.22727272727273"/>
      <point x="306.969696969697" y="-18.12121212121212"/>
    </contour>
  </outline>
</glyph>
<glyph name="nine" format="2">
  <advance width="1177.5"/>
  <unicode hex="0039"/>
  <outline>
    <contour>
      <point x="514.8030303030303" y="1498.121212121212" type="curve" smooth="yes"/>
      <point x="256.6969696969697" y="1498.121212121212"/>
      <point x="70.06060606060606" y="1356.3181818181818"/>
      <point x="70.06060606060606" y="1073.1060606060605" type="curve" smooth="yes"/>
      <point x="70.06060606060606" y="787.7727272727273"/>
      <point x="255.0" y="646.5454545454545"/>
      <point x="548.530303030303" y="646.5454545454545" type="curve" smooth="yes"/>
      <point x="703.0" y="646.5454545454545"/>
      <point x="865.8484848484849" y="698.8484848484849"/>
      <point x="963.5151515151515" y="784.6969696969697" type="curve"/>
      <point x="963.5151515151515" y="876.0454545454545" type="line"/>
      <point x="861.6212121212121" y="770.9242424242424"/>
      <point x="689.7121212121212" y="727.3333333333334"/>
      <point x="557.9545454545455" y="727.3333333333334" type="curve" smooth="yes"/>
      <point x="308.72727272727275" y="727.3333333333334"/>
      <point x="160.45454545454544" y="836.9242424242424"/>
      <point x="160.45454545454544" y="1076.121212121212" type="curve" smooth="yes"/>
      <point x="160.45454545454544" y="1313.0454545454545"/>
      <point x="308.8333333333333" y="1417.2727272727273"/>
      <point x="514.2727272727273" y="1417.2727272727273" type="curve" smooth="yes"/>
      <point x="778.469696969697" y="1417.2727272727273"/>
      <point x="941.7575757575758" y="1257.939393939394"/>
      <point x="941.7575757575758" y="792.4242424242424" type="curve" smooth="yes"/>
      <point x="941.7575757575758" y="769.2727272727273" type="line" smooth="yes"/>
      <point x="941.7575757575758" y="279.8939393939394"/>
      <point x="761.1060606060606" y="63.90909090909091"/>
      <point x="411.3636363636364" y="63.90909090909091" type="curve" smooth="yes"/>
      <point x="325.75757575757575" y="63.90909090909091"/>
      <point x="219.74242424242425" y="76.71212121212122"/>
      <point x="137.1818181818182" y="110.74242424242425" type="curve"/>
      <point x="137.1818181818182" y="26.772727272727273" type="line"/>
      <point x="218.66666666666666" y="-6.0606060606060606"/>
      <point x="319.4848484848485" y="-18.12121212121212"/>
      <point x="413.56060606060606" y="-18.12121212121212" type="curve" smooth="yes"/>
      <point x="816.2878787878788" y="-18.12121212121212"/>
      <point x="1034.060606060606" y="235.93939393939394"/>
      <point x="1034.060606060606" y="787.3636363636364" type="curve" smooth="yes"/>
      <point x="1034.060606060606" y="1303.0"/>
      <point x="831.560606060606" y="1498.121212121212"/>
    </contour>
  </outline>
</glyph>
<glyph name="semicolon" format="2">
  <advance width="442.8787878787879"/>
  <unicode hex="003B"/>
  <outline>
    <contour>
      <point x="163.92424242424244" y="-303.6363636363636" type="curve"/>
      <point x="220.34848484848484" y="-303.6363636363636" type="line"/>
      <point x="263.5" y="-206.72727272727272"/>
      <point x="296.4090909090909" y="-87.87878787878788"/>
      <point x="296.4090909090909" y="39.60606060606061" type="curve" smooth="yes"/>
      <point x="296.4090909090909" y="109.12121212121212"/>
      <point x="266.1060606060606" y="138.36363636363637"/>
      <point x="219.1969696969697" y="138.36363636363637" type="curve" smooth="yes"/>
      <point x="175.04545454545453" y="138.36363636363637"/>
      <point x="146.28787878787878" y="108.18181818181819"/>
      <point x="146.28787878787878" y="64.81818181818181" type="curve" smooth="yes"/>
      <point x="146.28787878787878" y="19.666666666666668"/>
      <point x="177.22727272727272" y="-10.606060606060606"/>
      <point x="221.43939393939394" y="-10.606060606060606" type="curve" smooth="yes"/>
      <point x="235.9848484848485" y="-10.606060606060606" type="line"/>
      <point x="226.13636363636363" y="14.424242424242424" type="line"/>
      <point x="226.13636363636363" y="-89.51515151515152"/>
      <point x="202.65151515151516" y="-187.21212121212122"/>
    </contour>
    <contour>
      <point x="221.43939393939394" y="942.8484848484849" type="curve" smooth="yes"/>
      <point x="265.71212121212125" y="942.8484848484849"/>
      <point x="296.5909090909091" y="971.4848484848485"/>
      <point x="296.5909090909091" y="1016.3939393939394" type="curve" smooth="yes"/>
      <point x="296.5909090909091" y="1061.3030303030303"/>
      <point x="265.95454545454544" y="1091.8181818181818"/>
      <point x="221.43939393939394" y="1091.8181818181818" type="curve" smooth="yes"/>
      <point x="176.92424242424244" y="1091.8181818181818"/>
      <point x="146.28787878787878" y="1061.5454545454545"/>
      <point x="146.28787878787878" y="1016.3939393939394" type="curve" smooth="yes"/>
      <point x="146.28787878787878" y="971.2424242424242"/>
      <point x="177.16666666666666" y="942.8484848484849"/>
    </contour>
  </outline>
</glyph>
<glyph name="less" format="2">
  <advance width="1089.3030303030303"/>
  <unicode hex="003C"/>
  <outline>
    <contour>
      <point x="915.2575757575758" y="394.90909090909093" type="line"/>
      <point x="915.2575757575758" y="482.54545454545456" type="line"/>
      <point x="248.25757575757575" y="773.0" type="line"/>
      <point x="248.25757575757575" y="747.4545454545455" type="line"/>
      <point x="915.2575757575758" y="1037.4545454545455" type="line"/>
      <point x="915.2575757575758" y="1125.090909090909" type="line"/>
      <point x="174.04545454545456" y="797.0909090909091" type="line"/>
      <point x="174.04545454545456" y="722.9090909090909" type="line"/>
    </contour>
  </outline>
</glyph>
<glyph name="equal" format="2">
  <advance width="1089.3030303030303"/>
  <unicode hex="003D"/>
  <outline>
    <contour>
      <point x="174.04545454545456" y="905.7575757575758" type="line"/>
      <point x="915.2575757575758" y="905.7575757575758" type="line"/>
      <point x="915.2575757575758" y="985.8787878787879" type="line"/>
      <point x="174.04545454545456" y="985.8787878787879" type="line"/>
    </contour>
    <contour>
      <point x="174.04545454545456" y="534.1212121212121" type="line"/>
      <point x="915.2575757575758" y="534.1212121212121" type="line"/>
      <point x="915.2575757575758" y="614.2424242424242" type="line"/>
      <point x="174.04545454545456" y="614.2424242424242" type="line"/>
    </contour>
  </outline>
</glyph>
<glyph name="greater" format="2">
  <advance width="1089.3030303030303"/>
  <unicode hex="003E"/>
  <outline>
    <contour>
      <point x="174.04545454545456" y="394.90909090909093" type="line"/>
      <point x="915.2575757575758" y="722.9090909090909" type="line"/>
      <point x="915.2575757575758" y="797.0909090909091" type="line"/>
      <point x="174.04545454545456" y="1125.090909090909" type="line"/>
      <point x="174.04545454545456" y="1037.4545454545455" type="line"/>
      <point x="841.0454545454545" y="747.4545454545455" type="line"/>
      <point x="841.0454545454545" y="773.0" type="line"/>
      <point x="174.04545454545456" y="482.54545454545456" type="line"/>
    </contour>
  </outline>
</glyph>
<glyph name="question" format="2">
  <advance width="912.8030303030303"/>
  <unicode hex="003F"/>
  <outline>
    <contour>
      <point x="386.1515151515151" y="314.06060606060606" type="line"/>
      <point x="447.45454545454544" y="314.06060606060606" type="line"/>
      <point x="458.57575757575756" y="679.6515151515151" type="line"/>
      <point x="749.7424242424242" y="788.8787878787879"/>
      <point x="847.6212121212121" y="914.7121212121212"/>
      <point x="847.6212121212121" y="1129.9545454545455" type="curve" smooth="yes"/>
      <point x="847.6212121212121" y="1361.590909090909"/>
      <point x="683.8181818181818" y="1498.121212121212"/>
      <point x="392.9848484848485" y="1498.121212121212" type="curve" smooth="yes"/>
      <point x="270.45454545454544" y="1498.121212121212"/>
      <point x="149.21212121212122" y="1479.2575757575758"/>
      <point x="45.27272727272727" y="1443.909090909091" type="curve"/>
      <point x="45.27272727272727" y="1359.5151515151515" type="line"/>
      <point x="160.66666666666666" y="1398.8030303030303"/>
      <point x="274.74242424242425" y="1415.6666666666667"/>
      <point x="388.5454545454545" y="1415.6666666666667" type="curve" smooth="yes"/>
      <point x="626.3333333333334" y="1415.6666666666667"/>
      <point x="755.6515151515151" y="1311.5454545454545"/>
      <point x="755.6515151515151" y="1126.9545454545455" type="curve" smooth="yes"/>
      <point x="755.6515151515151" y="939.8787878787879"/>
      <point x="660.8181818181819" y="832.2575757575758"/>
      <point x="370.24242424242425" y="736.0" type="curve"/>
    </contour>
    <contour>
      <point x="416.8484848484849" y="-10.606060606060606" type="curve" smooth="yes"/>
      <point x="463.0" y="-10.606060606060606"/>
      <point x="492.0" y="19.545454545454547"/>
      <point x="492.0" y="61.93939393939394" type="curve" smooth="yes"/>
      <point x="492.0" y="106.21212121212122"/>
      <point x="461.3636363636364" y="136.36363636363637"/>
      <point x="416.8484848484849" y="136.36363636363637" type="curve" smooth="yes"/>
      <point x="372.3333333333333" y="136.36363636363637"/>
      <point x="341.6969696969697" y="106.45454545454545"/>
      <point x="341.6969696969697" y="61.93939393939394" type="curve" smooth="yes"/>
      <point x="341.6969696969697" y="19.303030303030305"/>
      <point x="372.57575757575756" y="-10.606060606060606"/>
    </contour>
  </outline>
</glyph>
<glyph name="at" format="2">
  <advance width="1971.9545454545455"/>
  <unicode hex="0040"/>
  <outline>
    <contour>
      <point x="1036.560606060606" y="-460.0" type="curve" smooth="yes"/>
      <point x="1175.1666666666667" y="-460.0"/>
      <point x="1315.3181818181818" y="-439.1818181818182"/>
      <point x="1434.2121212121212" y="-404.1212121212121" type="curve"/>
      <point x="1434.2121212121212" y="-323.8181818181818" type="line"/>
      <point x="1295.0" y="-363.1060606060606"/>
      <point x="1171.878787878788" y="-381.57575757575756"/>
      <point x="1036.560606060606" y="-381.57575757575756" type="curve" smooth="yes"/>
      <point x="488.8030303030303" y="-381.57575757575756"/>
      <point x="211.72727272727272" y="-105.5"/>
      <point x="211.72727272727272" y="523.7575757575758" type="curve" smooth="yes"/>
      <point x="211.72727272727272" y="1137.9848484848485"/>
      <point x="485.9848484848485" y="1419.5757575757575"/>
      <point x="991.8939393939394" y="1419.5757575757575" type="curve" smooth="yes"/>
      <point x="1496.4848484848485" y="1419.5757575757575"/>
      <point x="1765.1363636363635" y="1144.1060606060605"/>
      <point x="1765.439393939394" y="555.5757575757576" type="curve" smooth="yes"/>
      <point x="1765.6515151515152" y="194.3181818181818"/>
      <point x="1651.2878787878788" y="60.0"/>
      <point x="1522.378787878788" y="60.0" type="curve" smooth="yes"/>
      <point x="1425.6969696969697" y="60.0"/>
      <point x="1376.1969696969697" y="108.1969696969697"/>
      <point x="1376.1969696969697" y="242.54545454545453" type="curve" smooth="yes"/>
      <point x="1376.1969696969697" y="734.1666666666666" type="line" smooth="yes"/>
      <point x="1376.1969696969697" y="1009.2727272727273"/>
      <point x="1232.2575757575758" y="1096.121212121212"/>
      <point x="982.060606060606" y="1096.121212121212" type="curve" smooth="yes"/>
      <point x="881.1818181818182" y="1096.121212121212"/>
      <point x="761.1060606060606" y="1078.409090909091"/>
      <point x="670.5757575757575" y="1044.1666666666667" type="curve"/>
      <point x="670.5151515151515" y="961.0454545454545" type="line"/>
      <point x="780.6666666666666" y="1000.1818181818181"/>
      <point x="892.9545454545455" y="1014.5757575757576"/>
      <point x="978.030303030303" y="1014.5757575757576" type="curve" smooth="yes"/>
      <point x="1174.560606060606" y="1014.5757575757576"/>
      <point x="1286.0151515151515" y="957.3030303030303"/>
      <point x="1286.0151515151515" y="734.4090909090909" type="curve" smooth="yes"/>
      <point x="1286.0151515151515" y="223.9090909090909" type="line"/>
      <point x="1192.6060606060605" y="112.9090909090909"/>
      <point x="1067.3939393939395" y="63.515151515151516"/>
      <point x="944.0151515151515" y="63.515151515151516" type="curve" smooth="yes"/>
      <point x="777.0151515151515" y="63.515151515151516"/>
      <point x="696.1818181818182" y="140.4090909090909"/>
      <point x="696.1818181818182" y="277.43939393939394" type="curve" smooth="yes"/>
      <point x="696.1818181818182" y="408.6060606060606"/>
      <point x="778.9848484848485" y="478.6666666666667"/>
      <point x="971.7575757575758" y="502.0151515151515" type="curve" smooth="yes"/>
      <point x="1326.1818181818182" y="545.5151515151515" type="line"/>
      <point x="1328.090909090909" y="620.8484848484849" type="line"/>
      <point x="969.6818181818182" y="577.3484848484849" type="line" smooth="yes"/>
      <point x="713.469696969697" y="547.3939393939394"/>
      <point x="600.1818181818181" y="450.3484848484849"/>
      <point x="600.1818181818181" y="270.1060606060606" type="curve" smooth="yes"/>
      <point x="600.1818181818181" y="89.13636363636364"/>
      <point x="726.0" y="-16.363636363636363"/>
      <point x="933.5454545454545" y="-16.363636363636363" type="curve" smooth="yes"/>
      <point x="1075.0454545454545" y="-16.363636363636363"/>
      <point x="1207.1969696969697" y="40.303030303030305"/>
      <point x="1286.2727272727273" y="128.24242424242425" type="curve"/>
      <point x="1296.560606060606" y="128.24242424242425" type="line"/>
      <point x="1321.4242424242425" y="40.56060606060606"/>
      <point x="1391.560606060606" y="-16.363636363636363"/>
      <point x="1511.9848484848485" y="-16.363636363636363" type="curve" smooth="yes"/>
      <point x="1697.4545454545455" y="-16.363636363636363"/>
      <point x="1845.6666666666665" y="148.45454545454547"/>
      <point x="1847.0757575757575" y="561.6969696969697" type="curve" smooth="yes"/>
      <point x="1848.4848484848485" y="1180.378787878788"/>
      <point x="1545.8939393939395" y="1498.0"/>
      <point x="991.8939393939394" y="1498.0" type="curve" smooth="yes"/>
      <point x="438.92424242424244" y="1498.0"/>
      <point x="124.87878787878788" y="1180.378787878788"/>
      <point x="124.87878787878788" y="520.0" type="curve" smooth="yes"/>
      <point x="124.87878787878788" y="-145.07575757575756"/>
      <point x="441.27272727272725" y="-458.59090909090907"/>
    </contour>
  </outline>
</glyph>
<glyph name="B" format="2">
  <advance width="1289.4848484848485"/>
  <unicode hex="0042"/>
  <anchor x="659.7878787878788" y="0.0" name="bottom"/>
  <anchor x="659.7878787878788" y="1480.0" name="top"/>
  <outline>
    <contour>
      <point x="565.1969696969697" y="-10.606060606060606" type="curve" smooth="yes"/>
      <point x="1027.8030303030303" y="-10.606060606060606"/>
      <point x="1203.969696969697" y="131.65151515151516"/>
      <point x="1203.969696969697" y="399.2878787878788" type="curve" smooth="yes"/>
      <point x="1203.969696969697" y="599.7727272727273"/>
      <point x="1094.848484848485" y="743.8181818181819"/>
      <point x="838.0909090909091" y="770.3484848484849" type="curve"/>
      <point x="833.8636363636364" y="755.060606060606" type="line"/>
      <point x="1069.8333333333333" y="787.5909090909091"/>
      <point x="1160.7424242424242" y="926.5909090909091"/>
      <point x="1160.7424242424242" y="1105.878787878788" type="curve" smooth="yes"/>
      <point x="1160.7424242424242" y="1365.590909090909"/>
      <point x="995.2272727272727" y="1494.3636363636363"/>
      <point x="601.8030303030303" y="1494.3636363636363" type="curve" smooth="yes"/>
      <point x="441.42424242424244" y="1494.3636363636363"/>
      <point x="326.0151515151515" y="1481.4242424242425"/>
      <point x="197.93939393939394" y="1455.7575757575758" type="curve"/>
      <point x="197.93939393939394" y="12.969696969696969" type="line"/>
      <point x="336.6363636363636" y="-4.590909090909091"/>
      <point x="439.8939393939394" y="-10.606060606060606"/>
    </contour>
    <contour>
      <point x="574.7727272727273" y="70.48484848484848" type="curve" smooth="yes"/>
      <point x="463.3333333333333" y="70.48484848484848"/>
      <point x="377.8787878787879" y="75.21212121212122"/>
      <point x="288.6969696969697" y="88.6969696969697" type="curve"/>
      <point x="288.6969696969697" y="1388.3181818181818" type="line"/>
      <point x="375.8030303030303" y="1404.3939393939395"/>
      <point x="468.06060606060606" y="1413.2727272727273"/>
      <point x="605.7272727272727" y="1413.2727272727273" type="curve" smooth="yes"/>
      <point x="938.7878787878788" y="1413.2727272727273"/>
      <point x="1070.7272727272727" y="1324.6818181818182"/>
      <point x="1070.7272727272727" y="1104.5454545454545" type="curve" smooth="yes"/>
      <point x="1070.7272727272727" y="896.7424242424242"/>
      <point x="942.1969696969697" y="801.3939393939394"/>
      <point x="651.9242424242425" y="801.3939393939394" type="curve" smooth="yes"/>
      <point x="270.8181818181818" y="801.3939393939394" type="line"/>
      <point x="270.8181818181818" y="719.8484848484849" type="line"/>
      <point x="673.3939393939394" y="719.8484848484849" type="line" smooth="yes"/>
      <point x="972.7575757575758" y="719.8484848484849"/>
      <point x="1113.1818181818182" y="620.7727272727273"/>
      <point x="1113.1818181818182" y="402.1666666666667" type="curve" smooth="yes"/>
      <point x="1113.1818181818182" y="181.10606060606062"/>
      <point x="985.1363636363636" y="70.48484848484848"/>
    </contour>
  </outline>
</glyph>
<glyph name="E" format="2">
  <advance width="1211.9848484848485"/>
  <unicode hex="0045"/>
  <anchor x="679.8787878787879" y="0.0" name="bottom"/>
  <anchor x="1042.2121212121212" y="0.0" name="ogonek"/>
  <anchor x="677.060606060606" y="1520.0" name="top"/>
  <anchor x="43.22727272727273" y="1480.0" name="topleft"/>
  <outline>
    <contour>
      <point x="197.93939393939394" y="0.0" type="line"/>
      <point x="1123.121212121212" y="0.0" type="line"/>
      <point x="1123.121212121212" y="82.96969696969697" type="line"/>
      <point x="289.03030303030306" y="82.96969696969697" type="line"/>
      <point x="289.03030303030306" y="1397.030303030303" type="line"/>
      <point x="1113.121212121212" y="1397.030303030303" type="line"/>
      <point x="1113.121212121212" y="1480.0" type="line"/>
      <point x="197.93939393939394" y="1480.0" type="line"/>
    </contour>
    <contour>
      <point x="254.78787878787878" y="719.1515151515151" type="line"/>
      <point x="1015.1363636363636" y="719.1515151515151" type="line"/>
      <point x="1015.1363636363636" y="802.1212121212121" type="line"/>
      <point x="254.78787878787878" y="802.1212121212121" type="line"/>
    </contour>
  </outline>
</glyph>
<glyph name="F" format="2">
  <advance width="1169.151515151515"/>
  <unicode hex="0046"/>
  <outline>
    <contour>
      <point x="197.93939393939394" y="0.0" type="line"/>
      <point x="289.3939393939394" y="0.0" type="line"/>
      <point x="289.3939393939394" y="1396.5151515151515" type="line"/>
      <point x="1103.7272727272727" y="1396.5151515151515" type="line"/>
      <point x="1103.7272727272727" y="1480.0" type="line"/>
      <point x="197.93939393939394" y="1480.0" type="line"/>
    </contour>
    <contour>
      <point x="270.3333333333333" y="715.939393939394" type="line"/>
      <point x="1005.560606060606" y="715.939393939394" type="line"/>
      <point x="1005.560606060606" y="799.4242424242424" type="line"/>
      <point x="270.3333333333333" y="799.4242424242424" type="line"/>
    </contour>
  </outline>
</glyph>
<glyph name="H" format="2">
  <advance width="1499.121212121212"/>
  <unicode hex="0048"/>
  <anchor x="749.6212121212121" y="0.0" name="bottom"/>
  <anchor x="749.6212121212121" y="1144.6363636363637" name="center"/>
  <anchor x="749.6212121212121" y="1520.0" name="top"/>
  <anchor x="43.28787878787879" y="1480.0" name="topleft"/>
  <outline>
    <contour>
      <point x="197.93939393939394" y="0.0" type="line"/>
      <point x="289.3939393939394" y="0.0" type="line"/>
      <point x="289.3939393939394" y="717.7878787878788" type="line"/>
      <point x="1209.7272727272727" y="717.7878787878788" type="line"/>
      <point x="1209.7272727272727" y="0.0" type="line"/>
      <point x="1301.1818181818182" y="0.0" type="line"/>
      <point x="1301.1818181818182" y="1480.0" type="line"/>
      <point x="1209.7272727272727" y="1480.0" type="line"/>
      <point x="1209.7272727272727" y="803.4848484848485" type="line"/>
      <point x="289.3939393939394" y="803.4848484848485" type="line"/>
      <point x="289.3939393939394" y="1480.0" type="line"/>
      <point x="197.93939393939394" y="1480.0" type="line"/>
    </contour>
  </outline>
</glyph>
<glyph name="I" format="2">
  <advance width="487.3333333333333"/>
  <unicode hex="0049"/>
  <anchor x="243.57575757575756" y="0.0" name="bottom"/>
  <anchor x="289.3939393939394" y="0.0" name="ogonek"/>
  <anchor x="243.66666666666666" y="1520.0" name="top"/>
  <outline>
    <contour>
      <point x="197.93939393939394" y="0.0" type="line"/>
      <point x="289.3939393939394" y="0.0" type="line"/>
      <point x="289.3939393939394" y="1480.0" type="line"/>
      <point x="197.93939393939394" y="1480.0" type="line"/>
    </contour>
  </outline>
</glyph>
<glyph name="J" format="2">
  <advance width="487.3333333333333"/>
  <unicode hex="004A"/>
  <anchor x="343.8787878787879" y="0.0" name="bottom"/>
  <anchor x="243.75757575757575" y="1520.0" name="top"/>
  <outline>
    <contour>
      <point x="62.81818181818182" y="-340.969696969697" type="line"/>
      <point x="220.25757575757575" y="-144.57575757575756"/>
      <point x="277.6515151515151" y="24.848484848484848"/>
      <point x="289.3939393939394" y="255.5909090909091" type="curve"/>
      <point x="289.3939393939394" y="1480.0" type="line"/>
      <point x="198.12121212121212" y="1480.0" type="line"/>
      <point x="198.12121212121212" y="287.030303030303" type="line" smooth="yes"/>
      <point x="198.12121212121212" y="53.78787878787879"/>
      <point x="137.78787878787878" y="-119.18181818181819"/>
      <point x="0.10606060606060552" y="-296.1666666666667" type="curve"/>
    </contour>
  </outline>
</glyph>
<glyph name="K" format="2">
  <advance width="1267.5"/>
  <unicode hex="004B"/>
  <anchor x="653.7272727272727" y="0.0" name="bottom"/>
  <anchor x="653.2727272727273" y="1480.0" name="top"/>
  <outline>
    <contour>
      <point x="1156.121212121212" y="0.0" type="line"/>
      <point x="1267.1666666666667" y="0.0" type="line"/>
      <point x="628.8333333333333" y="776.3636363636364" type="line"/>
      <point x="628.2272727272727" y="747.1515151515151" type="line"/>
      <point x="1224.8939393939395" y="1480.0" type="line"/>
      <point x="1116.7272727272727" y="1480.0" type="line"/>
      <point x="531.3939393939394" y="757.6969696969697" type="line"/>
    </contour>
    <contour>
      <point x="197.93939393939394" y="0.0" type="line"/>
      <point x="289.3939393939394" y="0.0" type="line"/>
      <point x="289.3939393939394" y="1480.0" type="line"/>
      <point x="197.93939393939394" y="1480.0" type="line"/>
    </contour>
    <contour>
      <point x="270.6666666666667" y="717.7878787878788" type="line"/>
      <point x="584.3939393939394" y="717.7878787878788" type="line"/>
      <point x="584.3939393939394" y="803.0151515151515" type="line"/>
      <point x="270.6666666666667" y="803.0151515151515" type="line"/>
    </contour>
  </outline>
</glyph>
<glyph name="L" format="2">
  <advance width="1106.7121212121212"/>
  <unicode hex="004C"/>
  <anchor x="644.7424242424242" y="0.0" name="bottom"/>
  <anchor x="718.8484848484849" y="1616.0" name="caronalt"/>
  <anchor x="783.0454545454545" y="782.9090909090909" name="periodcentered"/>
  <anchor x="243.78787878787878" y="778.8484848484849" name="slash"/>
  <anchor x="243.78787878787878" y="1520.0" name="top"/>
  <outline>
    <contour>
      <point x="197.93939393939394" y="0.0" type="line"/>
      <point x="1089.6666666666667" y="0.0" type="line"/>
      <point x="1089.6666666666667" y="83.96969696969697" type="line"/>
      <point x="289.3939393939394" y="83.96969696969697" type="line"/>
      <point x="289.3939393939394" y="1480.0" type="line"/>
      <point x="197.93939393939394" y="1480.0" type="line"/>
    </contour>
  </outline>
</glyph>
<glyph name="M" format="2">
  <advance width="1797.3333333333333"/>
  <unicode hex="004D"/>
  <anchor x="900.5151515151515" y="0.0" name="bottom"/>
  <anchor x="900.5151515151515" y="1480.0" name="top"/>
  <outline>
    <contour>
      <point x="201.93939393939394" y="0.0" type="line"/>
      <point x="289.6363636363636" y="0.0" type="line"/>
      <point x="289.6363636363636" y="1403.3636363636363" type="line"/>
      <point x="246.66666666666666" y="1403.3636363636363" type="line"/>
      <point x="851.7575757575758" y="201.21212121212122" type="line"/>
      <point x="945.5757575757575" y="201.21212121212122" type="line"/>
      <point x="1547.4848484848485" y="1403.3636363636363" type="line"/>
      <point x="1507.6969696969697" y="1403.3636363636363" type="line"/>
      <point x="1507.6969696969697" y="0.0" type="line"/>
      <point x="1595.3939393939395" y="0.0" type="line"/>
      <point x="1595.3939393939395" y="1480.0" type="line"/>
      <point x="1491.8030303030303" y="1480.0" type="line"/>
      <point x="884.4848484848485" y="255.21212121212122" type="line"/>
      <point x="917.4545454545455" y="255.21212121212122" type="line"/>
      <point x="305.530303030303" y="1480.0" type="line"/>
      <point x="201.93939393939394" y="1480.0" type="line"/>
    </contour>
  </outline>
</glyph>
<glyph name="P" format="2">
  <advance width="1261.2121212121212"/>
  <unicode hex="0050"/>
  <outline>
    <contour>
      <point x="197.93939393939394" y="0.0" type="line"/>
      <point x="289.3939393939394" y="0.0" type="line"/>
      <point x="289.3939393939394" y="522.0757575757576" type="line"/>
      <point x="375.71212121212125" y="513.6212121212121"/>
      <point x="444.74242424242425" y="510.2121212121212"/>
      <point x="529.4242424242424" y="510.2121212121212" type="curve" smooth="yes"/>
      <point x="971.8787878787879" y="510.2121212121212"/>
      <point x="1160.6818181818182" y="686.4090909090909"/>
      <point x="1160.6818181818182" y="1004.6212121212121" type="curve" smooth="yes"/>
      <point x="1160.6818181818182" y="1343.621212121212"/>
      <point x="954.6969696969697" y="1494.3636363636363"/>
      <point x="574.2121212121212" y="1494.3636363636363" type="curve" smooth="yes"/>
      <point x="438.5151515151515" y="1494.3636363636363"/>
      <point x="326.28787878787875" y="1481.878787878788"/>
      <point x="197.93939393939394" y="1457.0454545454545" type="curve"/>
    </contour>
    <contour>
      <point x="531.0757575757576" y="591.7878787878788" type="curve" smooth="yes"/>
      <point x="440.4545454545455" y="591.7878787878788"/>
      <point x="366.6212121212121" y="596.6060606060606"/>
      <point x="289.3939393939394" y="607.2727272727273" type="curve"/>
      <point x="289.3939393939394" y="1388.8181818181818" type="line"/>
      <point x="375.5909090909091" y="1404.2121212121212"/>
      <point x="466.24242424242425" y="1412.7878787878788"/>
      <point x="576.8787878787879" y="1412.7878787878788" type="curve" smooth="yes"/>
      <point x="903.3636363636364" y="1412.7878787878788"/>
      <point x="1066.469696969697" y="1288.3636363636363"/>
      <point x="1066.469696969697" y="1002.2121212121212" type="curve" smooth="yes"/>
      <point x="1066.469696969697" y="729.6969696969697"/>
      <point x="913.6969696969697" y="591.7878787878788"/>
    </contour>
  </outline>
</glyph>
<glyph name="Q" format="2">
  <advance width="1488.060606060606"/>
  <unicode hex="0051"/>
  <outline>
    <contour>
      <point x="1321.9848484848485" y="-192.36363636363637" type="curve"/>
      <point x="1334.7424242424242" y="-109.63636363636364" type="line"/>
      <point x="1103.9242424242425" y="-92.04545454545455"/>
      <point x="837.3939393939394" y="-53.13636363636363"/>
      <point x="661.530303030303" y="20.545454545454547" type="curve"/>
      <point x="649.8787878787879" y="-5.7272727272727275" type="line"/>
      <point x="1113.1969696969697" y="-56.78787878787879"/>
      <point x="1363.1818181818182" y="201.37878787878788"/>
      <point x="1363.1818181818182" y="740.0" type="curve" smooth="yes"/>
      <point x="1363.1818181818182" y="1283.621212121212"/>
      <point x="1108.5757575757575" y="1498.121212121212"/>
      <point x="744.030303030303" y="1498.121212121212" type="curve" smooth="yes"/>
      <point x="379.4848484848485" y="1498.121212121212"/>
      <point x="124.87878787878788" y="1275.3484848484848"/>
      <point x="124.87878787878788" y="739.0909090909091" type="curve" smooth="yes"/>
      <point x="124.87878787878788" y="141.1969696969697"/>
      <point x="396.77272727272725" y="-102.18181818181819"/>
    </contour>
    <contour>
      <point x="744.030303030303" y="66.92424242424242" type="curve" smooth="yes"/>
      <point x="432.54545454545456" y="66.92424242424242"/>
      <point x="220.63636363636363" y="246.78787878787878"/>
      <point x="220.63636363636363" y="744.2424242424242" type="curve" smooth="yes"/>
      <point x="220.63636363636363" y="1233.030303030303"/>
      <point x="433.0" y="1413.0757575757575"/>
      <point x="744.030303030303" y="1413.0757575757575" type="curve" smooth="yes"/>
      <point x="1055.060606060606" y="1413.0757575757575"/>
      <point x="1267.4242424242425" y="1232.7575757575758"/>
      <point x="1267.4242424242425" y="735.7575757575758" type="curve" smooth="yes"/>
      <point x="1267.4242424242425" y="247.24242424242425"/>
      <point x="1055.3333333333333" y="66.92424242424242"/>
    </contour>
  </outline>
</glyph>
<glyph name="T" format="2">
  <advance width="1194.2121212121212"/>
  <unicode hex="0054"/>
  <anchor x="597.1212121212121" y="0.0" name="bottom"/>
  <anchor x="597.1212121212121" y="793.939393939394" name="center"/>
  <anchor x="597.1212121212121" y="1520.0" name="top"/>
  <outline>
    <contour>
      <point x="551.3636363636364" y="0.0" type="line"/>
      <point x="642.8484848484849" y="0.0" type="line"/>
      <point x="642.8484848484849" y="1396.030303030303" type="line"/>
      <point x="1177.1818181818182" y="1396.030303030303" type="line"/>
      <point x="1177.1818181818182" y="1480.0" type="line"/>
      <point x="17.03030303030303" y="1480.0" type="line"/>
      <point x="17.03030303030303" y="1396.030303030303" type="line"/>
      <point x="551.3636363636364" y="1396.030303030303" type="line"/>
    </contour>
  </outline>
</glyph>
<glyph name="V" format="2">
  <advance width="1338.4848484848485"/>
  <unicode hex="0056"/>
  <outline>
    <contour>
      <point x="604.9090909090909" y="0.0" type="line"/>
      <point x="733.5757575757575" y="0.0" type="line"/>
      <point x="1319.2272727272727" y="1480.0" type="line"/>
      <point x="1225.121212121212" y="1480.0" type="line"/>
      <point x="661.6515151515151" y="48.75757575757576" type="line"/>
      <point x="682.9242424242424" y="48.75757575757576" type="line"/>
      <point x="119.0909090909091" y="1480.0" type="line"/>
      <point x="19.257575757575758" y="1480.0" type="line"/>
    </contour>
  </outline>
</glyph>
<glyph name="W" format="2">
  <advance width="2171.1060606060605"/>
  <unicode hex="0057"/>
  <anchor x="1086.7272727272727" y="0.0" name="bottom"/>
  <anchor x="1086.7272727272727" y="1520.0" name="top"/>
  <outline>
    <contour>
      <point x="529.3636363636364" y="0.0" type="line"/>
      <point x="652.6363636363636" y="0.0" type="line"/>
      <point x="1097.9848484848485" y="1420.5151515151515" type="line"/>
      <point x="1073.1818181818182" y="1420.5151515151515" type="line"/>
      <point x="1518.469696969697" y="0.0" type="line"/>
      <point x="1641.7424242424242" y="0.0" type="line"/>
      <point x="2097.621212121212" y="1480.0" type="line"/>
      <point x="2006.2424242424242" y="1480.0" type="line"/>
      <point x="1569.439393939394" y="50.39393939393939" type="line"/>
      <point x="1590.2575757575758" y="50.39393939393939" type="line"/>
      <point x="1145.7272727272727" y="1480.0" type="line"/>
      <point x="1027.3636363636363" y="1480.0" type="line"/>
      <point x="583.1212121212121" y="50.39393939393939" type="line"/>
      <point x="604.6969696969697" y="50.39393939393939" type="line"/>
      <point x="168.9090909090909" y="1480.0" type="line"/>
      <point x="72.07575757575758" y="1480.0" type="line"/>
    </contour>
  </outline>
</glyph>
<glyph name="X" format="2">
  <advance width="1308.4242424242425"/>
  <unicode hex="0058"/>
  <outline>
    <contour>
      <point x="1163.4848484848485" y="0.0" type="line"/>
      <point x="1276.5454545454545" y="0.0" type="line"/>
      <point x="709.1818181818182" y="750.0" type="line"/>
      <point x="654.2878787878788" y="821.2424242424242" type="line"/>
      <point x="155.27272727272728" y="1480.0" type="line"/>
      <point x="42.59090909090909" y="1480.0" type="line"/>
      <point x="597.530303030303" y="748.1969696969697" type="line"/>
      <point x="652.4242424242424" y="676.5757575757576" type="line"/>
    </contour>
    <contour>
      <point x="30.40909090909091" y="0.0" type="line"/>
      <point x="140.95454545454544" y="0.0" type="line"/>
      <point x="652.4242424242424" y="676.5757575757576" type="line"/>
      <point x="709.1818181818182" y="750.0" type="line"/>
      <point x="1263.5454545454545" y="1480.0" type="line"/>
      <point x="1154.621212121212" y="1480.0" type="line"/>
      <point x="654.2878787878788" y="821.2424242424242" type="line"/>
      <point x="597.530303030303" y="748.1969696969697" type="line"/>
    </contour>
  </outline>
</glyph>
<glyph name="Z" format="2">
  <advance width="1192.2272727272727"/>
  <unicode hex="005A"/>
  <anchor x="596.3030303030303" y="0.0" name="bottom"/>
  <anchor x="596.4242424242424" y="1520.0" name="top"/>
  <outline>
    <contour>
      <point x="66.77272727272727" y="0.0" type="line"/>
      <point x="1125.4545454545455" y="0.0" type="line"/>
      <point x="1125.4545454545455" y="82.0909090909091" type="line"/>
      <point x="161.56060606060606" y="82.0909090909091" type="line"/>
      <point x="173.77272727272728" y="54.07575757575758" type="line"/>
      <point x="1112.6363636363637" y="1427.5454545454545" type="line"/>
      <point x="1112.6363636363637" y="1480.0" type="line"/>
      <point x="79.5909090909091" y="1480.0" type="line"/>
      <point x="79.5909090909091" y="1397.909090909091" type="line"/>
      <point x="1017.8484848484849" y="1397.909090909091" type="line"/>
      <point x="1005.6363636363636" y="1425.9242424242425" type="line"/>
      <point x="66.77272727272727" y="52.45454545454545" type="line"/>
    </contour>
  </outline>
</glyph>
<glyph name="bracketleft" format="2">
  <advance width="673.7575757575758"/>
  <unicode hex="005B"/>
  <outline>
    <contour>
      <point x="217.93939393939394" y="-440.0" type="line"/>
      <point x="711.8787878787879" y="-440.0" type="line"/>
      <point x="711.8787878787879" y="-358.969696969697" type="line"/>
      <point x="308.75757575757575" y="-358.969696969697" type="line"/>
      <point x="308.75757575757575" y="1534.969696969697" type="line"/>
      <point x="712.7878787878788" y="1534.969696969697" type="line"/>
      <point x="712.7878787878788" y="1616.0" type="line"/>
      <point x="217.93939393939394" y="1616.0" type="line"/>
    </contour>
  </outline>
</glyph>
<glyph name="backslash" format="2">
  <advance width="597.2272727272727"/>
  <unicode hex="005C"/>
  <outline>
    <contour>
      <point x="503.27272727272725" y="-240.0" type="line"/>
      <point x="597.2272727272727" y="-240.0" type="line"/>
      <point x="93.95454545454545" y="1616.0" type="line"/>
      <point x="0.0" y="1616.0" type="line"/>
    </contour>
  </outline>
</glyph>
<glyph name="bracketright" format="2">
  <advance width="673.7575757575758"/>
  <unicode hex="005D"/>
  <outline>
    <contour>
      <point x="-38.121212121212125" y="-440.0" type="line"/>
      <point x="455.8181818181818" y="-440.0" type="line"/>
      <point x="455.8181818181818" y="1616.0" type="line"/>
      <point x="-39.03030303030303" y="1616.0" type="line"/>
      <point x="-39.03030303030303" y="1534.969696969697" type="line"/>
      <point x="365.0" y="1534.969696969697" type="line"/>
      <point x="365.0" y="-358.969696969697" type="line"/>
      <point x="-38.121212121212125" y="-358.969696969697" type="line"/>
    </contour>
  </outline>
</glyph>
<glyph name="asciicircum" format="2">
  <advance width="1163.939393939394"/>
  <unicode hex="005E"/>
  <outline>
    <contour>
      <point x="109.45454545454545" y="740.0" type="line"/>
      <point x="211.43939393939394" y="740.0" type="line"/>
      <point x="591.8181818181819" y="1425.6363636363637" type="line"/>
      <point x="572.1212121212121" y="1425.6363636363637" type="line"/>
      <point x="952.5" y="740.0" type="line"/>
      <point x="1054.4848484848485" y="740.0" type="line"/>
      <point x="638.1212121212121" y="1480.0" type="line"/>
      <point x="523.939393939394" y="1480.0" type="line"/>
    </contour>
  </outline>
</glyph>
<glyph name="underscore" format="2">
  <advance width="1159.7878787878788"/>
  <unicode hex="005F"/>
  <outline>
    <contour>
      <point x="96.89393939393939" y="-81.12121212121212" type="line"/>
      <point x="1062.8939393939395" y="-81.12121212121212" type="line"/>
      <point x="1062.8939393939395" y="-0.09090909090909091" type="line"/>
      <point x="96.89393939393939" y="-0.09090909090909091" type="line"/>
    </contour>
  </outline>
</glyph>
<glyph name="grave" format="2">
  <advance width="1106.060606060606"/>
  <unicode hex="0060"/>
  <anchor x="553.030303030303" y="1200.0" name="_top"/>
  <anchor x="553.030303030303" y="1562.060606060606" name="top"/>
  <outline>
    <contour>
      <point x="508.5454545454545" y="1261.3333333333333" type="line"/>
      <point x="597.5151515151515" y="1261.3333333333333" type="line"/>
      <point x="359.06060606060606" y="1616.0" type="line"/>
      <point x="254.0" y="1616.0" type="line"/>
    </contour>
  </outline>
</glyph>
<glyph name="b" format="2">
  <advance width="1164.2878787878788"/>
  <unicode hex="0062"/>
  <anchor x="584.4545454545455" y="0.0" name="bottom"/>
  <anchor x="223.78787878787878" y="1616.0" name="top"/>
  <outline>
    <contour>
      <point x="502.9090909090909" y="-18.21212121212121" type="curve" smooth="yes"/>
      <point x="860.4848484848485" y="-18.242424242424242"/>
      <point x="1049.8333333333333" y="169.04545454545453"/>
      <point x="1049.8333333333333" y="561.0" type="curve" smooth="yes"/>
      <point x="1049.8333333333333" y="954.2121212121212"/>
      <point x="855.5" y="1097.3333333333333"/>
      <point x="611.6363636363636" y="1097.3333333333333" type="curve" smooth="yes"/>
      <point x="467.72727272727275" y="1097.3333333333333"/>
      <point x="352.22727272727275" y="1041.8333333333333"/>
      <point x="276.0" y="961.1060606060606" type="curve"/>
      <point x="269.1818181818182" y="961.1060606060606" type="line"/>
      <point x="269.1818181818182" y="1616.0" type="line"/>
      <point x="178.36363636363637" y="1616.0" type="line"/>
      <point x="178.36363636363637" y="28.333333333333336" type="line"/>
      <point x="280.8787878787879" y="-2.409090909090909"/>
      <point x="391.530303030303" y="-18.21212121212121"/>
    </contour>
    <contour>
      <point x="510.939393939394" y="63.66666666666667" type="curve" smooth="yes"/>
      <point x="416.74242424242425" y="63.66666666666667"/>
      <point x="331.1818181818182" y="77.5909090909091"/>
      <point x="269.1818181818182" y="96.33333333333333" type="curve"/>
      <point x="269.1818181818182" y="858.3787878787879" type="line"/>
      <point x="351.6666666666667" y="966.7727272727273"/>
      <point x="473.77272727272725" y="1013.8787878787879"/>
      <point x="597.5454545454545" y="1013.8787878787879" type="curve" smooth="yes"/>
      <point x="801.1818181818181" y="1013.8787878787879"/>
      <point x="955.4090909090909" y="903.9242424242424"/>
      <point x="955.4090909090909" y="551.5151515151515" type="curve" smooth="yes"/>
      <point x="955.4090909090909" y="211.66666666666666"/>
      <point x="803.0" y="63.66666666666667"/>
    </contour>
  </outline>
</glyph>
<glyph name="d" format="2">
  <advance width="1164.2878787878788"/>
  <unicode hex="0064"/>
  <anchor x="580.8636363636364" y="0.0" name="bottom"/>
  <anchor x="1113.8030303030303" y="1616.0" name="caronalt"/>
  <anchor x="579.8939393939394" y="540.4545454545455" name="center"/>
  <anchor x="985.9242424242424" y="1355.909090909091" name="stroke"/>
  <anchor x="578.8030303030303" y="1200.0" name="top"/>
  <anchor x="1111.3333333333333" y="1081.2121212121212" name="topright"/>
  <outline>
    <contour>
      <point x="561.3484848484849" y="-18.060606060606062" type="curve" smooth="yes"/>
      <point x="699.3181818181818" y="-18.060606060606062"/>
      <point x="816.5" y="38.10606060606061"/>
      <point x="891.2878787878788" y="124.53030303030303" type="curve"/>
      <point x="899.9545454545455" y="124.53030303030303" type="line"/>
      <point x="907.0757575757576" y="0.0" type="line"/>
      <point x="985.9242424242424" y="0.0" type="line"/>
      <point x="985.9242424242424" y="1616.0" type="line"/>
      <point x="895.1060606060606" y="1616.0" type="line"/>
      <point x="895.1060606060606" y="1076.4545454545455" type="line"/>
      <point x="830.7424242424242" y="1087.909090909091"/>
      <point x="749.5151515151515" y="1097.4848484848485"/>
      <point x="669.1969696969697" y="1097.4848484848485" type="curve" smooth="yes"/>
      <point x="305.0151515151515" y="1097.4848484848485"/>
      <point x="114.45454545454545" y="909.9242424242424"/>
      <point x="114.45454545454545" y="518.5151515151515" type="curve" smooth="yes"/>
      <point x="114.45454545454545" y="134.07575757575756"/>
      <point x="305.530303030303" y="-18.060606060606062"/>
    </contour>
    <contour>
      <point x="572.5757575757576" y="65.36363636363636" type="curve" smooth="yes"/>
      <point x="356.1515151515151" y="65.36363636363636"/>
      <point x="208.87878787878788" y="180.95454545454544"/>
      <point x="208.87878787878788" y="527.9090909090909" type="curve" smooth="yes"/>
      <point x="208.87878787878788" y="867.5151515151515"/>
      <point x="361.2878787878788" y="1015.5151515151515"/>
      <point x="666.969696969697" y="1015.5151515151515" type="curve" smooth="yes"/>
      <point x="747.4545454545455" y="1015.5151515151515"/>
      <point x="833.1060606060606" y="1005.3484848484849"/>
      <point x="895.1060606060606" y="989.0757575757576" type="curve"/>
      <point x="895.1060606060606" y="230.83333333333334" type="line"/>
      <point x="812.7727272727273" y="112.62121212121212"/>
      <point x="691.8333333333333" y="65.36363636363636"/>
    </contour>
  </outline>
</glyph>
<glyph name="f" format="2">
  <advance width="731.6515151515151"/>
  <unicode hex="0066"/>
  <outline>
    <contour>
      <point x="246.13636363636363" y="0.0" type="line"/>
      <point x="336.8636363636364" y="0.0" type="line"/>
      <point x="336.8636363636364" y="1260.4242424242425" type="line" smooth="yes"/>
      <point x="336.8636363636364" y="1474.5757575757575"/>
      <point x="431.27272727272725" y="1553.2121212121212"/>
      <point x="625.9848484848485" y="1553.2121212121212" type="curve" smooth="yes"/>
      <point x="674.6060606060606" y="1553.2121212121212"/>
      <point x="726.7121212121212" y="1547.9242424242425"/>
      <point x="776.9242424242424" y="1538.7575757575758" type="curve"/>
      <point x="776.9242424242424" y="1623.060606060606" type="line"/>
      <point x="728.6363636363636" y="1631.060606060606"/>
      <point x="674.060606060606" y="1636.0"/>
      <point x="625.1666666666666" y="1636.0" type="curve" smooth="yes"/>
      <point x="373.1515151515151" y="1636.0"/>
      <point x="246.13636363636363" y="1510.878787878788"/>
      <point x="246.13636363636363" y="1254.2272727272727" type="curve" smooth="yes"/>
    </contour>
    <contour>
      <point x="19.772727272727273" y="1000.1818181818181" type="line"/>
      <point x="734.7575757575758" y="1000.1818181818181" type="line"/>
      <point x="734.7575757575758" y="1081.2121212121212" type="line"/>
      <point x="19.772727272727273" y="1081.2121212121212" type="line"/>
    </contour>
  </outline>
</glyph>
<glyph name="i" format="2">
  <advance width="447.57575757575756"/>
  <unicode hex="0069"/>
  <anchor x="223.78787878787878" y="1200.0" name="_top"/>
  <anchor x="223.78787878787878" y="0.0" name="bottom"/>
  <anchor x="269.2121212121212" y="0.0" name="ogonek"/>
  <anchor x="223.78787878787878" y="1200.0" name="top"/>
  <outline>
    <contour>
      <point x="178.36363636363637" y="0.0" type="line"/>
      <point x="269.2121212121212" y="0.0" type="line"/>
      <point x="269.2121212121212" y="1081.2121212121212" type="line"/>
      <point x="178.36363636363637" y="1081.2121212121212" type="line"/>
    </contour>
    <contour>
      <point x="223.78787878787878" y="1350.7272727272727" type="curve" smooth="yes"/>
      <point x="268.6969696969697" y="1350.7272727272727"/>
      <point x="298.030303030303" y="1377.8181818181818"/>
      <point x="298.030303030303" y="1421.7575757575758" type="curve" smooth="yes"/>
      <point x="298.030303030303" y="1465.6969696969697"/>
      <point x="268.6969696969697" y="1494.6666666666667"/>
      <point x="223.78787878787878" y="1494.6666666666667" type="curve" smooth="yes"/>
      <point x="178.87878787878788" y="1494.6666666666667"/>
      <point x="149.54545454545456" y="1465.6969696969697"/>
      <point x="149.54545454545456" y="1421.7575757575758" type="curve" smooth="yes"/>
      <point x="149.54545454545456" y="1377.8181818181818"/>
      <point x="178.87878787878788" y="1350.7272727272727"/>
    </contour>
  </outline>
</glyph>
<glyph name="j" format="2">
  <advance width="447.57575757575756"/>
  <unicode hex="006A"/>
  <anchor x="223.33333333333331" y="1208.4545454545455" name="_top"/>
  <anchor x="223.33333333333331" y="1208.4545454545455" name="top"/>
  <outline>
    <contour>
      <point x="42.878787878787875" y="-460.969696969697" type="line"/>
      <point x="200.10606060606062" y="-264.57575757575756"/>
      <point x="269.2121212121212" y="-81.24242424242425"/>
      <point x="269.2121212121212" y="172.9848484848485" type="curve" smooth="yes"/>
      <point x="269.2121212121212" y="1081.2121212121212" type="line"/>
      <point x="178.36363636363637" y="1081.2121212121212" type="line"/>
      <point x="178.36363636363637" y="166.84848484848484" type="line" smooth="yes"/>
      <point x="178.36363636363637" y="-66.39393939393939"/>
      <point x="118.03030303030303" y="-239.36363636363637"/>
      <point x="-19.651515151515152" y="-416.3484848484849" type="curve"/>
    </contour>
    <contour>
      <point x="223.33333333333331" y="1359.1818181818182" type="curve" smooth="yes"/>
      <point x="268.24242424242425" y="1359.1818181818182"/>
      <point x="297.57575757575756" y="1386.2727272727273"/>
      <point x="297.57575757575756" y="1430.2121212121212" type="curve" smooth="yes"/>
      <point x="297.57575757575756" y="1474.1515151515152"/>
      <point x="268.24242424242425" y="1503.121212121212"/>
      <point x="223.33333333333331" y="1503.121212121212" type="curve" smooth="yes"/>
      <point x="178.42424242424244" y="1503.121212121212"/>
      <point x="149.0909090909091" y="1474.1515151515152"/>
      <point x="149.0909090909091" y="1430.2121212121212" type="curve" smooth="yes"/>
      <point x="149.0909090909091" y="1386.2727272727273"/>
      <point x="178.42424242424244" y="1359.1818181818182"/>
    </contour>
  </outline>
</glyph>
<glyph name="k" format="2">
  <advance width="1040.409090909091"/>
  <unicode hex="006B"/>
  <anchor x="557.1969696969697" y="0.0" name="bottom"/>
  <anchor x="223.78787878787878" y="1616.0" name="top"/>
  <outline>
    <contour>
      <point x="943.1969696969697" y="0.0" type="line"/>
      <point x="1052.6666666666667" y="0.0" type="line"/>
      <point x="561.030303030303" y="566.6515151515151" type="line"/>
      <point x="561.030303030303" y="540.2575757575758" type="line"/>
      <point x="1020.3333333333333" y="1081.2121212121212" type="line"/>
      <point x="911.939393939394" y="1081.2121212121212" type="line"/>
      <point x="459.92424242424244" y="552.8484848484849" type="line"/>
    </contour>
    <contour>
      <point x="252.21212121212122" y="512.060606060606" type="line"/>
      <point x="510.75757575757575" y="512.060606060606" type="line"/>
      <point x="510.75757575757575" y="593.6363636363636" type="line"/>
      <point x="252.21212121212122" y="593.6363636363636" type="line"/>
    </contour>
    <contour>
      <point x="178.36363636363637" y="0.0" type="line"/>
      <point x="269.1818181818182" y="0.0" type="line"/>
      <point x="269.1818181818182" y="1616.0" type="line"/>
      <point x="178.36363636363637" y="1616.0" type="line"/>
    </contour>
  </outline>
</glyph>
<glyph name="l" format="2">
  <advance width="447.54545454545456"/>
  <unicode hex="006C"/>
  <anchor x="223.6969696969697" y="0.0" name="bottom"/>
  <anchor x="397.06060606060606" y="1616.0" name="caronalt"/>
  <anchor x="446.5909090909091" y="794.0" name="periodcentered"/>
  <anchor x="223.78787878787878" y="714.0" name="slash"/>
  <anchor x="223.78787878787878" y="1616.0" name="top"/>
  <outline>
    <contour>
      <point x="178.36363636363637" y="0.0" type="line"/>
      <point x="269.1818181818182" y="0.0" type="line"/>
      <point x="269.1818181818182" y="1616.0" type="line"/>
      <point x="178.36363636363637" y="1616.0" type="line"/>
    </contour>
  </outline>
</glyph>
<glyph name="p" format="2">
  <advance width="1164.2878787878788"/>
  <unicode hex="0070"/>
  <outline>
    <contour>
      <point x="178.36363636363637" y="-440.0" type="line"/>
      <point x="269.1818181818182" y="-440.0" type="line"/>
      <point x="269.1818181818182" y="1.40909090909091" type="line"/>
      <point x="333.54545454545456" y="-8.636363636363637"/>
      <point x="414.77272727272725" y="-18.21212121212121"/>
      <point x="495.0909090909091" y="-18.21212121212121" type="curve" smooth="yes"/>
      <point x="860.6818181818182" y="-18.21212121212121"/>
      <point x="1049.8333333333333" y="169.34848484848484"/>
      <point x="1049.8333333333333" y="560.7575757575758" type="curve" smooth="yes"/>
      <point x="1049.8333333333333" y="955.060606060606"/>
      <point x="853.1212121212121" y="1097.3333333333333"/>
      <point x="602.939393939394" y="1097.3333333333333" type="curve" smooth="yes"/>
      <point x="464.969696969697" y="1097.3333333333333"/>
      <point x="347.78787878787875" y="1041.1666666666667"/>
      <point x="273.0" y="954.7424242424242" type="curve"/>
      <point x="265.74242424242425" y="954.7424242424242" type="line"/>
      <point x="257.21212121212125" y="1081.2121212121212" type="line"/>
      <point x="178.36363636363637" y="1081.2121212121212" type="line"/>
    </contour>
    <contour>
      <point x="497.3181818181818" y="63.75757575757576" type="curve" smooth="yes"/>
      <point x="416.83333333333337" y="63.75757575757576"/>
      <point x="331.1818181818182" y="73.92424242424242"/>
      <point x="269.1818181818182" y="90.19696969696969" type="curve"/>
      <point x="269.1818181818182" y="848.439393939394" type="line"/>
      <point x="351.5151515151515" y="966.6515151515151"/>
      <point x="472.45454545454544" y="1013.9090909090909"/>
      <point x="591.7121212121212" y="1013.9090909090909" type="curve" smooth="yes"/>
      <point x="801.0909090909091" y="1013.9090909090909"/>
      <point x="955.4090909090909" y="903.9545454545455"/>
      <point x="955.4090909090909" y="551.3636363636364" type="curve" smooth="yes"/>
      <point x="955.4090909090909" y="211.75757575757575"/>
      <point x="803.0" y="63.75757575757576"/>
    </contour>
  </outline>
</glyph>
<glyph name="q" format="2">
  <advance width="1164.2878787878788"/>
  <unicode hex="0071"/>
  <outline>
    <contour>
      <point x="895.1060606060606" y="-440.0" type="line"/>
      <point x="985.9242424242424" y="-440.0" type="line"/>
      <point x="985.9242424242424" y="1050.7878787878788" type="line"/>
      <point x="885.1666666666666" y="1080.7878787878788"/>
      <point x="772.7575757575758" y="1097.3333333333333"/>
      <point x="661.3787878787879" y="1097.3333333333333" type="curve" smooth="yes"/>
      <point x="303.8030303030303" y="1097.3333333333333"/>
      <point x="114.45454545454545" y="910.0757575757576"/>
      <point x="114.45454545454545" y="518.1212121212121" type="curve" smooth="yes"/>
      <point x="114.45454545454545" y="124.9090909090909"/>
      <point x="308.7878787878788" y="-18.21212121212121"/>
      <point x="552.6515151515151" y="-18.21212121212121" type="curve" smooth="yes"/>
      <point x="696.560606060606" y="-18.21212121212121"/>
      <point x="812.060606060606" y="37.28787878787879"/>
      <point x="888.2878787878788" y="118.01515151515152" type="curve"/>
      <point x="895.1060606060606" y="118.01515151515152" type="line"/>
    </contour>
    <contour>
      <point x="566.7424242424242" y="65.24242424242425" type="curve" smooth="yes"/>
      <point x="363.1060606060606" y="65.24242424242425"/>
      <point x="208.87878787878788" y="175.1969696969697"/>
      <point x="208.87878787878788" y="527.6060606060606" type="curve" smooth="yes"/>
      <point x="208.87878787878788" y="867.4545454545455"/>
      <point x="361.7121212121212" y="1015.4545454545455"/>
      <point x="653.3181818181818" y="1015.4545454545455" type="curve" smooth="yes"/>
      <point x="747.6060606060606" y="1015.4545454545455"/>
      <point x="833.1060606060606" y="1002.939393939394"/>
      <point x="895.1060606060606" y="986.1060606060606" type="curve"/>
      <point x="895.1060606060606" y="220.74242424242425" type="line"/>
      <point x="812.6212121212121" y="112.34848484848484"/>
      <point x="687.6969696969697" y="65.24242424242425"/>
    </contour>
  </outline>
</glyph>
<glyph name="v" format="2">
  <advance width="1079.7121212121212"/>
  <unicode hex="0076"/>
  <anchor x="541.5" y="0.0" name="bottom"/>
  <anchor x="541.5" y="1200.0" name="top"/>
  <outline>
    <contour>
      <point x="479.8939393939394" y="0.0" type="line"/>
      <point x="599.7272727272727" y="0.0" type="line"/>
      <point x="1050.909090909091" y="1081.2121212121212" type="line"/>
      <point x="957.439393939394" y="1081.2121212121212" type="line"/>
      <point x="534.6363636363636" y="56.39393939393939" type="line"/>
      <point x="551.1818181818182" y="56.39393939393939" type="line"/>
      <point x="128.37878787878788" y="1081.2121212121212" type="line"/>
      <point x="28.803030303030305" y="1081.2121212121212" type="line"/>
    </contour>
  </outline>
</glyph>
<glyph name="w" format="2">
  <advance width="1732.5454545454545"/>
  <unicode hex="0077"/>
  <anchor x="867.7424242424242" y="0.0" name="bottom"/>
  <anchor x="868.2121212121212" y="1200.0" name="top"/>
  <outline>
    <contour>
      <point x="425.04545454545456" y="0.0" type="line"/>
      <point x="542.9242424242425" y="0.0" type="line"/>
      <point x="876.0151515151515" y="1017.5757575757576" type="line"/>
      <point x="857.5757575757575" y="1017.5757575757576" type="line"/>
      <point x="1191.1515151515152" y="0.0" type="line"/>
      <point x="1309.030303030303" y="0.0" type="line"/>
      <point x="1655.5454545454545" y="1081.2121212121212" type="line"/>
      <point x="1563.9545454545455" y="1081.2121212121212" type="line"/>
      <point x="1241.6060606060605" y="63.484848484848484" type="line"/>
      <point x="1258.1515151515152" y="63.484848484848484" type="line"/>
      <point x="926.7575757575758" y="1081.2121212121212" type="line"/>
      <point x="808.8787878787879" y="1081.2121212121212" type="line"/>
      <point x="478.6212121212121" y="63.54545454545455" type="line"/>
      <point x="494.5909090909091" y="63.54545454545455" type="line"/>
      <point x="171.5909090909091" y="1081.2121212121212" type="line"/>
      <point x="77.0" y="1081.2121212121212" type="line"/>
    </contour>
  </outline>
</glyph>
<glyph name="x" format="2">
  <advance width="1034.3484848484848"/>
  <unicode hex="0078"/>
  <anchor x="518.8181818181818" y="0.0" name="bottom"/>
  <anchor x="518.8484848484849" y="1200.0" name="top"/>
  <outline>
    <contour>
      <point x="892.2272727272727" y="0.0" type="line"/>
      <point x="1005.3181818181818" y="0.0" type="line"/>
      <point x="574.2272727272727" y="546.8181818181819" type="line"/>
      <point x="519.1515151515151" y="613.9242424242424" type="line"/>
      <point x="153.8181818181818" y="1081.2121212121212" type="line"/>
      <point x="40.72727272727273" y="1081.2121212121212" type="line"/>
      <point x="461.3181818181818" y="544.6060606060606" type="line"/>
      <point x="516.7272727272727" y="478.030303030303" type="line"/>
    </contour>
    <contour>
      <point x="32.28787878787878" y="0.0" type="line"/>
      <point x="144.0909090909091" y="0.0" type="line"/>
      <point x="516.7272727272727" y="478.030303030303" type="line"/>
      <point x="574.2272727272727" y="546.8181818181819" type="line"/>
      <point x="994.6060606060606" y="1081.2121212121212" type="line"/>
      <point x="885.6212121212121" y="1081.2121212121212" type="line"/>
      <point x="519.1515151515151" y="613.9242424242424" type="line"/>
      <point x="461.3181818181818" y="544.6060606060606" type="line"/>
    </contour>
  </outline>
</glyph>
<glyph name="y" format="2">
  <advance width="1079.7121212121212"/>
  <unicode hex="0079"/>
  <anchor x="789.3181818181818" y="0.0" name="bottom"/>
  <anchor x="541.5" y="1200.0" name="top"/>
  <outline>
    <contour>
      <point x="322.59090909090907" y="-440.0" type="line"/>
      <point x="416.469696969697" y="-440.0" type="line"/>
      <point x="1050.909090909091" y="1081.2121212121212" type="line"/>
      <point x="957.439393939394" y="1081.2121212121212" type="line"/>
      <point x="534.6363636363636" y="56.39393939393939" type="line"/>
      <point x="506.4090909090909" y="0.0" type="line"/>
    </contour>
    <contour>
      <point x="479.8939393939394" y="0.0" type="line"/>
      <point x="571.0454545454545" y="0.0" type="line"/>
      <point x="128.37878787878788" y="1081.2121212121212" type="line"/>
      <point x="28.803030303030305" y="1081.2121212121212" type="line"/>
    </contour>
  </outline>
</glyph>
<glyph name="z" format="2">
  <advance width="941.530303030303"/>
  <unicode hex="007A"/>
  <anchor x="473.5909090909091" y="0.0" name="bottom"/>
  <anchor x="473.5909090909091" y="1200.0" name="top"/>
  <outline>
    <contour>
      <point x="65.4090909090909" y="0.0" type="line"/>
      <point x="881.2121212121212" y="0.0" type="line"/>
      <point x="881.2121212121212" y="81.03030303030303" type="line"/>
      <point x="170.66666666666666" y="81.03030303030303" type="line"/>
      <point x="170.66666666666666" y="53.651515151515156" type="line"/>
      <point x="868.3939393939394" y="1026.3636363636363" type="line"/>
      <point x="868.3939393939394" y="1081.2121212121212" type="line"/>
      <point x="78.22727272727273" y="1081.2121212121212" type="line"/>
      <point x="78.22727272727273" y="1000.1818181818181" type="line"/>
      <point x="763.1363636363636" y="1000.1818181818181" type="line"/>
      <point x="763.1363636363636" y="1027.560606060606" type="line"/>
      <point x="65.4090909090909" y="54.848484848484844" type="line"/>
    </contour>
  </outline>
</glyph>
<glyph name="braceleft" format="2">
  <advance width="713.7575757575758"/>
  <unicode hex="007B"/>
  <outline>
    <contour>
      <point x="627.6060606060606" y="-460.0" type="curve" smooth="yes"/>
      <point x="673.8181818181819" y="-460.0"/>
      <point x="721.0" y="-455.8787878787879"/>
      <point x="752.7878787878788" y="-449.75757575757575" type="curve"/>
      <point x="752.7878787878788" y="-376.72727272727275" type="line"/>
      <point x="628.8787878787879" y="-376.72727272727275" type="line" smooth="yes"/>
      <point x="441.74242424242425" y="-376.72727272727275"/>
      <point x="348.75757575757575" y="-301.40909090909093"/>
      <point x="348.75757575757575" y="-112.86363636363636" type="curve" smooth="yes"/>
      <point x="348.75757575757575" y="382.06060606060606" type="line" smooth="yes"/>
      <point x="348.75757575757575" y="531.0909090909091"/>
      <point x="298.6363636363636" y="605.2727272727273"/>
      <point x="187.1818181818182" y="629.6969696969697" type="curve"/>
      <point x="187.1818181818182" y="615.5151515151515" type="line"/>
      <point x="298.6363636363636" y="639.939393939394"/>
      <point x="348.75757575757575" y="714.1212121212121"/>
      <point x="348.75757575757575" y="863.1515151515151" type="curve" smooth="yes"/>
      <point x="348.75757575757575" y="1288.8636363636363" type="line" smooth="yes"/>
      <point x="348.75757575757575" y="1477.409090909091"/>
      <point x="441.74242424242425" y="1552.7272727272727"/>
      <point x="628.8787878787879" y="1552.7272727272727" type="curve" smooth="yes"/>
      <point x="752.7878787878788" y="1552.7272727272727" type="line"/>
      <point x="752.7878787878788" y="1625.7575757575758" type="line"/>
      <point x="721.0" y="1631.878787878788"/>
      <point x="673.8181818181819" y="1636.0"/>
      <point x="627.6060606060606" y="1636.0" type="curve" smooth="yes"/>
      <point x="383.1515151515151" y="1636.0"/>
      <point x="257.93939393939394" y="1521.1666666666667"/>
      <point x="257.93939393939394" y="1284.3333333333333" type="curve" smooth="yes"/>
      <point x="257.93939393939394" y="849.4242424242424" type="line" smooth="yes"/>
      <point x="257.93939393939394" y="716.6363636363636"/>
      <point x="196.9090909090909" y="663.1212121212121"/>
      <point x="73.51515151515152" y="663.1212121212121" type="curve" smooth="yes"/>
      <point x="49.95454545454545" y="663.1212121212121" type="line"/>
      <point x="49.95454545454545" y="582.0909090909091" type="line"/>
      <point x="73.51515151515152" y="582.0909090909091" type="line" smooth="yes"/>
      <point x="196.9090909090909" y="582.0909090909091"/>
      <point x="257.93939393939394" y="528.5757575757576"/>
      <point x="257.93939393939394" y="395.7878787878788" type="curve" smooth="yes"/>
      <point x="257.93939393939394" y="-108.33333333333333" type="line" smooth="yes"/>
      <point x="257.93939393939394" y="-345.1666666666667"/>
      <point x="383.1515151515151" y="-460.0"/>
    </contour>
  </outline>
</glyph>
<glyph name="bar" format="2">
  <advance width="484.0"/>
  <unicode hex="007C"/>
  <outline>
    <contour>
      <point x="197.93939393939394" y="-440.0" type="line"/>
      <point x="286.06060606060606" y="-440.0" type="line"/>
      <point x="286.06060606060606" y="1616.0" type="line"/>
      <point x="197.93939393939394" y="1616.0" type="line"/>
    </contour>
  </outline>
</glyph>
<glyph name="braceright" format="2">
  <advance width="713.7575757575758"/>
  <unicode hex="007D"/>
  <outline>
    <contour>
      <point x="86.15151515151516" y="-460.0" type="curve" smooth="yes"/>
      <point x="330.6060606060606" y="-460.0"/>
      <point x="455.8181818181818" y="-345.1666666666667"/>
      <point x="455.8181818181818" y="-108.33333333333333" type="curve" smooth="yes"/>
      <point x="455.8181818181818" y="395.7878787878788" type="line" smooth="yes"/>
      <point x="455.8181818181818" y="528.5757575757576"/>
      <point x="516.8484848484849" y="582.0909090909091"/>
      <point x="640.2424242424242" y="582.0909090909091" type="curve" smooth="yes"/>
      <point x="663.8030303030303" y="582.0909090909091" type="line"/>
      <point x="663.8030303030303" y="663.1212121212121" type="line"/>
      <point x="640.2424242424242" y="663.1212121212121" type="line" smooth="yes"/>
      <point x="516.8484848484849" y="663.1212121212121"/>
      <point x="455.8181818181818" y="716.6363636363636"/>
      <point x="455.8181818181818" y="849.4242424242424" type="curve" smooth="yes"/>
      <point x="455.8181818181818" y="1284.3333333333333" type="line" smooth="yes"/>
      <point x="455.8181818181818" y="1521.1666666666667"/>
      <point x="330.6060606060606" y="1636.0"/>
      <point x="86.15151515151516" y="1636.0" type="curve" smooth="yes"/>
      <point x="39.93939393939394" y="1636.0"/>
      <point x="-7.242424242424242" y="1631.878787878788"/>
      <point x="-39.03030303030303" y="1625.7575757575758" type="curve"/>
      <point x="-39.03030303030303" y="1552.7272727272727" type="line"/>
      <point x="84.87878787878788" y="1552.7272727272727" type="line" smooth="yes"/>
      <point x="272.0151515151515" y="1552.7272727272727"/>
      <point x="365.0" y="1477.409090909091"/>
      <point x="365.0" y="1288.8636363636363" type="curve" smooth="yes"/>
      <point x="365.0" y="863.1515151515151" type="line" smooth="yes"/>
      <point x="365.0" y="714.1212121212121"/>
      <point x="415.21212121212125" y="639.939393939394"/>
      <point x="526.5757575757576" y="615.5151515151515" type="curve"/>
      <point x="526.5757575757576" y="629.6969696969697" type="line"/>
      <point x="415.21212121212125" y="605.2727272727273"/>
      <point x="365.0" y="531.0909090909091"/>
      <point x="365.0" y="382.06060606060606" type="curve" smooth="yes"/>
      <point x="365.0" y="-112.86363636363636" type="line" smooth="yes"/>
      <point x="365.0" y="-301.40909090909093"/>
      <point x="272.0151515151515" y="-376.72727272727275"/>
      <point x="84.87878787878788" y="-376.72727272727275" type="curve" smooth="yes"/>
      <point x="-39.03030303030303" y="-376.72727272727275" type="line"/>
      <point x="-39.03030303030303" y="-449.75757575757575" type="line"/>
      <point x="-7.242424242424242" y="-455.8787878787879"/>
      <point x="39.93939393939394" y="-460.0"/>
    </contour>
  </outline>
</glyph>
<glyph name="asciitilde" format="2">
  <advance width="1089.3030303030303"/>
  <unicode hex="007E"/>
  <outline>
    <contour>
      <point x="719.0151515151515" y="656.4242424242424" type="curve" smooth="yes"/>
      <point x="799.1666666666666" y="656.4242424242424"/>
      <point x="869.6515151515151" y="688.3030303030303"/>
      <point x="915.2575757575758" y="747.1515151515151" type="curve"/>
      <point x="915.2575757575758" y="844.3030303030303" type="line"/>
      <point x="859.439393939394" y="771.939393939394"/>
      <point x="794.8030303030303" y="736.1818181818181"/>
      <point x="717.3787878787879" y="736.1818181818181" type="curve" smooth="yes"/>
      <point x="611.5" y="736.1818181818181"/>
      <point x="504.469696969697" y="852.3030303030303"/>
      <point x="370.28787878787875" y="852.3030303030303" type="curve" smooth="yes"/>
      <point x="290.1363636363636" y="852.3030303030303"/>
      <point x="219.65151515151516" y="820.4242424242424"/>
      <point x="174.04545454545456" y="761.5757575757576" type="curve"/>
      <point x="174.04545454545456" y="664.4242424242424" type="line"/>
      <point x="229.86363636363637" y="736.7878787878788"/>
      <point x="294.5" y="772.5454545454545"/>
      <point x="371.92424242424244" y="772.5454545454545" type="curve" smooth="yes"/>
      <point x="477.8030303030303" y="772.5454545454545"/>
      <point x="584.8333333333334" y="656.4242424242424"/>
    </contour>
  </outline>
</glyph>
<glyph name="exclamdown" format="2">
  <advance width="482.8787878787879"/>
  <unicode hex="00A1"/>
  <outline>
    <contour>
      <point x="210.95454545454544" y="750.1212121212121" type="line"/>
      <point x="193.37878787878788" y="183.78787878787878" type="line"/>
      <point x="193.37878787878788" y="-380.0" type="line"/>
      <point x="289.5" y="-380.0" type="line"/>
      <point x="289.5" y="183.78787878787878" type="line"/>
      <point x="272.25757575757575" y="750.1212121212121" type="line"/>
    </contour>
    <contour>
      <point x="241.43939393939394" y="1091.8181818181818" type="curve" smooth="yes"/>
      <point x="197.16666666666666" y="1091.8181818181818"/>
      <point x="166.28787878787878" y="1063.4242424242425"/>
      <point x="166.28787878787878" y="1018.2727272727273" type="curve" smooth="yes"/>
      <point x="166.28787878787878" y="973.1212121212121"/>
      <point x="196.92424242424244" y="942.8484848484849"/>
      <point x="241.43939393939394" y="942.8484848484849" type="curve" smooth="yes"/>
      <point x="285.95454545454544" y="942.8484848484849"/>
      <point x="316.5909090909091" y="973.3636363636364"/>
      <point x="316.5909090909091" y="1018.2727272727273" type="curve" smooth="yes"/>
      <point x="316.5909090909091" y="1063.1818181818182"/>
      <point x="285.71212121212125" y="1091.8181818181818"/>
    </contour>
  </outline>
</glyph>
<glyph name="cent" format="2">
  <advance width="911.5"/>
  <unicode hex="00A2"/>
  <outline>
    <contour>
      <point x="582.8484848484849" y="-18.242424242424242" type="curve" smooth="yes"/>
      <point x="674.1969696969697" y="-18.242424242424242"/>
      <point x="767.7878787878788" y="-1.7424242424242422"/>
      <point x="858.5909090909091" y="31.651515151515152" type="curve"/>
      <point x="858.5909090909091" y="116.07575757575758" type="line"/>
      <point x="753.469696969697" y="79.48484848484848"/>
      <point x="668.6515151515151" y="64.78787878787878"/>
      <point x="592.469696969697" y="64.78787878787878" type="curve" smooth="yes"/>
      <point x="343.56060606060606" y="64.78787878787878"/>
      <point x="209.63636363636363" y="197.37878787878788"/>
      <point x="209.63636363636363" y="544.2424242424242" type="curve" smooth="yes"/>
      <point x="209.63636363636363" y="884.3181818181818"/>
      <point x="345.45454545454544" y="1014.3030303030303"/>
      <point x="627.560606060606" y="1014.3030303030303" type="curve" smooth="yes"/>
      <point x="707.530303030303" y="1014.3030303030303"/>
      <point x="780.2575757575758" y="1002.6060606060606"/>
      <point x="858.5909090909091" y="980.7424242424242" type="curve"/>
      <point x="858.5909090909091" y="1065.1666666666667" type="line"/>
      <point x="782.0454545454545" y="1086.9242424242425"/>
      <point x="706.8939393939394" y="1097.3333333333333"/>
      <point x="626.5757575757576" y="1097.3333333333333" type="curve" smooth="yes"/>
      <point x="293.93939393939394" y="1097.3333333333333"/>
      <point x="114.45454545454545" y="929.2424242424242"/>
      <point x="114.45454545454545" y="540.3939393939394" type="curve" smooth="yes"/>
      <point x="114.45454545454545" y="150.34848484848484"/>
      <point x="283.3181818181818" y="-18.242424242424242"/>
    </contour>
    <contour>
      <point x="538.2424242424242" y="-240.0" type="line"/>
      <point x="621.3939393939394" y="-240.0" type="line"/>
      <point x="621.3939393939394" y="3.6363636363636367" type="line"/>
      <point x="538.2424242424242" y="3.6363636363636367" type="line"/>
    </contour>
    <contour>
      <point x="538.2424242424242" y="1077.5757575757575" type="line"/>
      <point x="621.3939393939394" y="1077.5757575757575" type="line"/>
      <point x="621.3939393939394" y="1321.2121212121212" type="line"/>
      <point x="538.2424242424242" y="1321.2121212121212" type="line"/>
    </contour>
  </outline>
</glyph>
<glyph name="sterling" format="2">
  <advance width="1319.939393939394"/>
  <unicode hex="00A3"/>
  <outline>
    <contour>
      <point x="323.54545454545456" y="37.57575757575758" type="line"/>
      <point x="413.9090909090909" y="37.57575757575758" type="line"/>
      <point x="413.9090909090909" y="1046.878787878788" type="line" smooth="yes"/>
      <point x="413.9090909090909" y="1316.590909090909"/>
      <point x="563.8939393939394" y="1414.6969696969697"/>
      <point x="843.4242424242424" y="1414.6969696969697" type="curve" smooth="yes"/>
      <point x="957.4848484848485" y="1414.6969696969697"/>
      <point x="1070.9848484848485" y="1398.5757575757575"/>
      <point x="1184.3030303030303" y="1363.6515151515152" type="curve"/>
      <point x="1184.3030303030303" y="1449.1969696969697" type="line"/>
      <point x="1081.9242424242425" y="1481.590909090909"/>
      <point x="961.4545454545455" y="1498.121212121212"/>
      <point x="845.0454545454545" y="1498.121212121212" type="curve" smooth="yes"/>
      <point x="504.93939393939394" y="1498.121212121212"/>
      <point x="323.54545454545456" y="1357.0"/>
      <point x="323.54545454545456" y="1045.5454545454545" type="curve" smooth="yes"/>
    </contour>
    <contour>
      <point x="80.0" y="0.0" type="line"/>
      <point x="1227.0" y="0.0" type="line"/>
      <point x="1227.0" y="81.0909090909091" type="line"/>
      <point x="80.0" y="81.0909090909091" type="line"/>
    </contour>
    <contour>
      <point x="80.0" y="710.3939393939394" type="line"/>
      <point x="997.1818181818182" y="710.3939393939394" type="line"/>
      <point x="997.1818181818182" y="789.6060606060606" type="line"/>
      <point x="80.0" y="789.6060606060606" type="line"/>
    </contour>
  </outline>
</glyph>
<glyph name="currency" format="2">
  <advance width="1163.939393939394"/>
  <unicode hex="00A4"/>
  <outline>
    <contour>
      <point x="357.969696969697" y="931.5151515151515" type="line"/>
      <point x="390.45454545454544" y="962.1212121212121" type="line"/>
      <point x="288.8484848484849" y="1091.969696969697" type="line"/>
      <point x="190.84848484848484" y="1193.8484848484848" type="line"/>
      <point x="126.24242424242425" y="1129.2424242424242" type="line"/>
      <point x="230.0" y="1031.2424242424242" type="line"/>
    </contour>
    <contour>
      <point x="805.969696969697" y="931.5151515151515" type="line"/>
      <point x="933.939393939394" y="1031.2424242424242" type="line"/>
      <point x="1037.6969696969697" y="1129.2424242424242" type="line"/>
      <point x="973.0909090909091" y="1193.8484848484848" type="line"/>
      <point x="875.0909090909091" y="1091.969696969697" type="line"/>
      <point x="773.4848484848485" y="962.1212121212121" type="line"/>
    </contour>
    <contour>
      <point x="971.2121212121212" y="286.1515151515151" type="line"/>
      <point x="1035.8181818181818" y="350.75757575757575" type="line"/>
      <point x="933.939393939394" y="448.75757575757575" type="line"/>
      <point x="815.3636363636364" y="539.0909090909091" type="line"/>
      <point x="782.8787878787879" y="504.72727272727275" type="line"/>
      <point x="873.2121212121212" y="388.030303030303" type="line"/>
    </contour>
    <contour>
      <point x="192.72727272727272" y="286.1515151515151" type="line"/>
      <point x="290.72727272727275" y="388.030303030303" type="line"/>
      <point x="381.06060606060606" y="504.72727272727275" type="line"/>
      <point x="348.57575757575756" y="539.0909090909091" type="line"/>
      <point x="230.0" y="448.75757575757575" type="line"/>
      <point x="128.12121212121212" y="350.75757575757575" type="line"/>
    </contour>
    <contour>
      <point x="581.969696969697" y="406.25757575757575" type="curve" smooth="yes"/>
      <point x="770.969696969697" y="406.25757575757575"/>
      <point x="899.1666666666666" y="539.1212121212121"/>
      <point x="899.1666666666666" y="740.0" type="curve" smooth="yes"/>
      <point x="899.1666666666666" y="938.8787878787879"/>
      <point x="770.969696969697" y="1071.7424242424242"/>
      <point x="581.969696969697" y="1071.7424242424242" type="curve" smooth="yes"/>
      <point x="391.0909090909091" y="1071.7424242424242"/>
      <point x="264.77272727272725" y="938.8787878787879"/>
      <point x="264.77272727272725" y="740.0" type="curve" smooth="yes"/>
      <point x="264.77272727272725" y="539.1212121212121"/>
      <point x="391.0909090909091" y="406.25757575757575"/>
    </contour>
    <contour>
      <point x="581.969696969697" y="478.07575757575756" type="curve" smooth="yes"/>
      <point x="436.9090909090909" y="478.07575757575756"/>
      <point x="337.6818181818182" y="575.1818181818181"/>
      <point x="337.6818181818182" y="740.0" type="curve" smooth="yes"/>
      <point x="337.6818181818182" y="904.8181818181819"/>
      <point x="436.9090909090909" y="1001.9242424242424"/>
      <point x="583.969696969697" y="1001.9242424242424" type="curve" smooth="yes"/>
      <point x="740.4242424242425" y="1001.9242424242424"/>
      <point x="826.2575757575758" y="893.060606060606"/>
      <point x="826.2575757575758" y="740.0" type="curve" smooth="yes"/>
      <point x="826.2575757575758" y="573.3030303030303"/>
      <point x="727.030303030303" y="478.07575757575756"/>
    </contour>
  </outline>
</glyph>
<glyph name="yen" format="2">
  <advance width="1241.0"/>
  <unicode hex="00A5"/>
  <outline>
    <contour>
      <point x="574.969696969697" y="0.0" type="line"/>
      <point x="666.4242424242424" y="0.0" type="line"/>
      <point x="666.4242424242424" y="710.6212121212121" type="line"/>
      <point x="643.1818181818182" y="640.6363636363636" type="line"/>
      <point x="1233.1060606060605" y="1480.0" type="line"/>
      <point x="1129.1060606060605" y="1480.0" type="line"/>
      <point x="601.5151515151515" y="727.3030303030303" type="line"/>
      <point x="643.7878787878788" y="727.3030303030303" type="line"/>
      <point x="116.24242424242425" y="1480.0" type="line"/>
      <point x="6.8939393939393945" y="1480.0" type="line"/>
      <point x="598.2121212121212" y="640.6363636363636" type="line"/>
      <point x="574.969696969697" y="710.9848484848485" type="line"/>
    </contour>
    <contour>
      <point x="245.57575757575756" y="314.5151515151515" type="line"/>
      <point x="995.8181818181818" y="314.5151515151515" type="line"/>
      <point x="995.8181818181818" y="389.54545454545456" type="line"/>
      <point x="245.57575757575756" y="389.54545454545456" type="line"/>
    </contour>
    <contour>
      <point x="245.57575757575756" y="658.4545454545455" type="line"/>
      <point x="995.8181818181818" y="658.4545454545455" type="line"/>
      <point x="995.8181818181818" y="733.4848484848485" type="line"/>
      <point x="245.57575757575756" y="733.4848484848485" type="line"/>
    </contour>
  </outline>
</glyph>
<glyph name="brokenbar" format="2">
  <advance width="484.0"/>
  <unicode hex="00A6"/>
  <outline>
    <contour>
      <point x="197.93939393939394" y="836.0" type="line"/>
      <point x="286.06060606060606" y="836.0" type="line"/>
      <point x="286.06060606060606" y="1616.0" type="line"/>
      <point x="197.93939393939394" y="1616.0" type="line"/>
    </contour>
    <contour>
      <point x="197.93939393939394" y="-440.0" type="line"/>
      <point x="286.06060606060606" y="-440.0" type="line"/>
      <point x="286.06060606060606" y="340.0" type="line"/>
      <point x="197.93939393939394" y="340.0" type="line"/>
    </contour>
  </outline>
</glyph>
<glyph name="section" format="2">
  <advance width="1046.3030303030303"/>
  <unicode hex="00A7"/>
  <outline>
    <contour>
      <point x="462.5151515151515" y="-18.242424242424242" type="curve" smooth="yes"/>
      <point x="745.7272727272727" y="-18.242424242424242"/>
      <point x="879.4848484848485" y="99.33333333333333"/>
      <point x="879.4848484848485" y="285.030303030303" type="curve" smooth="yes"/>
      <point x="879.4848484848485" y="435.2121212121212"/>
      <point x="798.969696969697" y="522.060606060606"/>
      <point x="591.8939393939394" y="563.5454545454545" type="curve" smooth="yes"/>
      <point x="436.3636363636364" y="593.7575757575758" type="line" smooth="yes"/>
      <point x="279.969696969697" y="625.0454545454545"/>
      <point x="229.4090909090909" y="699.9848484848485"/>
      <point x="229.4090909090909" y="801.3030303030303" type="curve" smooth="yes"/>
      <point x="229.4090909090909" y="873.4242424242424"/>
      <point x="262.1060606060606" y="935.3636363636364"/>
      <point x="333.0151515151515" y="977.1969696969697" type="curve"/>
      <point x="271.3030303030303" y="1025.8484848484848" type="line"/>
      <point x="188.43939393939394" y="971.8333333333334"/>
      <point x="144.06060606060606" y="891.3484848484849"/>
      <point x="144.06060606060606" y="797.2878787878788" type="curve" smooth="yes"/>
      <point x="144.06060606060606" y="647.6818181818181"/>
      <point x="223.62121212121212" y="552.2121212121212"/>
      <point x="423.07575757575756" y="511.8181818181818" type="curve" smooth="yes"/>
      <point x="578.5151515151515" y="481.6666666666667" type="line" smooth="yes"/>
      <point x="734.1212121212121" y="450.74242424242425"/>
      <point x="788.2272727272727" y="392.6212121212121"/>
      <point x="788.2272727272727" y="276.90909090909093" type="curve" smooth="yes"/>
      <point x="788.2272727272727" y="140.75757575757575"/>
      <point x="695.6363636363636" y="61.21212121212121"/>
      <point x="466.3181818181818" y="61.21212121212121" type="curve" smooth="yes"/>
      <point x="366.0909090909091" y="61.21212121212121"/>
      <point x="277.27272727272725" y="71.92424242424242"/>
      <point x="161.93939393939394" y="105.68181818181819" type="curve"/>
      <point x="161.93939393939394" y="24.348484848484848" type="line"/>
      <point x="257.42424242424244" y="-5.590909090909091"/>
      <point x="353.5" y="-18.242424242424242"/>
    </contour>
    <contour>
      <point x="781.2727272727273" y="455.77272727272725" type="line"/>
      <point x="857.7575757575758" y="509.43939393939394"/>
      <point x="902.2424242424242" y="586.8787878787879"/>
      <point x="902.2424242424242" y="685.1818181818181" type="curve" smooth="yes"/>
      <point x="902.2424242424242" y="836.7878787878788"/>
      <point x="821.7272727272727" y="925.8787878787879"/>
      <point x="614.9848484848485" y="967.1212121212121" type="curve" smooth="yes"/>
      <point x="458.6363636363636" y="997.1515151515151" type="line" smooth="yes"/>
      <point x="303.969696969697" y="1028.0757575757575"/>
      <point x="257.1666666666667" y="1100.1666666666667"/>
      <point x="257.1666666666667" y="1200.7272727272727" type="curve" smooth="yes"/>
      <point x="257.1666666666667" y="1323.9545454545455"/>
      <point x="343.04545454545456" y="1416.6666666666667"/>
      <point x="583.469696969697" y="1416.6666666666667" type="curve" smooth="yes"/>
      <point x="671.3333333333333" y="1416.6666666666667"/>
      <point x="743.2272727272727" y="1407.6666666666667"/>
      <point x="840.3030303030303" y="1381.1515151515152" type="curve"/>
      <point x="840.3030303030303" y="1462.4848484848485" type="line"/>
      <point x="756.0909090909091" y="1485.121212121212"/>
      <point x="672.7878787878788" y="1496.121212121212"/>
      <point x="581.3181818181819" y="1496.121212121212" type="curve" smooth="yes"/>
      <point x="291.2121212121212" y="1496.121212121212"/>
      <point x="165.9090909090909" y="1367.909090909091"/>
      <point x="165.9090909090909" y="1196.8333333333333" type="curve" smooth="yes"/>
      <point x="165.9090909090909" y="1049.2575757575758"/>
      <point x="245.34848484848484" y="955.8787878787879"/>
      <point x="446.1666666666667" y="915.2727272727273" type="curve" smooth="yes"/>
      <point x="601.6060606060606" y="885.060606060606" type="line" smooth="yes"/>
      <point x="758.939393939394" y="853.7727272727273"/>
      <point x="816.8939393939394" y="792.8030303030303"/>
      <point x="816.8939393939394" y="676.4848484848485" type="curve" smooth="yes"/>
      <point x="816.8939393939394" y="598.5909090909091"/>
      <point x="783.6515151515151" y="539.3030303030303"/>
      <point x="714.1666666666666" y="500.57575757575756" type="curve"/>
    </contour>
  </outline>
</glyph>
<glyph name="dieresis" format="2">
  <advance width="1106.060606060606"/>
  <unicode hex="00A8"/>
  <anchor x="553.030303030303" y="1200.0" name="_top"/>
  <anchor x="553.030303030303" y="1559.6363636363637" name="top"/>
  <outline>
    <contour>
      <point x="776.3636363636364" y="1351.060606060606" type="curve" smooth="yes"/>
      <point x="819.4242424242425" y="1351.060606060606"/>
      <point x="848.3333333333333" y="1378.2727272727273"/>
      <point x="848.3333333333333" y="1421.7575757575758" type="curve" smooth="yes"/>
      <point x="848.3333333333333" y="1465.2424242424242"/>
      <point x="819.4242424242425" y="1494.3333333333333"/>
      <point x="776.3636363636364" y="1494.3333333333333" type="curve" smooth="yes"/>
      <point x="733.3030303030303" y="1494.3333333333333"/>
      <point x="704.3939393939394" y="1465.2424242424242"/>
      <point x="704.3939393939394" y="1421.7575757575758" type="curve" smooth="yes"/>
      <point x="704.3939393939394" y="1378.2727272727273"/>
      <point x="733.3030303030303" y="1351.060606060606"/>
    </contour>
    <contour>
      <point x="329.6969696969697" y="1351.060606060606" type="curve" smooth="yes"/>
      <point x="372.75757575757575" y="1351.060606060606"/>
      <point x="401.66666666666663" y="1378.2727272727273"/>
      <point x="401.66666666666663" y="1421.7575757575758" type="curve" smooth="yes"/>
      <point x="401.66666666666663" y="1465.2424242424242"/>
      <point x="372.75757575757575" y="1494.3333333333333"/>
      <point x="329.6969696969697" y="1494.3333333333333" type="curve" smooth="yes"/>
      <point x="286.6363636363636" y="1494.3333333333333"/>
      <point x="257.72727272727275" y="1465.2424242424242"/>
      <point x="257.72727272727275" y="1421.7575757575758" type="curve" smooth="yes"/>
      <point x="257.72727272727275" y="1378.2727272727273"/>
      <point x="286.6363636363636" y="1351.060606060606"/>
    </contour>
  </outline>
</glyph>
<glyph name="copyright" format="2">
  <advance width="1738.4848484848485"/>
  <unicode hex="00A9"/>
  <outline>
    <contour>
      <point x="869.2424242424242" y="-22.0" type="curve" smooth="yes"/>
      <point x="1315.6060606060605" y="-22.0"/>
      <point x="1613.6060606060605" y="282.0"/>
      <point x="1613.6060606060605" y="740.0" type="curve" smooth="yes"/>
      <point x="1613.6060606060605" y="1198.0"/>
      <point x="1315.6060606060605" y="1502.0"/>
      <point x="869.2424242424242" y="1502.0" type="curve" smooth="yes"/>
      <point x="422.8787878787879" y="1502.0"/>
      <point x="124.87878787878788" y="1198.0"/>
      <point x="124.87878787878788" y="740.0" type="curve" smooth="yes"/>
      <point x="124.87878787878788" y="282.0"/>
      <point x="422.8787878787879" y="-22.0"/>
    </contour>
    <contour>
      <point x="905.4242424242424" y="324.0" type="curve" smooth="yes"/>
      <point x="983.6666666666666" y="324.0"/>
      <point x="1055.6666666666667" y="336.0"/>
      <point x="1122.5757575757575" y="365.27272727272725" type="curve"/>
      <point x="1122.5757575757575" y="442.42424242424244" type="line"/>
      <point x="1040.8181818181818" y="411.27272727272725"/>
      <point x="970.6363636363636" y="401.5151515151515"/>
      <point x="912.7575757575758" y="401.5151515151515" type="curve" smooth="yes"/>
      <point x="721.8484848484849" y="401.5151515151515"/>
      <point x="603.4848484848485" y="508.1212121212121"/>
      <point x="603.4848484848485" y="737.6363636363636" type="curve" smooth="yes"/>
      <point x="603.4848484848485" y="961.6363636363636"/>
      <point x="721.4848484848485" y="1066.4848484848485"/>
      <point x="934.1515151515151" y="1066.4848484848485" type="curve" smooth="yes"/>
      <point x="1003.3030303030303" y="1066.4848484848485"/>
      <point x="1060.6969696969697" y="1056.7272727272727"/>
      <point x="1122.5757575757575" y="1039.2121212121212" type="curve"/>
      <point x="1122.5757575757575" y="1116.3636363636363" type="line"/>
      <point x="1059.060606060606" y="1136.0"/>
      <point x="998.939393939394" y="1144.0"/>
      <point x="930.5757575757576" y="1144.0" type="curve" smooth="yes"/>
      <point x="665.6060606060606" y="1144.0"/>
      <point x="517.6666666666666" y="995.7575757575758"/>
      <point x="517.6666666666666" y="733.8787878787879" type="curve" smooth="yes"/>
      <point x="517.6666666666666" y="462.72727272727275"/>
      <point x="672.8787878787879" y="324.0"/>
    </contour>
    <contour>
      <point x="869.2424242424242" y="54.72727272727273" type="curve" smooth="yes"/>
      <point x="467.3636363636364" y="54.72727272727273"/>
      <point x="202.21212121212122" y="326.72727272727275"/>
      <point x="202.21212121212122" y="740.0" type="curve" smooth="yes"/>
      <point x="202.21212121212122" y="1153.2727272727273"/>
      <point x="467.3636363636364" y="1425.2727272727273"/>
      <point x="869.2424242424242" y="1425.2727272727273" type="curve" smooth="yes"/>
      <point x="1271.121212121212" y="1425.2727272727273"/>
      <point x="1536.2727272727273" y="1153.2727272727273"/>
      <point x="1536.2727272727273" y="740.0" type="curve" smooth="yes"/>
      <point x="1536.2727272727273" y="326.72727272727275"/>
      <point x="1271.121212121212" y="54.72727272727273"/>
    </contour>
  </outline>
</glyph>
<glyph name="ordfeminine" format="2">
  <advance width="894.3030303030303"/>
  <unicode hex="00AA"/>
  <outline>
    <contour>
      <point x="375.06060606060606" y="595.7575757575758" type="curve" smooth="yes"/>
      <point x="492.22727272727275" y="595.7575757575758"/>
      <point x="603.3636363636364" y="641.5757575757576"/>
      <point x="670.5151515151515" y="712.3939393939394" type="curve"/>
      <point x="677.2121212121212" y="712.3939393939394" type="line"/>
      <point x="684.6060606060606" y="610.0" type="line"/>
      <point x="757.969696969697" y="610.0" type="line"/>
      <point x="757.969696969697" y="1191.1969696969697" type="line" smooth="yes"/>
      <point x="757.969696969697" y="1420.0"/>
      <point x="636.9090909090909" y="1492.6060606060605"/>
      <point x="414.5909090909091" y="1492.6060606060605" type="curve" smooth="yes"/>
      <point x="326.030303030303" y="1492.6060606060605"/>
      <point x="226.56060606060606" y="1478.7272727272727"/>
      <point x="147.37878787878788" y="1450.2878787878788" type="curve"/>
      <point x="147.37878787878788" y="1373.1060606060605" type="line"/>
      <point x="240.6818181818182" y="1404.439393939394"/>
      <point x="333.3181818181818" y="1416.969696969697"/>
      <point x="407.4848484848485" y="1416.969696969697" type="curve" smooth="yes"/>
      <point x="579.7424242424242" y="1416.969696969697"/>
      <point x="672.969696969697" y="1369.878787878788"/>
      <point x="672.969696969697" y="1195.8939393939395" type="curve" smooth="yes"/>
      <point x="672.969696969697" y="792.8787878787879" type="line"/>
      <point x="594.5757575757576" y="708.5"/>
      <point x="491.5151515151515" y="669.4242424242424"/>
      <point x="389.43939393939394" y="669.4242424242424" type="curve" smooth="yes"/>
      <point x="247.3939393939394" y="669.4242424242424"/>
      <point x="180.96969696969697" y="730.9090909090909"/>
      <point x="180.96969696969697" y="836.9242424242424" type="curve" smooth="yes"/>
      <point x="180.96969696969697" y="938.2121212121212"/>
      <point x="248.5909090909091" y="994.469696969697"/>
      <point x="422.0" y="1013.3787878787879" type="curve" smooth="yes"/>
      <point x="712.8939393939394" y="1044.6818181818182" type="line"/>
      <point x="709.5454545454545" y="1110.5454545454545" type="line"/>
      <point x="416.5" y="1079.121212121212" type="line" smooth="yes"/>
      <point x="187.9848484848485" y="1055.469696969697"/>
      <point x="92.60606060606061" y="974.6818181818181"/>
      <point x="92.60606060606061" y="829.439393939394" type="curve" smooth="yes"/>
      <point x="92.60606060606061" y="684.9242424242424"/>
      <point x="198.04545454545456" y="595.7575757575758"/>
    </contour>
  </outline>
</glyph>
<glyph name="guillemetleft" format="2">
  <advance width="998.530303030303"/>
  <unicode hex="00AB"/>
  <outline>
    <contour>
      <point x="421.8484848484849" y="139.3939393939394" type="line"/>
      <point x="521.7575757575758" y="139.3939393939394" type="line"/>
      <point x="232.78787878787878" y="560.6060606060606" type="line"/>
      <point x="521.7575757575758" y="981.8181818181819" type="line"/>
      <point x="421.8484848484849" y="981.8181818181819" type="line"/>
      <point x="132.87878787878788" y="560.6060606060606" type="line"/>
    </contour>
    <contour>
      <point x="805.7424242424242" y="139.3939393939394" type="line"/>
      <point x="905.6515151515151" y="139.3939393939394" type="line"/>
      <point x="616.6818181818182" y="560.6060606060606" type="line"/>
      <point x="905.6515151515151" y="981.8181818181819" type="line"/>
      <point x="805.7424242424242" y="981.8181818181819" type="line"/>
      <point x="516.7727272727273" y="560.6060606060606" type="line"/>
    </contour>
  </outline>
</glyph>
<glyph name="logicalnot" format="2">
  <advance width="1380.8181818181818"/>
  <unicode hex="00AC"/>
  <outline>
    <contour>
      <point x="1133.121212121212" y="192.78787878787878" type="line"/>
      <point x="1217.909090909091" y="192.78787878787878" type="line"/>
      <point x="1217.909090909091" y="800.060606060606" type="line"/>
      <point x="174.04545454545456" y="800.060606060606" type="line"/>
      <point x="174.04545454545456" y="719.939393939394" type="line"/>
      <point x="1133.121212121212" y="719.939393939394" type="line"/>
    </contour>
  </outline>
</glyph>
<glyph name="softhyphen" format="2">
  <advance width="870.7575757575758"/>
  <unicode hex="00AD"/>
  <outline>
    <contour>
      <point x="174.04545454545456" y="519.7272727272727" type="line"/>
      <point x="696.7121212121212" y="519.7272727272727" type="line"/>
      <point x="696.7121212121212" y="601.4848484848485" type="line"/>
      <point x="174.04545454545456" y="601.4848484848485" type="line"/>
    </contour>
  </outline>
</glyph>
<glyph name="registered" format="2">
  <advance width="1556.7272727272727"/>
  <unicode hex="00AE"/>
  <outline>
    <contour>
      <point x="778.3636363636364" y="268.0" type="curve" smooth="yes"/>
      <point x="1140.3636363636363" y="268.0"/>
      <point x="1388.3636363636363" y="518.0"/>
      <point x="1388.3636363636363" y="882.0" type="curve" smooth="yes"/>
      <point x="1388.3636363636363" y="1246.0"/>
      <point x="1140.3636363636363" y="1498.0"/>
      <point x="778.3636363636364" y="1498.0" type="curve" smooth="yes"/>
      <point x="416.3636363636364" y="1498.0"/>
      <point x="168.36363636363637" y="1246.0"/>
      <point x="168.36363636363637" y="882.0" type="curve" smooth="yes"/>
      <point x="168.36363636363637" y="518.0"/>
      <point x="416.3636363636364" y="268.0"/>
    </contour>
    <contour>
      <point x="952.0" y="600.0" type="line"/>
      <point x="1034.4242424242425" y="600.0" type="line"/>
      <point x="859.8787878787879" y="857.5757575757576" type="line"/>
      <point x="793.5757575757576" y="831.5757575757576" type="line"/>
    </contour>
    <contour>
      <point x="778.3636363636364" y="339.45454545454544" type="curve" smooth="yes"/>
      <point x="454.0" y="339.45454545454544"/>
      <point x="242.42424242424244" y="553.2727272727273"/>
      <point x="242.42424242424244" y="882.0" type="curve" smooth="yes"/>
      <point x="242.42424242424244" y="1210.8484848484848"/>
      <point x="454.0" y="1426.5454545454545"/>
      <point x="778.3636363636364" y="1426.5454545454545" type="curve" smooth="yes"/>
      <point x="1102.7272727272727" y="1426.5454545454545"/>
      <point x="1314.3030303030303" y="1210.8484848484848"/>
      <point x="1314.3030303030303" y="882.0" type="curve" smooth="yes"/>
      <point x="1314.3030303030303" y="553.2727272727273"/>
      <point x="1102.7272727272727" y="339.45454545454544"/>
    </contour>
    <contour>
      <point x="569.5151515151515" y="600.0" type="line"/>
      <point x="641.5757575757576" y="600.0" type="line"/>
      <point x="641.939393939394" y="823.5757575757576" type="line"/>
      <point x="764.7272727272727" y="823.5757575757576" type="line" smooth="yes"/>
      <point x="927.8181818181819" y="823.5757575757576"/>
      <point x="1009.939393939394" y="889.4545454545455"/>
      <point x="1009.939393939394" y="1006.7878787878788" type="curve" smooth="yes"/>
      <point x="1009.939393939394" y="1124.121212121212"/>
      <point x="925.8181818181819" y="1192.0"/>
      <point x="764.7272727272727" y="1192.0" type="curve" smooth="yes"/>
      <point x="569.5151515151515" y="1192.0" type="line"/>
    </contour>
    <contour>
      <point x="641.939393939394" y="889.8181818181819" type="line"/>
      <point x="641.939393939394" y="1125.7575757575758" type="line"/>
      <point x="777.5757575757576" y="1125.7575757575758" type="line" smooth="yes"/>
      <point x="885.6969696969697" y="1125.7575757575758"/>
      <point x="938.1212121212121" y="1086.7272727272727"/>
      <point x="938.1212121212121" y="1006.7878787878788" type="curve" smooth="yes"/>
      <point x="938.1212121212121" y="926.8484848484849"/>
      <point x="887.6969696969697" y="889.8181818181819"/>
      <point x="777.5757575757576" y="889.8181818181819" type="curve" smooth="yes"/>
    </contour>
  </outline>
</glyph>
<glyph name="degree" format="2">
  <advance width="1018.4848484848485"/>
  <unicode hex="00B0"/>
  <outline>
    <contour>
      <point x="509.24242424242425" y="815.3333333333334" type="curve" smooth="yes"/>
      <point x="708.3030303030303" y="815.3333333333334"/>
      <point x="850.1212121212121" y="958.7878787878788"/>
      <point x="850.1212121212121" y="1155.8484848484848" type="curve" smooth="yes"/>
      <point x="850.1212121212121" y="1352.909090909091"/>
      <point x="708.3030303030303" y="1496.2424242424242"/>
      <point x="509.24242424242425" y="1496.2424242424242" type="curve" smooth="yes"/>
      <point x="310.1818181818182" y="1496.2424242424242"/>
      <point x="168.36363636363637" y="1352.909090909091"/>
      <point x="168.36363636363637" y="1155.8484848484848" type="curve" smooth="yes"/>
      <point x="168.36363636363637" y="958.7878787878788"/>
      <point x="310.1818181818182" y="815.3333333333334"/>
    </contour>
    <contour>
      <point x="509.24242424242425" y="890.1515151515151" type="curve" smooth="yes"/>
      <point x="355.469696969697" y="890.1515151515151"/>
      <point x="246.5" y="993.2424242424242"/>
      <point x="246.5" y="1155.8484848484848" type="curve" smooth="yes"/>
      <point x="246.5" y="1318.5454545454545"/>
      <point x="355.5909090909091" y="1421.4242424242425"/>
      <point x="509.24242424242425" y="1421.4242424242425" type="curve" smooth="yes"/>
      <point x="662.8939393939394" y="1421.4242424242425"/>
      <point x="771.9848484848485" y="1318.5454545454545"/>
      <point x="771.9848484848485" y="1155.8484848484848" type="curve" smooth="yes"/>
      <point x="771.9848484848485" y="993.2424242424242"/>
      <point x="663.0151515151515" y="890.1515151515151"/>
    </contour>
  </outline>
</glyph>
<glyph name="plusminus" format="2">
  <advance width="1089.3030303030303"/>
  <unicode hex="00B1"/>
  <outline>
    <contour>
      <point x="502.25757575757575" y="321.3333333333333" type="line"/>
      <point x="587.0454545454545" y="321.3333333333333" type="line"/>
      <point x="587.0454545454545" y="666.3636363636364" type="line"/>
      <point x="915.2575757575758" y="666.3636363636364" type="line"/>
      <point x="915.2575757575758" y="746.4848484848485" type="line"/>
      <point x="587.0454545454545" y="746.4848484848485" type="line"/>
      <point x="587.0454545454545" y="1091.5151515151515" type="line"/>
      <point x="502.25757575757575" y="1091.5151515151515" type="line"/>
      <point x="502.25757575757575" y="746.4848484848485" type="line"/>
      <point x="174.04545454545456" y="746.4848484848485" type="line"/>
      <point x="174.04545454545456" y="666.3636363636364" type="line"/>
      <point x="502.25757575757575" y="666.3636363636364" type="line"/>
    </contour>
    <contour>
      <point x="174.04545454545456" y="0.030303030303030304" type="line"/>
      <point x="915.2575757575758" y="0.030303030303030304" type="line"/>
      <point x="915.2575757575758" y="80.15151515151516" type="line"/>
      <point x="174.04545454545456" y="80.15151515151516" type="line"/>
    </contour>
  </outline>
</glyph>
<glyph name="twosuperior" format="2">
  <advance width="792.9848484848485"/>
  <unicode hex="00B2"/>
  <outline>
    <contour>
      <point x="93.60606060606061" y="-136.0" type="line"/>
      <point x="711.6818181818182" y="-136.0" type="line"/>
      <point x="711.6818181818182" y="-61.42424242424242" type="line"/>
      <point x="182.04545454545456" y="-61.42424242424242" type="line"/>
      <point x="188.9848484848485" y="-86.77272727272728" type="line"/>
      <point x="475.75757575757575" y="254.13636363636363" type="line" smooth="yes"/>
      <point x="604.8030303030303" y="407.2878787878788"/>
      <point x="653.1515151515151" y="498.43939393939394"/>
      <point x="653.6212121212121" y="611.2424242424242" type="curve" smooth="yes"/>
      <point x="654.0909090909091" y="794.060606060606"/>
      <point x="537.030303030303" y="876.1212121212121"/>
      <point x="331.0" y="876.1212121212121" type="curve" smooth="yes"/>
      <point x="235.74242424242425" y="876.1212121212121"/>
      <point x="147.45454545454544" y="862.5909090909091"/>
      <point x="81.57575757575758" y="837.1515151515151" type="curve"/>
      <point x="81.57575757575758" y="760.9090909090909" type="line"/>
      <point x="155.28787878787878" y="788.0454545454545"/>
      <point x="235.62121212121212" y="802.0"/>
      <point x="325.5909090909091" y="802.0" type="curve" smooth="yes"/>
      <point x="487.1818181818182" y="802.0"/>
      <point x="570.7121212121212" y="741.939393939394"/>
      <point x="570.7121212121212" y="604.2424242424242" type="curve" smooth="yes"/>
      <point x="570.7121212121212" y="514.2424242424242"/>
      <point x="526.1515151515151" y="430.54545454545456"/>
      <point x="411.6060606060606" y="294.59090909090907" type="curve" smooth="yes"/>
      <point x="93.60606060606061" y="-89.16666666666667" type="line"/>
    </contour>
  </outline>
</glyph>
<glyph name="paragraph" format="2">
  <advance width="1261.2121212121212"/>
  <unicode hex="00B6"/>
  <outline>
    <contour>
      <point x="767.8787878787879" y="0.0" type="line"/>
      <point x="850.2727272727273" y="0.0" type="line"/>
      <point x="850.2727272727273" y="1480.0" type="line"/>
      <point x="764.0454545454545" y="1488.3333333333333"/>
      <point x="663.1212121212121" y="1494.3636363636363"/>
      <point x="558.1212121212121" y="1494.3636363636363" type="curve" smooth="yes"/>
      <point x="261.72727272727275" y="1494.3636363636363"/>
      <point x="100.53030303030303" y="1343.621212121212"/>
      <point x="100.53030303030303" y="1004.6212121212121" type="curve" smooth="yes"/>
      <point x="100.53030303030303" y="686.4090909090909"/>
      <point x="247.45454545454544" y="510.2121212121212"/>
      <point x="592.8181818181818" y="510.2121212121212" type="curve" smooth="yes"/>
      <point x="657.6818181818181" y="510.2121212121212"/>
      <point x="710.1818181818182" y="513.5909090909091"/>
      <point x="767.8787878787879" y="521.5757575757576" type="curve"/>
    </contour>
    <contour>
      <point x="980.8787878787879" y="0.0" type="line"/>
      <point x="1063.2727272727273" y="0.0" type="line"/>
      <point x="1063.2727272727273" y="1480.0" type="line"/>
      <point x="980.8787878787879" y="1480.0" type="line"/>
    </contour>
  </outline>
</glyph>
<glyph name="cedilla" format="2">
  <advance width="1106.060606060606"/>
  <unicode hex="00B8"/>
  <anchor x="553.030303030303" y="0.0" name="_bottom"/>
  <outline>
    <contour>
      <point x="561.5" y="-403.6363636363636" type="curve" smooth="yes"/>
      <point x="680.0" y="-403.6363636363636"/>
      <point x="749.2575757575758" y="-350.24242424242425"/>
      <point x="749.2575757575758" y="-257.0151515151515" type="curve" smooth="yes"/>
      <point x="749.2575757575758" y="-162.78787878787878"/>
      <point x="682.0757575757575" y="-109.77272727272728"/>
      <point x="563.9848484848485" y="-109.77272727272728" type="curve"/>
      <point x="588.0" y="-140.78787878787878" type="line"/>
      <point x="588.0" y="20.0" type="line"/>
      <point x="523.3939393939394" y="20.0" type="line"/>
      <point x="523.3939393939394" y="-165.12121212121212" type="line"/>
      <point x="559.7272727272727" y="-165.12121212121212" type="line" smooth="yes"/>
      <point x="641.8333333333334" y="-165.12121212121212"/>
      <point x="683.8181818181818" y="-192.95454545454547"/>
      <point x="683.8181818181818" y="-255.77272727272728" type="curve" smooth="yes"/>
      <point x="683.8181818181818" y="-317.2121212121212"/>
      <point x="642.8333333333334" y="-345.42424242424244"/>
      <point x="561.5757575757575" y="-345.42424242424244" type="curve" smooth="yes"/>
      <point x="506.969696969697" y="-345.42424242424244"/>
      <point x="448.3484848484849" y="-334.5151515151515"/>
      <point x="387.42424242424244" y="-303.74242424242425" type="curve"/>
      <point x="387.42424242424244" y="-365.6212121212121" type="line"/>
      <point x="432.1818181818182" y="-390.25757575757575"/>
      <point x="502.0" y="-403.6363636363636"/>
    </contour>
  </outline>
</glyph>
<glyph name="onesuperior" format="2">
  <advance width="792.9848484848485"/>
  <unicode hex="00B9"/>
  <outline>
    <contour>
      <point x="399.7121212121212" y="-115.0909090909091" type="line"/>
      <point x="481.1363636363636" y="-115.0909090909091" type="line"/>
      <point x="481.1363636363636" y="868.0" type="line"/>
      <point x="427.1212121212121" y="868.0" type="line"/>
      <point x="143.0909090909091" y="662.7727272727273" type="line"/>
      <point x="143.0909090909091" y="576.469696969697" type="line"/>
      <point x="427.1212121212121" y="781.6969696969697" type="line"/>
      <point x="399.7121212121212" y="800.469696969697" type="line"/>
    </contour>
    <contour>
      <point x="145.22727272727272" y="-136.0" type="line"/>
      <point x="722.6515151515151" y="-136.0" type="line"/>
      <point x="722.6515151515151" y="-61.42424242424242" type="line"/>
      <point x="145.22727272727272" y="-61.42424242424242" type="line"/>
    </contour>
  </outline>
</glyph>
<glyph name="ordmasculine" format="2">
  <advance width="983.939393939394"/>
  <unicode hex="00BA"/>
  <outline>
    <contour>
      <point x="491.93939393939394" y="595.7575757575758" type="curve" smooth="yes"/>
      <point x="724.8333333333334" y="595.7575757575758"/>
      <point x="884.4848484848485" y="734.5151515151515"/>
      <point x="884.4848484848485" y="1046.1515151515152" type="curve" smooth="yes"/>
      <point x="884.4848484848485" y="1357.7878787878788"/>
      <point x="724.8333333333334" y="1492.6060606060605"/>
      <point x="491.93939393939394" y="1492.6060606060605" type="curve" smooth="yes"/>
      <point x="259.04545454545456" y="1492.6060606060605"/>
      <point x="99.45454545454545" y="1357.939393939394"/>
      <point x="99.45454545454545" y="1046.1515151515152" type="curve" smooth="yes"/>
      <point x="99.45454545454545" y="734.3636363636364"/>
      <point x="259.04545454545456" y="595.7575757575758"/>
    </contour>
    <contour>
      <point x="491.93939393939394" y="673.530303030303" type="curve" smooth="yes"/>
      <point x="308.1666666666667" y="673.530303030303"/>
      <point x="188.12121212121212" y="774.4545454545455"/>
      <point x="188.12121212121212" y="1046.1515151515152" type="curve" smooth="yes"/>
      <point x="188.12121212121212" y="1317.878787878788"/>
      <point x="308.1666666666667" y="1414.8333333333333"/>
      <point x="491.93939393939394" y="1414.8333333333333" type="curve" smooth="yes"/>
      <point x="675.8939393939394" y="1414.8333333333333"/>
      <point x="795.8181818181818" y="1317.878787878788"/>
      <point x="795.8181818181818" y="1046.1515151515152" type="curve" smooth="yes"/>
      <point x="795.8181818181818" y="774.4545454545455"/>
      <point x="675.8939393939394" y="673.530303030303"/>
    </contour>
  </outline>
</glyph>
<glyph name="guillemetright" format="2">
  <advance width="998.530303030303"/>
  <unicode hex="00BB"/>
  <outline>
    <contour>
      <point x="92.87878787878788" y="139.3939393939394" type="line"/>
      <point x="192.78787878787878" y="139.3939393939394" type="line"/>
      <point x="481.75757575757575" y="560.6060606060606" type="line"/>
      <point x="192.78787878787878" y="981.8181818181819" type="line"/>
      <point x="92.87878787878788" y="981.8181818181819" type="line"/>
      <point x="381.8484848484849" y="560.6060606060606" type="line"/>
    </contour>
    <contour>
      <point x="476.77272727272725" y="139.3939393939394" type="line"/>
      <point x="576.6818181818182" y="139.3939393939394" type="line"/>
      <point x="865.6515151515151" y="560.6060606060606" type="line"/>
      <point x="576.6818181818182" y="981.8181818181819" type="line"/>
      <point x="476.77272727272725" y="981.8181818181819" type="line"/>
      <point x="765.7424242424242" y="560.6060606060606" type="line"/>
    </contour>
  </outline>
</glyph>
<glyph name="onequarter" format="2">
  <advance width="1842.469696969697"/>
  <unicode hex="00BC"/>
  <outline>
    <contour>
      <point x="399.7121212121212" y="636.9090909090909" type="line"/>
      <point x="481.1363636363636" y="636.9090909090909" type="line"/>
      <point x="481.1363636363636" y="1620.0" type="line"/>
      <point x="427.1212121212121" y="1620.0" type="line"/>
      <point x="143.0909090909091" y="1414.7727272727273" type="line"/>
      <point x="143.0909090909091" y="1328.469696969697" type="line"/>
      <point x="427.1212121212121" y="1533.6969696969697" type="line"/>
      <point x="399.7121212121212" y="1552.469696969697" type="line"/>
    </contour>
    <contour>
      <point x="145.22727272727272" y="616.0" type="line"/>
      <point x="722.6515151515151" y="616.0" type="line"/>
      <point x="722.6515151515151" y="690.5757575757576" type="line"/>
      <point x="145.22727272727272" y="690.5757575757576" type="line"/>
    </contour>
    <contour>
      <point x="467.45454545454544" y="-136.0" type="line"/>
      <point x="551.6060606060606" y="-136.0" type="line"/>
      <point x="1375.0151515151515" y="1616.0" type="line"/>
      <point x="1290.8636363636365" y="1616.0" type="line"/>
    </contour>
    <contour>
      <point x="1081.2878787878788" y="110.87878787878788" type="line"/>
      <point x="1817.2727272727273" y="110.87878787878788" type="line"/>
      <point x="1817.2727272727273" y="182.8181818181818" type="line"/>
      <point x="1150.0757575757575" y="182.8181818181818" type="line"/>
      <point x="1164.560606060606" y="158.0151515151515" type="line"/>
      <point x="1566.8030303030303" y="864.0" type="line"/>
      <point x="1483.6515151515152" y="864.0" type="line"/>
      <point x="1081.2878787878788" y="159.42424242424244" type="line"/>
    </contour>
    <contour>
      <point x="1589.6363636363635" y="-136.0" type="line"/>
      <point x="1666.3636363636365" y="-136.0" type="line"/>
      <point x="1666.3636363636365" y="526.0" type="line"/>
      <point x="1604.2121212121212" y="526.0" type="line"/>
      <point x="1589.6363636363635" y="182.8181818181818" type="line"/>
    </contour>
  </outline>
</glyph>
<glyph name="onehalf" format="2">
  <advance width="1842.469696969697"/>
  <unicode hex="00BD"/>
  <outline>
    <contour>
      <point x="399.7121212121212" y="636.9090909090909" type="line"/>
      <point x="481.1363636363636" y="636.9090909090909" type="line"/>
      <point x="481.1363636363636" y="1620.0" type="line"/>
      <point x="427.1212121212121" y="1620.0" type="line"/>
      <point x="143.0909090909091" y="1414.7727272727273" type="line"/>
      <point x="143.0909090909091" y="1328.469696969697" type="line"/>
      <point x="427.1212121212121" y="1533.6969696969697" type="line"/>
      <point x="399.7121212121212" y="1552.469696969697" type="line"/>
    </contour>
    <contour>
      <point x="145.22727272727272" y="616.0" type="line"/>
      <point x="722.6515151515151" y="616.0" type="line"/>
      <point x="722.6515151515151" y="690.5757575757576" type="line"/>
      <point x="145.22727272727272" y="690.5757575757576" type="line"/>
    </contour>
    <contour>
      <point x="467.45454545454544" y="-136.0" type="line"/>
      <point x="551.6060606060606" y="-136.0" type="line"/>
      <point x="1375.0151515151515" y="1616.0" type="line"/>
      <point x="1290.8636363636365" y="1616.0" type="line"/>
    </contour>
    <contour>
      <point x="1143.090909090909" y="-136.0" type="line"/>
      <point x="1761.1666666666665" y="-136.0" type="line"/>
      <point x="1761.1666666666665" y="-61.42424242424242" type="line"/>
      <point x="1231.530303030303" y="-61.42424242424242" type="line"/>
      <point x="1238.469696969697" y="-86.77272727272728" type="line"/>
      <point x="1525.2424242424242" y="254.13636363636363" type="line" smooth="yes"/>
      <point x="1654.2878787878788" y="407.2878787878788"/>
      <point x="1702.6363636363635" y="498.43939393939394"/>
      <point x="1703.1060606060605" y="611.2424242424242" type="curve" smooth="yes"/>
      <point x="1703.5757575757575" y="794.060606060606"/>
      <point x="1586.5151515151515" y="876.1212121212121"/>
      <point x="1380.4848484848485" y="876.1212121212121" type="curve" smooth="yes"/>
      <point x="1285.2272727272727" y="876.1212121212121"/>
      <point x="1196.939393939394" y="862.5909090909091"/>
      <point x="1131.060606060606" y="837.1515151515151" type="curve"/>
      <point x="1131.060606060606" y="760.9090909090909" type="line"/>
      <point x="1204.7727272727273" y="788.0454545454545"/>
      <point x="1285.1060606060605" y="802.0"/>
      <point x="1375.0757575757575" y="802.0" type="curve" smooth="yes"/>
      <point x="1536.6666666666667" y="802.0"/>
      <point x="1620.1969696969697" y="741.939393939394"/>
      <point x="1620.1969696969697" y="604.2424242424242" type="curve" smooth="yes"/>
      <point x="1620.1969696969697" y="514.2424242424242"/>
      <point x="1575.6363636363635" y="430.54545454545456"/>
      <point x="1461.090909090909" y="294.59090909090907" type="curve" smooth="yes"/>
      <point x="1143.090909090909" y="-89.16666666666667" type="line"/>
    </contour>
  </outline>
</glyph>
<glyph name="questiondown" format="2">
  <advance width="912.8030303030303"/>
  <unicode hex="00BF"/>
  <outline>
    <contour>
      <point x="526.6515151515151" y="767.1515151515151" type="line"/>
      <point x="465.3484848484849" y="767.1515151515151" type="line"/>
      <point x="454.22727272727275" y="401.56060606060606" type="line"/>
      <point x="163.06060606060606" y="292.3333333333333"/>
      <point x="65.18181818181819" y="166.5"/>
      <point x="65.18181818181819" y="-41.22727272727273" type="curve" smooth="yes"/>
      <point x="65.18181818181819" y="-263.469696969697"/>
      <point x="228.9848484848485" y="-400.0"/>
      <point x="519.8181818181818" y="-400.0" type="curve" smooth="yes"/>
      <point x="642.3484848484849" y="-400.0"/>
      <point x="763.5909090909091" y="-381.1363636363636"/>
      <point x="867.530303030303" y="-345.7878787878788" type="curve"/>
      <point x="867.530303030303" y="-261.3939393939394" type="line"/>
      <point x="752.1363636363636" y="-300.6818181818182"/>
      <point x="638.060606060606" y="-317.54545454545456"/>
      <point x="524.2575757575758" y="-317.54545454545456" type="curve" smooth="yes"/>
      <point x="286.469696969697" y="-317.54545454545456"/>
      <point x="157.15151515151516" y="-213.42424242424244"/>
      <point x="157.15151515151516" y="-38.22727272727273" type="curve" smooth="yes"/>
      <point x="157.15151515151516" y="141.33333333333334"/>
      <point x="251.9848484848485" y="248.95454545454547"/>
      <point x="542.560606060606" y="345.2121212121212" type="curve"/>
    </contour>
    <contour>
      <point x="495.95454545454544" y="1091.8181818181818" type="curve" smooth="yes"/>
      <point x="449.8030303030303" y="1091.8181818181818"/>
      <point x="420.8030303030303" y="1061.6666666666667"/>
      <point x="420.8030303030303" y="1019.2727272727273" type="curve" smooth="yes"/>
      <point x="420.8030303030303" y="975.0"/>
      <point x="451.43939393939394" y="944.8484848484849"/>
      <point x="495.95454545454544" y="944.8484848484849" type="curve" smooth="yes"/>
      <point x="540.469696969697" y="944.8484848484849"/>
      <point x="571.1060606060606" y="974.7575757575758"/>
      <point x="571.1060606060606" y="1019.2727272727273" type="curve" smooth="yes"/>
      <point x="571.1060606060606" y="1061.909090909091"/>
      <point x="540.2272727272727" y="1091.8181818181818"/>
    </contour>
  </outline>
</glyph>
<glyph name="Atilde" format="2">
  <advance width="1381.030303030303"/>
  <unicode hex="00C3"/>
  <anchor x="691.3636363636364" y="1520.0" name="_top"/>
  <anchor x="691.4545454545455" y="0.0" name="bottom"/>
  <anchor x="1340.5" y="0.0" name="ogonek"/>
  <anchor x="691.3636363636364" y="1520.0" name="top"/>
  <outline>
    <contour>
      <point x="40.53030303030303" y="0.0" type="line"/>
      <point x="136.24242424242425" y="0.0" type="line"/>
      <point x="701.8787878787879" y="1430.878787878788" type="line"/>
      <point x="676.969696969697" y="1430.878787878788" type="line"/>
      <point x="1242.6666666666667" y="0.0" type="line"/>
      <point x="1340.5" y="0.0" type="line"/>
      <point x="751.0" y="1480.0" type="line"/>
      <point x="630.030303030303" y="1480.0" type="line"/>
    </contour>
    <contour>
      <point x="311.0909090909091" y="516.3939393939394" type="line"/>
      <point x="1069.7272727272727" y="516.3939393939394" type="line"/>
      <point x="1044.939393939394" y="599.3030303030303" type="line"/>
      <point x="335.969696969697" y="599.3030303030303" type="line"/>
    </contour>
    <contour>
      <point x="845.7272727272727" y="1690.7424242424242" type="curve" smooth="yes"/>
      <point x="922.0151515151515" y="1690.7424242424242"/>
      <point x="976.4545454545455" y="1711.8030303030303"/>
      <point x="1015.5" y="1752.090909090909" type="curve"/>
      <point x="1015.5" y="1829.590909090909" type="line"/>
      <point x="968.3636363636364" y="1781.7424242424242"/>
      <point x="918.5757575757575" y="1759.3030303030303"/>
      <point x="846.3333333333334" y="1759.3030303030303" type="curve" smooth="yes"/>
      <point x="746.939393939394" y="1759.3030303030303"/>
      <point x="657.2121212121212" y="1834.3636363636363"/>
      <point x="537.0" y="1834.3636363636363" type="curve" smooth="yes"/>
      <point x="460.71212121212125" y="1834.3636363636363"/>
      <point x="406.27272727272725" y="1813.1818181818182"/>
      <point x="367.22727272727275" y="1772.8939393939395" type="curve"/>
      <point x="367.22727272727275" y="1695.3939393939395" type="line"/>
      <point x="414.3636363636364" y="1743.2424242424242"/>
      <point x="464.1515151515151" y="1765.6818181818182"/>
      <point x="536.3939393939394" y="1765.6818181818182" type="curve" smooth="yes"/>
      <point x="635.7878787878788" y="1765.6818181818182"/>
      <point x="725.5151515151515" y="1690.7424242424242"/>
    </contour>
  </outline>
</glyph>
<glyph name="Adieresis" format="2">
  <advance width="1381.030303030303"/>
  <unicode hex="00C4"/>
  <anchor x="691.3636363636364" y="1520.0" name="_top"/>
  <anchor x="691.4545454545455" y="0.0" name="bottom"/>
  <anchor x="1340.5" y="0.0" name="ogonek"/>
  <anchor x="691.3636363636364" y="1520.0" name="top"/>
  <outline>
    <contour>
      <point x="40.53030303030303" y="0.0" type="line"/>
      <point x="136.24242424242425" y="0.0" type="line"/>
      <point x="701.8787878787879" y="1430.878787878788" type="line"/>
      <point x="676.969696969697" y="1430.878787878788" type="line"/>
      <point x="1242.6666666666667" y="0.0" type="line"/>
      <point x="1340.5" y="0.0" type="line"/>
      <point x="751.0" y="1480.0" type="line"/>
      <point x="630.030303030303" y="1480.0" type="line"/>
    </contour>
    <contour>
      <point x="311.0909090909091" y="516.3939393939394" type="line"/>
      <point x="1069.7272727272727" y="516.3939393939394" type="line"/>
      <point x="1044.939393939394" y="599.3030303030303" type="line"/>
      <point x="335.969696969697" y="599.3030303030303" type="line"/>
    </contour>
    <contour>
      <point x="934.060606060606" y="1682.7272727272727" type="curve" smooth="yes"/>
      <point x="977.1515151515151" y="1682.7272727272727"/>
      <point x="1005.8181818181818" y="1709.3333333333333"/>
      <point x="1005.8181818181818" y="1751.878787878788" type="curve" smooth="yes"/>
      <point x="1005.8181818181818" y="1794.4242424242425"/>
      <point x="977.1515151515151" y="1822.909090909091"/>
      <point x="934.060606060606" y="1822.909090909091" type="curve" smooth="yes"/>
      <point x="890.969696969697" y="1822.909090909091"/>
      <point x="862.3030303030303" y="1794.4242424242425"/>
      <point x="862.3030303030303" y="1751.878787878788" type="curve" smooth="yes"/>
      <point x="862.3030303030303" y="1709.3333333333333"/>
      <point x="890.969696969697" y="1682.7272727272727"/>
    </contour>
    <contour>
      <point x="448.6666666666667" y="1682.7272727272727" type="curve" smooth="yes"/>
      <point x="491.75757575757575" y="1682.7272727272727"/>
      <point x="520.4242424242425" y="1709.3333333333333"/>
      <point x="520.4242424242425" y="1751.878787878788" type="curve" smooth="yes"/>
      <point x="520.4242424242425" y="1794.4242424242425"/>
      <point x="491.75757575757575" y="1822.909090909091"/>
      <point x="448.6666666666667" y="1822.909090909091" type="curve" smooth="yes"/>
      <point x="405.57575757575756" y="1822.909090909091"/>
      <point x="376.9090909090909" y="1794.4242424242425"/>
      <point x="376.9090909090909" y="1751.878787878788" type="curve" smooth="yes"/>
      <point x="376.9090909090909" y="1709.3333333333333"/>
      <point x="405.57575757575756" y="1682.7272727272727"/>
    </contour>
  </outline>
</glyph>
<glyph name="Aring" format="2">
  <advance width="1381.030303030303"/>
  <unicode hex="00C5"/>
  <anchor x="693.7121212121212" y="1350.909090909091" name="_top"/>
  <anchor x="691.4545454545455" y="0.0" name="bottom"/>
  <anchor x="1340.5" y="0.0" name="ogonek"/>
  <anchor x="691.3636363636364" y="1520.0" name="top"/>
  <outline>
    <contour>
      <point x="40.53030303030303" y="0.0" type="line"/>
      <point x="136.24242424242425" y="0.0" type="line"/>
      <point x="701.8787878787879" y="1430.878787878788" type="line"/>
      <point x="676.969696969697" y="1430.878787878788" type="line"/>
      <point x="1242.6666666666667" y="0.0" type="line"/>
      <point x="1340.5" y="0.0" type="line"/>
      <point x="751.0" y="1480.0" type="line"/>
      <point x="630.030303030303" y="1480.0" type="line"/>
    </contour>
    <contour>
      <point x="311.0909090909091" y="516.3939393939394" type="line"/>
      <point x="1069.7272727272727" y="516.3939393939394" type="line"/>
      <point x="1044.939393939394" y="599.3030303030303" type="line"/>
      <point x="335.969696969697" y="599.3030303030303" type="line"/>
    </contour>
    <contour>
      <point x="693.7121212121212" y="1439.8939393939395" type="curve" smooth="yes"/>
      <point x="801.2878787878788" y="1439.8939393939395"/>
      <point x="880.3787878787879" y="1518.7424242424242"/>
      <point x="880.3787878787879" y="1626.0757575757575" type="curve" smooth="yes"/>
      <point x="880.3787878787879" y="1733.409090909091"/>
      <point x="801.2878787878788" y="1812.2575757575758"/>
      <point x="693.7121212121212" y="1812.2575757575758" type="curve" smooth="yes"/>
      <point x="586.1363636363636" y="1812.2575757575758"/>
      <point x="507.04545454545456" y="1733.409090909091"/>
      <point x="507.04545454545456" y="1626.0757575757575" type="curve" smooth="yes"/>
      <point x="507.04545454545456" y="1518.7424242424242"/>
      <point x="586.1363636363636" y="1439.8939393939395"/>
    </contour>
    <contour>
      <point x="693.7121212121212" y="1497.1060606060605" type="curve" smooth="yes"/>
      <point x="619.530303030303" y="1497.1060606060605"/>
      <point x="566.8636363636364" y="1546.0151515151515"/>
      <point x="566.8636363636364" y="1626.0757575757575" type="curve" smooth="yes"/>
      <point x="566.8636363636364" y="1706.1363636363637"/>
      <point x="619.530303030303" y="1755.0454545454545"/>
      <point x="693.7121212121212" y="1755.0454545454545" type="curve" smooth="yes"/>
      <point x="767.8939393939394" y="1755.0454545454545"/>
      <point x="820.560606060606" y="1706.1363636363637"/>
      <point x="820.560606060606" y="1626.0757575757575" type="curve" smooth="yes"/>
      <point x="820.560606060606" y="1546.0151515151515"/>
      <point x="767.8939393939394" y="1497.1060606060605"/>
    </contour>
  </outline>
</glyph>
<glyph name="AE" format="2">
  <advance width="1882.9848484848485"/>
  <unicode hex="00C6"/>
  <anchor x="1010.5" y="0.0" name="bottom"/>
  <anchor x="911.3939393939394" y="1520.0" name="top"/>
  <outline>
    <contour>
      <point x="40.53030303030303" y="0.0" type="line"/>
      <point x="136.33333333333334" y="0.0" type="line"/>
      <point x="698.6515151515151" y="1397.030303030303" type="line"/>
      <point x="902.0757575757575" y="1397.030303030303" type="line"/>
      <point x="904.8939393939394" y="1480.0" type="line"/>
      <point x="639.8939393939394" y="1480.0" type="line"/>
    </contour>
    <contour>
      <point x="318.6060606060606" y="516.3636363636364" type="line"/>
      <point x="976.7121212121212" y="516.3636363636364" type="line"/>
      <point x="976.7121212121212" y="599.3333333333334" type="line"/>
      <point x="343.4848484848485" y="599.3333333333334" type="line"/>
    </contour>
    <contour>
      <point x="973.5454545454545" y="0.0" type="line"/>
      <point x="1794.121212121212" y="0.0" type="line"/>
      <point x="1794.121212121212" y="82.96969696969697" type="line"/>
      <point x="1059.7727272727273" y="82.96969696969697" type="line"/>
      <point x="959.3484848484849" y="1397.030303030303" type="line"/>
      <point x="1784.121212121212" y="1397.030303030303" type="line"/>
      <point x="1784.121212121212" y="1480.0" type="line"/>
      <point x="863.6969696969697" y="1480.0" type="line"/>
    </contour>
    <contour>
      <point x="977.8939393939394" y="719.1515151515151" type="line"/>
      <point x="1686.1363636363635" y="719.1515151515151" type="line"/>
      <point x="1686.1363636363635" y="802.1212121212121" type="line"/>
      <point x="977.8939393939394" y="802.1212121212121" type="line"/>
    </contour>
  </outline>
</glyph>
<glyph name="Ccedilla" format="2">
  <advance width="1198.9242424242425"/>
  <unicode hex="00C7"/>
  <anchor x="740.409090909091" y="0.0" name="_bottom"/>
  <anchor x="740.409090909091" y="0.0" name="bottom"/>
  <anchor x="723.969696969697" y="1520.0" name="top"/>
  <outline>
    <contour>
      <point x="788.7424242424242" y="-18.12121212121212" type="curve" smooth="yes"/>
      <point x="923.8939393939394" y="-18.12121212121212"/>
      <point x="1041.121212121212" y="2.1363636363636362"/>
      <point x="1152.8636363636365" y="42.66666666666667" type="curve"/>
      <point x="1152.8636363636365" y="128.6060606060606" type="line"/>
      <point x="1018.8181818181818" y="82.18181818181819"/>
      <point x="914.1060606060606" y="66.15151515151516"/>
      <point x="791.9242424242424" y="66.15151515151516" type="curve" smooth="yes"/>
      <point x="447.1969696969697" y="66.15151515151516"/>
      <point x="221.36363636363637" y="229.3181818181818"/>
      <point x="221.36363636363637" y="741.8787878787879" type="curve" smooth="yes"/>
      <point x="221.36363636363637" y="1231.2727272727273"/>
      <point x="436.9848484848485" y="1413.8484848484848"/>
      <point x="804.5757575757576" y="1413.8484848484848" type="curve" smooth="yes"/>
      <point x="923.8484848484849" y="1413.8484848484848"/>
      <point x="1039.2272727272727" y="1397.2424242424242"/>
      <point x="1152.8636363636365" y="1362.8333333333333" type="curve"/>
      <point x="1152.8636363636365" y="1448.7727272727273" type="line"/>
      <point x="1040.2575757575758" y="1481.5454545454545"/>
      <point x="932.9242424242425" y="1498.121212121212"/>
      <point x="805.5" y="1498.121212121212" type="curve" smooth="yes"/>
      <point x="387.3636363636364" y="1498.121212121212"/>
      <point x="124.87878787878788" y="1276.060606060606"/>
      <point x="124.87878787878788" y="737.8787878787879" type="curve" smooth="yes"/>
      <point x="124.87878787878788" y="176.5151515151515"/>
      <point x="398.1818181818182" y="-18.12121212121212"/>
    </contour>
    <contour>
      <point x="748.8030303030303" y="-403.6363636363636" type="curve" smooth="yes"/>
      <point x="874.439393939394" y="-403.6363636363636"/>
      <point x="954.2121212121212" y="-354.75757575757575"/>
      <point x="954.2121212121212" y="-256.27272727272725" type="curve" smooth="yes"/>
      <point x="954.2121212121212" y="-157.9090909090909"/>
      <point x="875.1060606060606" y="-109.3030303030303"/>
      <point x="754.5757575757576" y="-109.3030303030303" type="curve"/>
      <point x="771.0757575757575" y="-140.78787878787878" type="line"/>
      <point x="771.0757575757575" y="20.0" type="line"/>
      <point x="706.469696969697" y="20.0" type="line"/>
      <point x="706.469696969697" y="-165.12121212121212" type="line"/>
      <point x="745.6212121212121" y="-165.12121212121212" type="line" smooth="yes"/>
      <point x="836.560606060606" y="-165.12121212121212"/>
      <point x="888.3030303030303" y="-192.4848484848485"/>
      <point x="888.3030303030303" y="-255.3939393939394" type="curve" smooth="yes"/>
      <point x="888.3030303030303" y="-318.1515151515151"/>
      <point x="836.6212121212121" y="-345.42424242424244"/>
      <point x="747.469696969697" y="-345.42424242424244" type="curve" smooth="yes"/>
      <point x="686.560606060606" y="-345.42424242424244"/>
      <point x="627.939393939394" y="-334.04545454545456"/>
      <point x="552.8484848484849" y="-302.8030303030303" type="curve"/>
      <point x="552.8484848484849" y="-364.6818181818182" type="line"/>
      <point x="610.2727272727273" y="-390.25757575757575"/>
      <point x="683.939393939394" y="-403.6363636363636"/>
    </contour>
  </outline>
</glyph>
<glyph name="Edieresis" format="2">
  <advance width="1211.9848484848485"/>
  <unicode hex="00CB"/>
  <anchor x="677.060606060606" y="1520.0" name="_top"/>
  <anchor x="679.8787878787879" y="0.0" name="bottom"/>
  <anchor x="1042.2121212121212" y="0.0" name="ogonek"/>
  <anchor x="677.060606060606" y="1520.0" name="top"/>
  <anchor x="43.22727272727273" y="1480.0" name="topleft"/>
  <outline>
    <contour>
      <point x="197.93939393939394" y="0.0" type="line"/>
      <point x="1123.121212121212" y="0.0" type="line"/>
      <point x="1123.121212121212" y="82.96969696969697" type="line"/>
      <point x="289.03030303030306" y="82.96969696969697" type="line"/>
      <point x="289.03030303030306" y="1397.030303030303" type="line"/>
      <point x="1113.121212121212" y="1397.030303030303" type="line"/>
      <point x="1113.121212121212" y="1480.0" type="line"/>
      <point x="197.93939393939394" y="1480.0" type="line"/>
    </contour>
    <contour>
      <point x="254.78787878787878" y="719.1515151515151" type="line"/>
      <point x="1015.1363636363636" y="719.1515151515151" type="line"/>
      <point x="1015.1363636363636" y="802.1212121212121" type="line"/>
      <point x="254.78787878787878" y="802.1212121212121" type="line"/>
    </contour>
    <contour>
      <point x="919.7575757575758" y="1682.7272727272727" type="curve" smooth="yes"/>
      <point x="962.8484848484849" y="1682.7272727272727"/>
      <point x="991.5151515151515" y="1709.3333333333333"/>
      <point x="991.5151515151515" y="1751.878787878788" type="curve" smooth="yes"/>
      <point x="991.5151515151515" y="1794.4242424242425"/>
      <point x="962.8484848484849" y="1822.909090909091"/>
      <point x="919.7575757575758" y="1822.909090909091" type="curve" smooth="yes"/>
      <point x="876.6666666666666" y="1822.909090909091"/>
      <point x="848.0" y="1794.4242424242425"/>
      <point x="848.0" y="1751.878787878788" type="curve" smooth="yes"/>
      <point x="848.0" y="1709.3333333333333"/>
      <point x="876.6666666666666" y="1682.7272727272727"/>
    </contour>
    <contour>
      <point x="434.3636363636364" y="1682.7272727272727" type="curve" smooth="yes"/>
      <point x="477.45454545454544" y="1682.7272727272727"/>
      <point x="506.1212121212121" y="1709.3333333333333"/>
      <point x="506.1212121212121" y="1751.878787878788" type="curve" smooth="yes"/>
      <point x="506.1212121212121" y="1794.4242424242425"/>
      <point x="477.45454545454544" y="1822.909090909091"/>
      <point x="434.3636363636364" y="1822.909090909091" type="curve" smooth="yes"/>
      <point x="391.27272727272725" y="1822.909090909091"/>
      <point x="362.6060606060606" y="1794.4242424242425"/>
      <point x="362.6060606060606" y="1751.878787878788" type="curve" smooth="yes"/>
      <point x="362.6060606060606" y="1709.3333333333333"/>
      <point x="391.27272727272725" y="1682.7272727272727"/>
    </contour>
  </outline>
</glyph>
<glyph name="Igrave" format="2">
  <advance width="487.3333333333333"/>
  <unicode hex="00CC"/>
  <anchor x="243.66666666666666" y="1520.0" name="_top"/>
  <anchor x="243.57575757575756" y="0.0" name="bottom"/>
  <anchor x="289.3939393939394" y="0.0" name="ogonek"/>
  <anchor x="243.66666666666666" y="1520.0" name="top"/>
  <outline>
    <contour>
      <point x="197.93939393939394" y="0.0" type="line"/>
      <point x="289.3939393939394" y="0.0" type="line"/>
      <point x="289.3939393939394" y="1480.0" type="line"/>
      <point x="197.93939393939394" y="1480.0" type="line"/>
    </contour>
    <contour>
      <point x="199.57575757575756" y="1614.1818181818182" type="line"/>
      <point x="287.75757575757575" y="1614.1818181818182" type="line"/>
      <point x="89.56060606060606" y="1888.8484848484848" type="line"/>
      <point x="-16.18181818181818" y="1888.8484848484848" type="line"/>
    </contour>
  </outline>
</glyph>
<glyph name="Iacute" format="2">
  <advance width="487.3333333333333"/>
  <unicode hex="00CD"/>
  <anchor x="243.66666666666666" y="1520.0" name="_top"/>
  <anchor x="243.57575757575756" y="0.0" name="bottom"/>
  <anchor x="289.3939393939394" y="0.0" name="ogonek"/>
  <anchor x="243.66666666666666" y="1520.0" name="top"/>
  <outline>
    <contour>
      <point x="197.93939393939394" y="0.0" type="line"/>
      <point x="289.3939393939394" y="0.0" type="line"/>
      <point x="289.3939393939394" y="1480.0" type="line"/>
      <point x="197.93939393939394" y="1480.0" type="line"/>
    </contour>
    <contour>
      <point x="199.3939393939394" y="1614.1818181818182" type="line"/>
      <point x="287.57575757575756" y="1614.1818181818182" type="line"/>
      <point x="503.33333333333337" y="1888.8484848484848" type="line"/>
      <point x="397.5909090909091" y="1888.8484848484848" type="line"/>
    </contour>
  </outline>
</glyph>
<glyph name="Icircumflex" format="2">
  <advance width="487.3333333333333"/>
  <unicode hex="00CE"/>
  <anchor x="243.66666666666666" y="1520.0" name="_top"/>
  <anchor x="243.57575757575756" y="0.0" name="bottom"/>
  <anchor x="289.3939393939394" y="0.0" name="ogonek"/>
  <anchor x="243.66666666666666" y="1520.0" name="top"/>
  <outline>
    <contour>
      <point x="197.93939393939394" y="0.0" type="line"/>
      <point x="289.3939393939394" y="0.0" type="line"/>
      <point x="289.3939393939394" y="1480.0" type="line"/>
      <point x="197.93939393939394" y="1480.0" type="line"/>
    </contour>
    <contour>
      <point x="-67.33333333333334" y="1614.1818181818182" type="line"/>
      <point x="34.34848484848485" y="1614.1818181818182" type="line"/>
      <point x="260.2878787878788" y="1854.9545454545455" type="line"/>
      <point x="227.04545454545453" y="1854.9545454545455" type="line"/>
      <point x="452.9848484848485" y="1614.1818181818182" type="line"/>
      <point x="554.6666666666666" y="1614.1818181818182" type="line"/>
      <point x="290.54545454545456" y="1888.8484848484848" type="line"/>
      <point x="196.78787878787878" y="1888.8484848484848" type="line"/>
    </contour>
  </outline>
</glyph>
<glyph name="Idieresis" format="2">
  <advance width="487.3333333333333"/>
  <unicode hex="00CF"/>
  <anchor x="243.66666666666666" y="1520.0" name="_top"/>
  <anchor x="243.57575757575756" y="0.0" name="bottom"/>
  <anchor x="289.3939393939394" y="0.0" name="ogonek"/>
  <anchor x="243.66666666666666" y="1520.0" name="top"/>
  <outline>
    <contour>
      <point x="197.93939393939394" y="0.0" type="line"/>
      <point x="289.3939393939394" y="0.0" type="line"/>
      <point x="289.3939393939394" y="1480.0" type="line"/>
      <point x="197.93939393939394" y="1480.0" type="line"/>
    </contour>
    <contour>
      <point x="486.3636363636364" y="1682.7272727272727" type="curve" smooth="yes"/>
      <point x="529.4545454545455" y="1682.7272727272727"/>
      <point x="558.1212121212121" y="1709.3333333333333"/>
      <point x="558.1212121212121" y="1751.878787878788" type="curve" smooth="yes"/>
      <point x="558.1212121212121" y="1794.4242424242425"/>
      <point x="529.4545454545455" y="1822.909090909091"/>
      <point x="486.3636363636364" y="1822.909090909091" type="curve" smooth="yes"/>
      <point x="443.27272727272725" y="1822.909090909091"/>
      <point x="414.6060606060606" y="1794.4242424242425"/>
      <point x="414.6060606060606" y="1751.878787878788" type="curve" smooth="yes"/>
      <point x="414.6060606060606" y="1709.3333333333333"/>
      <point x="443.27272727272725" y="1682.7272727272727"/>
    </contour>
    <contour>
      <point x="0.9696969696969688" y="1682.7272727272727" type="curve" smooth="yes"/>
      <point x="44.06060606060606" y="1682.7272727272727"/>
      <point x="72.72727272727273" y="1709.3333333333333"/>
      <point x="72.72727272727273" y="1751.878787878788" type="curve" smooth="yes"/>
      <point x="72.72727272727273" y="1794.4242424242425"/>
      <point x="44.06060606060606" y="1822.909090909091"/>
      <point x="0.9696969696969688" y="1822.909090909091" type="curve" smooth="yes"/>
      <point x="-42.121212121212125" y="1822.909090909091"/>
      <point x="-70.78787878787878" y="1794.4242424242425"/>
      <point x="-70.78787878787878" y="1751.878787878788" type="curve" smooth="yes"/>
      <point x="-70.78787878787878" y="1709.3333333333333"/>
      <point x="-42.121212121212125" y="1682.7272727272727"/>
    </contour>
  </outline>
</glyph>
<glyph name="Ntilde" format="2">
  <advance width="1527.5"/>
  <unicode hex="00D1"/>
  <anchor x="764.4545454545455" y="1520.0" name="_top"/>
  <anchor x="764.4545454545455" y="0.0" name="bottom"/>
  <anchor x="764.4545454545455" y="1520.0" name="top"/>
  <outline>
    <contour>
      <point x="197.93939393939394" y="0.0" type="line"/>
      <point x="285.8484848484849" y="0.0" type="line"/>
      <point x="285.8484848484849" y="1390.4848484848485" type="line"/>
      <point x="252.95454545454544" y="1390.4848484848485" type="line"/>
      <point x="1232.030303030303" y="0.0" type="line"/>
      <point x="1329.560606060606" y="0.0" type="line"/>
      <point x="1329.560606060606" y="1480.0" type="line"/>
      <point x="1241.6515151515152" y="1480.0" type="line"/>
      <point x="1241.6515151515152" y="89.51515151515152" type="line"/>
      <point x="1274.5454545454545" y="89.51515151515152" type="line"/>
      <point x="295.469696969697" y="1480.0" type="line"/>
      <point x="197.93939393939394" y="1480.0" type="line"/>
    </contour>
    <contour>
      <point x="918.8181818181818" y="1690.7424242424242" type="curve" smooth="yes"/>
      <point x="995.1060606060606" y="1690.7424242424242"/>
      <point x="1049.5454545454545" y="1711.8030303030303"/>
      <point x="1088.590909090909" y="1752.090909090909" type="curve"/>
      <point x="1088.590909090909" y="1829.590909090909" type="line"/>
      <point x="1041.4545454545455" y="1781.7424242424242"/>
      <point x="991.6666666666667" y="1759.3030303030303"/>
      <point x="919.4242424242424" y="1759.3030303030303" type="curve" smooth="yes"/>
      <point x="820.030303030303" y="1759.3030303030303"/>
      <point x="730.3030303030303" y="1834.3636363636363"/>
      <point x="610.0909090909091" y="1834.3636363636363" type="curve" smooth="yes"/>
      <point x="533.8030303030303" y="1834.3636363636363"/>
      <point x="479.3636363636364" y="1813.1818181818182"/>
      <point x="440.3181818181818" y="1772.8939393939395" type="curve"/>
      <point x="440.3181818181818" y="1695.3939393939395" type="line"/>
      <point x="487.45454545454544" y="1743.2424242424242"/>
      <point x="537.2424242424242" y="1765.6818181818182"/>
      <point x="609.4848484848485" y="1765.6818181818182" type="curve" smooth="yes"/>
      <point x="708.8787878787879" y="1765.6818181818182"/>
      <point x="798.6060606060606" y="1690.7424242424242"/>
    </contour>
  </outline>
</glyph>
<glyph name="Otilde" format="2">
  <advance width="1488.060606060606"/>
  <unicode hex="00D5"/>
  <anchor x="744.030303030303" y="1520.0" name="_top"/>
  <anchor x="744.030303030303" y="0.0" name="bottom"/>
  <anchor x="744.030303030303" y="740.0" name="center"/>
  <anchor x="913.8181818181818" y="0.0" name="ogonek"/>
  <anchor x="744.030303030303" y="1520.0" name="top"/>
  <anchor x="47.515151515151516" y="1480.0" name="topleft"/>
  <anchor x="915.560606060606" y="1480.0" name="topright"/>
  <outline>
    <contour>
      <point x="744.030303030303" y="-18.12121212121212" type="curve" smooth="yes"/>
      <point x="1108.4848484848485" y="-18.12121212121212"/>
      <point x="1363.1818181818182" y="204.83333333333334"/>
      <point x="1363.1818181818182" y="740.0" type="curve" smooth="yes"/>
      <point x="1363.1818181818182" y="1275.1666666666667"/>
      <point x="1112.8030303030303" y="1498.121212121212"/>
      <point x="744.030303030303" y="1498.121212121212" type="curve" smooth="yes"/>
      <point x="379.4848484848485" y="1498.121212121212"/>
      <point x="124.87878787878788" y="1275.3484848484848"/>
      <point x="124.87878787878788" y="740.0" type="curve" smooth="yes"/>
      <point x="124.87878787878788" y="204.65151515151516"/>
      <point x="375.3484848484849" y="-18.12121212121212"/>
    </contour>
    <contour>
      <point x="744.030303030303" y="66.92424242424242" type="curve" smooth="yes"/>
      <point x="432.72727272727275" y="66.92424242424242"/>
      <point x="220.63636363636363" y="246.96969696969697"/>
      <point x="220.63636363636363" y="744.2424242424242" type="curve" smooth="yes"/>
      <point x="220.63636363636363" y="1233.030303030303"/>
      <point x="433.0" y="1413.0757575757575"/>
      <point x="744.030303030303" y="1413.0757575757575" type="curve" smooth="yes"/>
      <point x="1055.060606060606" y="1413.0757575757575"/>
      <point x="1267.4242424242425" y="1232.7575757575758"/>
      <point x="1267.4242424242425" y="735.7575757575758" type="curve" smooth="yes"/>
      <point x="1267.4242424242425" y="247.24242424242425"/>
      <point x="1055.3333333333333" y="66.92424242424242"/>
    </contour>
    <contour>
      <point x="898.3939393939394" y="1690.7424242424242" type="curve" smooth="yes"/>
      <point x="974.6818181818181" y="1690.7424242424242"/>
      <point x="1029.121212121212" y="1711.8030303030303"/>
      <point x="1068.1666666666667" y="1752.090909090909" type="curve"/>
      <point x="1068.1666666666667" y="1829.590909090909" type="line"/>
      <point x="1021.030303030303" y="1781.7424242424242"/>
      <point x="971.2424242424242" y="1759.3030303030303"/>
      <point x="899.0" y="1759.3030303030303" type="curve" smooth="yes"/>
      <point x="799.6060606060606" y="1759.3030303030303"/>
      <point x="709.8787878787879" y="1834.3636363636363"/>
      <point x="589.6666666666667" y="1834.3636363636363" type="curve" smooth="yes"/>
      <point x="513.3787878787879" y="1834.3636363636363"/>
      <point x="458.93939393939394" y="1813.1818181818182"/>
      <point x="419.8939393939394" y="1772.8939393939395" type="curve"/>
      <point x="419.8939393939394" y="1695.3939393939395" type="line"/>
      <point x="467.030303030303" y="1743.2424242424242"/>
      <point x="516.8181818181818" y="1765.6818181818182"/>
      <point x="589.060606060606" y="1765.6818181818182" type="curve" smooth="yes"/>
      <point x="688.4545454545455" y="1765.6818181818182"/>
      <point x="778.1818181818182" y="1690.7424242424242"/>
    </contour>
  </outline>
</glyph>
<glyph name="Odieresis" format="2">
  <advance width="1488.060606060606"/>
  <unicode hex="00D6"/>
  <anchor x="744.030303030303" y="1520.0" name="_top"/>
  <anchor x="744.030303030303" y="0.0" name="bottom"/>
  <anchor x="744.030303030303" y="740.0" name="center"/>
  <anchor x="913.8181818181818" y="0.0" name="ogonek"/>
  <anchor x="744.030303030303" y="1520.0" name="top"/>
  <anchor x="47.515151515151516" y="1480.0" name="topleft"/>
  <anchor x="915.560606060606" y="1480.0" name="topright"/>
  <outline>
    <contour>
      <point x="744.030303030303" y="-18.12121212121212" type="curve" smooth="yes"/>
      <point x="1108.4848484848485" y="-18.12121212121212"/>
      <point x="1363.1818181818182" y="204.83333333333334"/>
      <point x="1363.1818181818182" y="740.0" type="curve" smooth="yes"/>
      <point x="1363.1818181818182" y="1275.1666666666667"/>
      <point x="1112.8030303030303" y="1498.121212121212"/>
      <point x="744.030303030303" y="1498.121212121212" type="curve" smooth="yes"/>
      <point x="379.4848484848485" y="1498.121212121212"/>
      <point x="124.87878787878788" y="1275.3484848484848"/>
      <point x="124.87878787878788" y="740.0" type="curve" smooth="yes"/>
      <point x="124.87878787878788" y="204.65151515151516"/>
      <point x="375.3484848484849" y="-18.12121212121212"/>
    </contour>
    <contour>
      <point x="744.030303030303" y="66.92424242424242" type="curve" smooth="yes"/>
      <point x="432.72727272727275" y="66.92424242424242"/>
      <point x="220.63636363636363" y="246.96969696969697"/>
      <point x="220.63636363636363" y="744.2424242424242" type="curve" smooth="yes"/>
      <point x="220.63636363636363" y="1233.030303030303"/>
      <point x="433.0" y="1413.0757575757575"/>
      <point x="744.030303030303" y="1413.0757575757575" type="curve" smooth="yes"/>
      <point x="1055.060606060606" y="1413.0757575757575"/>
      <point x="1267.4242424242425" y="1232.7575757575758"/>
      <point x="1267.4242424242425" y="735.7575757575758" type="curve" smooth="yes"/>
      <point x="1267.4242424242425" y="247.24242424242425"/>
      <point x="1055.3333333333333" y="66.92424242424242"/>
    </contour>
    <contour>
      <point x="986.7272727272727" y="1682.7272727272727" type="curve" smooth="yes"/>
      <point x="1029.8181818181818" y="1682.7272727272727"/>
      <point x="1058.4848484848485" y="1709.3333333333333"/>
      <point x="1058.4848484848485" y="1751.878787878788" type="curve" smooth="yes"/>
      <point x="1058.4848484848485" y="1794.4242424242425"/>
      <point x="1029.8181818181818" y="1822.909090909091"/>
      <point x="986.7272727272727" y="1822.909090909091" type="curve" smooth="yes"/>
      <point x="943.6363636363636" y="1822.909090909091"/>
      <point x="914.969696969697" y="1794.4242424242425"/>
      <point x="914.969696969697" y="1751.878787878788" type="curve" smooth="yes"/>
      <point x="914.969696969697" y="1709.3333333333333"/>
      <point x="943.6363636363636" y="1682.7272727272727"/>
    </contour>
    <contour>
      <point x="501.3333333333333" y="1682.7272727272727" type="curve" smooth="yes"/>
      <point x="544.4242424242424" y="1682.7272727272727"/>
      <point x="573.0909090909091" y="1709.3333333333333"/>
      <point x="573.0909090909091" y="1751.878787878788" type="curve" smooth="yes"/>
      <point x="573.0909090909091" y="1794.4242424242425"/>
      <point x="544.4242424242424" y="1822.909090909091"/>
      <point x="501.3333333333333" y="1822.909090909091" type="curve" smooth="yes"/>
      <point x="458.24242424242425" y="1822.909090909091"/>
      <point x="429.57575757575756" y="1794.4242424242425"/>
      <point x="429.57575757575756" y="1751.878787878788" type="curve" smooth="yes"/>
      <point x="429.57575757575756" y="1709.3333333333333"/>
      <point x="458.24242424242425" y="1682.7272727272727"/>
    </contour>
  </outline>
</glyph>
<glyph name="multiply" format="2">
  <advance width="996.5454545454545"/>
  <unicode hex="00D7"/>
  <outline>
    <contour>
      <point x="194.03030303030303" y="400.3030303030303" type="line"/>
      <point x="498.27272727272725" y="704.5454545454545" type="line"/>
      <point x="802.5151515151515" y="400.3030303030303" type="line"/>
      <point x="857.969696969697" y="455.75757575757575" type="line"/>
      <point x="553.7272727272727" y="760.0" type="line"/>
      <point x="857.969696969697" y="1064.2424242424242" type="line"/>
      <point x="802.5151515151515" y="1119.6969696969697" type="line"/>
      <point x="498.27272727272725" y="815.4545454545455" type="line"/>
      <point x="194.03030303030303" y="1119.6969696969697" type="line"/>
      <point x="138.57575757575756" y="1064.2424242424242" type="line"/>
      <point x="442.8181818181818" y="760.0" type="line"/>
      <point x="138.57575757575756" y="455.75757575757575" type="line"/>
    </contour>
  </outline>
</glyph>
<glyph name="Uacute" format="2">
  <advance width="1470.6666666666667"/>
  <unicode hex="00DA"/>
  <anchor x="736.530303030303" y="1520.0" name="_top"/>
  <anchor x="736.530303030303" y="0.0" name="bottom"/>
  <anchor x="886.8787878787879" y="2.8181818181818183" name="ogonek"/>
  <anchor x="736.530303030303" y="1520.0" name="top"/>
  <anchor x="1192.5454545454545" y="1480.0" name="topright"/>
  <outline>
    <contour>
      <point x="736.530303030303" y="-18.12121212121212" type="curve" smooth="yes"/>
      <point x="1109.030303030303" y="-18.12121212121212"/>
      <point x="1280.6060606060605" y="156.36363636363637"/>
      <point x="1280.6060606060605" y="555.0151515151515" type="curve" smooth="yes"/>
      <point x="1280.6060606060605" y="1480.0" type="line"/>
      <point x="1191.5151515151515" y="1480.0" type="line"/>
      <point x="1191.5151515151515" y="543.2272727272727" type="line" smooth="yes"/>
      <point x="1191.5151515151515" y="210.1818181818182"/>
      <point x="1049.909090909091" y="65.93939393939394"/>
      <point x="736.530303030303" y="65.93939393939394" type="curve" smooth="yes"/>
      <point x="423.1515151515151" y="65.93939393939394"/>
      <point x="281.5151515151515" y="210.1818181818182"/>
      <point x="281.5151515151515" y="543.2272727272727" type="curve" smooth="yes"/>
      <point x="281.5151515151515" y="1480.0" type="line"/>
      <point x="190.06060606060606" y="1480.0" type="line"/>
      <point x="190.06060606060606" y="555.0151515151515" type="line" smooth="yes"/>
      <point x="190.06060606060606" y="156.36363636363637"/>
      <point x="363.5151515151515" y="-18.12121212121212"/>
    </contour>
    <contour>
      <point x="692.2575757575758" y="1614.1818181818182" type="line"/>
      <point x="780.439393939394" y="1614.1818181818182" type="line"/>
      <point x="996.1969696969697" y="1888.8484848484848" type="line"/>
      <point x="890.4545454545455" y="1888.8484848484848" type="line"/>
    </contour>
  </outline>
</glyph>
<glyph name="Udieresis" format="2">
  <advance width="1470.6666666666667"/>
  <unicode hex="00DC"/>
  <anchor x="736.530303030303" y="1520.0" name="_top"/>
  <anchor x="736.530303030303" y="0.0" name="bottom"/>
  <anchor x="886.8787878787879" y="2.8181818181818183" name="ogonek"/>
  <anchor x="736.530303030303" y="1520.0" name="top"/>
  <anchor x="1192.5454545454545" y="1480.0" name="topright"/>
  <outline>
    <contour>
      <point x="736.530303030303" y="-18.12121212121212" type="curve" smooth="yes"/>
      <point x="1109.030303030303" y="-18.12121212121212"/>
      <point x="1280.6060606060605" y="156.36363636363637"/>
      <point x="1280.6060606060605" y="555.0151515151515" type="curve" smooth="yes"/>
      <point x="1280.6060606060605" y="1480.0" type="line"/>
      <point x="1191.5151515151515" y="1480.0" type="line"/>
      <point x="1191.5151515151515" y="543.2272727272727" type="line" smooth="yes"/>
      <point x="1191.5151515151515" y="210.1818181818182"/>
      <point x="1049.909090909091" y="65.93939393939394"/>
      <point x="736.530303030303" y="65.93939393939394" type="curve" smooth="yes"/>
      <point x="423.1515151515151" y="65.93939393939394"/>
      <point x="281.5151515151515" y="210.1818181818182"/>
      <point x="281.5151515151515" y="543.2272727272727" type="curve" smooth="yes"/>
      <point x="281.5151515151515" y="1480.0" type="line"/>
      <point x="190.06060606060606" y="1480.0" type="line"/>
      <point x="190.06060606060606" y="555.0151515151515" type="line" smooth="yes"/>
      <point x="190.06060606060606" y="156.36363636363637"/>
      <point x="363.5151515151515" y="-18.12121212121212"/>
    </contour>
    <contour>
      <point x="979.2272727272727" y="1682.7272727272727" type="curve" smooth="yes"/>
      <point x="1022.3181818181819" y="1682.7272727272727"/>
      <point x="1050.9848484848485" y="1709.3333333333333"/>
      <point x="1050.9848484848485" y="1751.878787878788" type="curve" smooth="yes"/>
      <point x="1050.9848484848485" y="1794.4242424242425"/>
      <point x="1022.3181818181819" y="1822.909090909091"/>
      <point x="979.2272727272727" y="1822.909090909091" type="curve" smooth="yes"/>
      <point x="936.1363636363636" y="1822.909090909091"/>
      <point x="907.469696969697" y="1794.4242424242425"/>
      <point x="907.469696969697" y="1751.878787878788" type="curve" smooth="yes"/>
      <point x="907.469696969697" y="1709.3333333333333"/>
      <point x="936.1363636363636" y="1682.7272727272727"/>
    </contour>
    <contour>
      <point x="493.83333333333337" y="1682.7272727272727" type="curve" smooth="yes"/>
      <point x="536.9242424242424" y="1682.7272727272727"/>
      <point x="565.5909090909091" y="1709.3333333333333"/>
      <point x="565.5909090909091" y="1751.878787878788" type="curve" smooth="yes"/>
      <point x="565.5909090909091" y="1794.4242424242425"/>
      <point x="536.9242424242424" y="1822.909090909091"/>
      <point x="493.83333333333337" y="1822.909090909091" type="curve" smooth="yes"/>
      <point x="450.74242424242425" y="1822.909090909091"/>
      <point x="422.07575757575756" y="1794.4242424242425"/>
      <point x="422.07575757575756" y="1751.878787878788" type="curve" smooth="yes"/>
      <point x="422.07575757575756" y="1709.3333333333333"/>
      <point x="450.74242424242425" y="1682.7272727272727"/>
    </contour>
  </outline>
</glyph>
<glyph name="Thorn" format="2">
  <advance width="1271.2121212121212"/>
  <unicode hex="00DE"/>
  <outline>
    <contour>
      <point x="197.93939393939394" y="0.0" type="line"/>
      <point x="289.3939393939394" y="0.0" type="line"/>
      <point x="289.3939393939394" y="279.8030303030303" type="line"/>
      <point x="375.71212121212125" y="271.3484848484849"/>
      <point x="444.95454545454544" y="267.93939393939394"/>
      <point x="529.6666666666666" y="267.93939393939394" type="curve" smooth="yes"/>
      <point x="971.9090909090909" y="267.93939393939394"/>
      <point x="1160.6818181818182" y="444.07575757575756"/>
      <point x="1160.6818181818182" y="762.3484848484849" type="curve" smooth="yes"/>
      <point x="1160.6818181818182" y="1101.3484848484848"/>
      <point x="954.8787878787879" y="1252.090909090909"/>
      <point x="574.7272727272727" y="1252.090909090909" type="curve" smooth="yes"/>
      <point x="454.0909090909091" y="1252.090909090909"/>
      <point x="364.93939393939394" y="1241.6363636363637"/>
      <point x="289.3939393939394" y="1228.4848484848485" type="curve"/>
      <point x="289.3939393939394" y="1481.409090909091" type="line"/>
      <point x="197.93939393939394" y="1481.409090909091" type="line"/>
    </contour>
    <contour>
      <point x="531.0757575757576" y="349.5151515151515" type="curve" smooth="yes"/>
      <point x="440.4545454545455" y="349.5151515151515"/>
      <point x="366.6212121212121" y="354.3333333333333"/>
      <point x="289.3939393939394" y="364.90909090909093" type="curve"/>
      <point x="289.3939393939394" y="1146.5454545454545" type="line"/>
      <point x="375.5909090909091" y="1161.939393939394"/>
      <point x="466.24242424242425" y="1170.5151515151515"/>
      <point x="576.8787878787879" y="1170.5151515151515" type="curve" smooth="yes"/>
      <point x="903.3636363636364" y="1170.5151515151515"/>
      <point x="1066.469696969697" y="1046.090909090909"/>
      <point x="1066.469696969697" y="759.939393939394" type="curve" smooth="yes"/>
      <point x="1066.469696969697" y="487.42424242424244"/>
      <point x="913.6969696969697" y="349.5151515151515"/>
    </contour>
  </outline>
</glyph>
